SplineFontDB: 3.2
FontName: Titillium-SemiboldItalic
FullName: Titillium Semibold Italic
FamilyName: Titillium Semibold
Weight: Semibold
Copyright: Copyright (c) 2009-2011 by Accademia di Belle Arti di Urbino and students of MA course of Visual design. Some rights reserved.
Version: 57.000
ItalicAngle: -13
UnderlinePosition: -100
UnderlineWidth: 30
Ascent: 750
Descent: 250
InvalidEm: 0
sfntRevision: 0x00010000
LayerCount: 2
Layer: 0 0 "Zur+APwA-ck" 1
Layer: 1 0 "Zeichen" 0
XUID: [1021 1010 -703601740 12781]
StyleMap: 0x0001
FSType: 8
OS2Version: 3
OS2_WeightWidthSlopeOnly: 0
OS2_UseTypoMetrics: 0
CreationTime: 1339467514
ModificationTime: 1577951716
PfmFamily: 81
TTFWeight: 600
TTFWidth: 5
LineGap: 200
VLineGap: 0
Panose: 0 0 7 0 0 0 0 0 0 0
OS2TypoAscent: 750
OS2TypoAOffset: 0
OS2TypoDescent: -250
OS2TypoDOffset: 0
OS2TypoLinegap: 200
OS2WinAscent: 1112
OS2WinAOffset: 0
OS2WinDescent: 298
OS2WinDOffset: 0
HheadAscent: 750
HheadAOffset: 0
HheadDescent: -250
HheadDOffset: 0
OS2SubXSize: 650
OS2SubYSize: 600
OS2SubXOff: -17
OS2SubYOff: 75
OS2SupXSize: 650
OS2SupYSize: 600
OS2SupXOff: 81
OS2SupYOff: 350
OS2StrikeYSize: 30
OS2StrikeYPos: 299
OS2CapHeight: 685
OS2XHeight: 499
OS2Vendor: 'UKWN'
OS2CodePages: 20000093.00000000
OS2UnicodeRanges: 00000007.00000001.00000000.00000000
Lookup: 1 0 0 "'locl' Localized Forms in Lateinisch lookup 0" { "'locl' Localized Forms in Lateinisch lookup 0 subtable"  } ['locl' ('DFLT' <'dflt' > 'latn' <'dflt' > ) ]
Lookup: 1 0 0 "'frac' Diagonal Fractions in Lateinisch lookup 1" { "'frac' Diagonal Fractions in Lateinisch lookup 1 subtable"  } ['frac' ('DFLT' <'dflt' > 'latn' <'dflt' > ) ]
Lookup: 6 0 0 "'frac' Diagonal Fractions in Lateinisch lookup 2" { "'frac' Diagonal Fractions in Lateinisch lookup 2 subtable"  } ['frac' ('DFLT' <'dflt' > 'latn' <'dflt' > ) ]
Lookup: 1 0 0 "'frac' Diagonal Fractions in Lateinisch lookup 3" { "'frac' Diagonal Fractions in Lateinisch lookup 3 subtable"  } ['frac' ('DFLT' <'dflt' > 'latn' <'dflt' > ) ]

StartChar: acute
Encoding: 180 180 2
Width: 553
Flags: MW
HStem: 666 21G<513 513> 671 21G<256 256>
VStem: 256 257<666 671>
LayerCount: 2
Fore
SplineSet
265 585 m 1xa0
 256 671 l 1
 504 763 l 1x60
 513 666 l 1
 265 585 l 1xa0
EndSplineSet
EndChar

StartChar: breve
Encoding: 728 728 3
Width: 452
Flags: MW
HStem: 591 90<347 389.5 347 399>
VStem: 219 100
LayerCount: 2
Fore
SplineSet
222 739 m 1
 319 739 l 1
 313 708 325 681 369 681 c 0
 410 681 435 703 447 739 c 1
 544 739 l 1
 515 649 456 591 342 591 c 0
 246 591 207 645 222 739 c 1
EndSplineSet
EndChar

StartChar: caron
Encoding: 711 711 4
Width: 791
Flags: MW
HStem: 580 165<488 504 405 555 488 488>
VStem: 405 313<745 745>
LayerCount: 2
Fore
SplineSet
555 580 m 1
 488 580 l 1
 405 745 l 1
 504 745 l 1
 543 669 l 1
 612 745 l 1
 718 745 l 1
 555 580 l 1
EndSplineSet
EndChar

StartChar: cedilla
Encoding: 184 184 5
Width: 791
Flags: MW
HStem: -221 75<362 384.5 361 415> -91 53<355 417>
VStem: 416 90
LayerCount: 2
Fore
SplineSet
503 -124 m 0
 488 -188 447 -221 383 -221 c 0
 341 -221 301 -212 301 -212 c 1
 318 -144 l 1
 318 -144 351 -146 371 -146 c 0
 398 -146 411 -137 416 -117 c 0
 422 -94 406 -91 384 -91 c 2
 355 -91 l 1
 377 5 l 1
 423 5 l 1
 411 -38 l 1
 417 -38 l 2
 475 -38 519 -56 503 -124 c 0
EndSplineSet
EndChar

StartChar: circumflex
Encoding: 710 710 6
Width: 791
Flags: MW
HStem: 580 165<367 592 367 592 579 579 579 592 529 678>
VStem: 367 311<580 580>
LayerCount: 2
Fore
SplineSet
367 580 m 1
 529 745 l 1
 592 745 l 1
 678 580 l 1
 579 580 l 1
 544 654 l 1
 473 580 l 1
 367 580 l 1
EndSplineSet
EndChar

StartChar: commaaccent
Encoding: 63171 63171 7
Width: 161
Flags: MW
HStem: -298 226<-63 129 -63 129>
VStem: -63 192
LayerCount: 2
Fore
SplineSet
-63 -298 m 1
 30 -72 l 1
 129 -72 l 1
 27 -298 l 1
 -63 -298 l 1
EndSplineSet
EndChar

StartChar: dieresis
Encoding: 168 168 8
Width: 586
Flags: MW
HStem: 609 117<227 343 254 316 442 504 254 416>
VStem: 227 305<609 726>
LayerCount: 2
Fore
SplineSet
227 609 m 1
 254 726 l 1
 343 726 l 1
 316 609 l 1
 227 609 l 1
416 609 m 1
 442 726 l 1
 532 726 l 1
 504 609 l 1
 416 609 l 1
EndSplineSet
EndChar

StartChar: dotaccent
Encoding: 729 729 9
Width: 242
Flags: MW
HStem: 592 116<213 333 240 306>
VStem: 213 120<592 708>
LayerCount: 2
Fore
SplineSet
213 592 m 1
 240 708 l 1
 333 708 l 1
 306 592 l 1
 213 592 l 1
EndSplineSet
EndChar

StartChar: hungarumlaut
Encoding: 733 733 10
Width: 679
Flags: MW
HStem: 571 223<527 626>
VStem: 276 419<626 737>
LayerCount: 2
Fore
SplineSet
527 571 m 1
 464 626 l 1
 626 794 l 1
 695 737 l 1
 527 571 l 1
338 571 m 1
 276 626 l 1
 437 793 l 1
 506 737 l 1
 338 571 l 1
EndSplineSet
EndChar

StartChar: grave
Encoding: 96 96 11
Width: 518
Flags: MW
HStem: 667 21G<517 517> 671 21G<260 260>
VStem: 260 257<667 671>
LayerCount: 2
Fore
SplineSet
312 759 m 1x60
 517 667 l 1
 471 588 l 1xa0
 260 671 l 1
 312 759 l 1x60
EndSplineSet
EndChar

StartChar: macron
Encoding: 175 175 12
Width: 452
Flags: MW
HStem: 632 88<222 537 242 516>
VStem: 222 315<632 720>
LayerCount: 2
Fore
SplineSet
222 632 m 1
 242 720 l 1
 537 720 l 1
 516 632 l 1
 222 632 l 1
EndSplineSet
EndChar

StartChar: ogonek
Encoding: 731 731 13
Width: 440
Flags: MW
HStem: -210 96<215.5 302>
VStem: 162 171.5
LayerCount: 2
Fore
SplineSet
339 -110 m 1
 328 -200 l 1
 328 -200 277 -210 240 -210 c 0
 191 -210 162 -185 162 -139 c 0
 162 -80 238 -11 273 14 c 1
 361 4 l 1
 336 -13 279 -68 279 -97 c 0
 279 -107 284 -114 297 -114 c 0
 307 -114 339 -110 339 -110 c 1
EndSplineSet
EndChar

StartChar: ring
Encoding: 730 730 14
Width: 791
Flags: MW
HStem: 535 66<384 405.5 384 407.5> 674 68<402 422.5>
VStem: 303 64
LayerCount: 2
Fore
SplineSet
307 639 m 0
 320 696 367 742 429 742 c 0
 489 742 511 700 500 644 c 0
 489 577 438 535 377 535 c 0
 314 535 292 580 307 639 c 0
367 639 m 0
 362 620 373 601 395 601 c 0
 416 601 434 617 440 638 c 0
 446 658 432 674 413 674 c 0
 391 674 373 659 367 639 c 0
EndSplineSet
EndChar

StartChar: tilde
Encoding: 732 732 15
Width: 438
Flags: MW
HStem: 600 96<430.5 444> 646 95<293 308> 659 21G<528 528>
VStem: 207 321<659 681>
LayerCount: 2
Fore
SplineSet
524 736 m 1x90
 528 659 l 1x30
 528 659 466 600 422 600 c 0x90
 378 600 323 646 293 646 c 0
 268 646 209 605 209 605 c 1
 207 681 l 1
 207 681 271 741 315 741 c 0x50
 364 741 418 696 443 696 c 0
 465 696 524 736 524 736 c 1x90
EndSplineSet
EndChar

StartChar: A
Encoding: 65 65 16
Width: 552
Flags: MW
HStem: 0 21G<18 18 18 130 423 423 423 534> 143 98<242 423 199 426> 588 97<406 406 406 431>
VStem: 428.5 108.5
LayerCount: 2
Fore
SplineSet
18 0 m 1
 341 685 l 1
 540 685 l 1
 534 0 l 1
 423 0 l 1
 423 143 l 1
 199 143 l 1
 130 0 l 1
 18 0 l 1
406 588 m 1
 242 241 l 1
 426 241 l 1
 431 588 l 1
 406 588 l 1
EndSplineSet
Position2: "'cpsp' Capital Spacing in Lateinisch lookup 0 subtable" dx=5 dy=0 dh=10 dv=0
EndChar

StartChar: Aacute
Encoding: 193 193 17
Width: 552
Flags: MW
HStem: 0 21G<18 18 18 130 423 423 423 534> 143 98<242 423 199 426> 588 97<406 406 406 431>
VStem: 428.5 108.5
LayerCount: 2
Fore
SplineSet
369 774 m 1
 360 859 l 1
 608 951 l 1
 618 854 l 1
 369 774 l 1
18 0 m 1
 341 685 l 1
 540 685 l 1
 534 0 l 1
 423 0 l 1
 423 143 l 1
 199 143 l 1
 130 0 l 1
 18 0 l 1
406 588 m 1
 242 241 l 1
 426 241 l 1
 431 588 l 1
 406 588 l 1
EndSplineSet
Position2: "'cpsp' Capital Spacing in Lateinisch lookup 0 subtable" dx=5 dy=0 dh=10 dv=0
EndChar

StartChar: Abreve
Encoding: 258 258 18
Width: 552
Flags: MW
HStem: 0 21G<18 18 18 130 423 423 423 534> 143 98<242 423 199 426> 588 97<406 406 406 431> 788 137<412.5 432 334 511.5>
VStem: 428.5 108.5
LayerCount: 2
Fore
SplineSet
334 925 m 1
 432 925 l 1
 426 887 444 874 477 874 c 0
 510 874 536 895 546 925 c 1
 644 925 l 1
 617 841 564 788 459 788 c 0
 366 788 321 836 334 925 c 1
18 0 m 1
 341 685 l 1
 540 685 l 1
 534 0 l 1
 423 0 l 1
 423 143 l 1
 199 143 l 1
 130 0 l 1
 18 0 l 1
406 588 m 1
 242 241 l 1
 426 241 l 1
 431 588 l 1
 406 588 l 1
EndSplineSet
Position2: "'cpsp' Capital Spacing in Lateinisch lookup 0 subtable" dx=5 dy=0 dh=10 dv=0
EndChar

StartChar: Acircumflex
Encoding: 194 194 19
Width: 552
Flags: MW
HStem: 0 21G<18 18 18 130 423 423 423 534> 143 98<242 423 199 426> 588 97<406 406 406 431> 785 146<287 520 517 517 517 520 457 616>
VStem: 428.5 108.5
LayerCount: 2
Fore
SplineSet
287 785 m 1
 457 931 l 1
 520 931 l 1
 616 785 l 1
 517 785 l 1
 479 851 l 1
 402 785 l 1
 287 785 l 1
18 0 m 1
 341 685 l 1
 540 685 l 1
 534 0 l 1
 423 0 l 1
 423 143 l 1
 199 143 l 1
 130 0 l 1
 18 0 l 1
406 588 m 1
 242 241 l 1
 426 241 l 1
 431 588 l 1
 406 588 l 1
EndSplineSet
Position2: "'cpsp' Capital Spacing in Lateinisch lookup 0 subtable" dx=5 dy=0 dh=10 dv=0
EndChar

StartChar: Agrave
Encoding: 192 192 20
Width: 552
Flags: MW
HStem: 0 21G<18 18 18 130 423 423 423 534> 143 98<242 423 199 426> 588 97<406 406 406 431>
VStem: 428.5 108.5
LayerCount: 2
Fore
SplineSet
374 941 m 1
 580 849 l 1
 531 765 l 1
 321 846 l 1
 374 941 l 1
18 0 m 1
 341 685 l 1
 540 685 l 1
 534 0 l 1
 423 0 l 1
 423 143 l 1
 199 143 l 1
 130 0 l 1
 18 0 l 1
406 588 m 1
 242 241 l 1
 426 241 l 1
 431 588 l 1
 406 588 l 1
EndSplineSet
Position2: "'cpsp' Capital Spacing in Lateinisch lookup 0 subtable" dx=5 dy=0 dh=10 dv=0
EndChar

StartChar: Adieresis
Encoding: 196 196 21
Width: 552
Flags: MW
HStem: 0 21G<18 18 18 130 423 423 423 534> 143 98<242 423 199 426> 588 97<406 406 406 431> 799 117<322 439 349 411 543 604 349 516>
VStem: 428.5 108.5
LayerCount: 2
Fore
SplineSet
322 799 m 1
 349 916 l 1
 439 916 l 1
 411 799 l 1
 322 799 l 1
516 799 m 1
 543 916 l 1
 633 916 l 1
 604 799 l 1
 516 799 l 1
18 0 m 1
 341 685 l 1
 540 685 l 1
 534 0 l 1
 423 0 l 1
 423 143 l 1
 199 143 l 1
 130 0 l 1
 18 0 l 1
406 588 m 1
 242 241 l 1
 426 241 l 1
 431 588 l 1
 406 588 l 1
EndSplineSet
Position2: "'cpsp' Capital Spacing in Lateinisch lookup 0 subtable" dx=5 dy=0 dh=10 dv=0
EndChar

StartChar: Amacron
Encoding: 256 256 22
Width: 552
Flags: MW
HStem: 0 21G<18 18 18 130 423 423 423 534> 143 98<242 423 199 426> 588 97<406 406 406 431> 817 87<299 632 319 611>
VStem: 428.5 108.5
LayerCount: 2
Fore
SplineSet
299 817 m 1
 319 904 l 1
 632 904 l 1
 611 817 l 1
 299 817 l 1
18 0 m 1
 341 685 l 1
 540 685 l 1
 534 0 l 1
 423 0 l 1
 423 143 l 1
 199 143 l 1
 130 0 l 1
 18 0 l 1
406 588 m 1
 242 241 l 1
 426 241 l 1
 431 588 l 1
 406 588 l 1
EndSplineSet
Position2: "'cpsp' Capital Spacing in Lateinisch lookup 0 subtable" dx=5 dy=0 dh=10 dv=0
EndChar

StartChar: Aogonek
Encoding: 260 260 23
Width: 552
Flags: MW
HStem: -210 96<388.5 475> 0 21G<18 18 18 130 423 423 423 428 528 528 528 534> 143 98<242 423 199 426> 588 97<406 406 406 431>
VStem: 335 171.5 428.5 105.5
LayerCount: 2
Fore
SplineSet
18 0 m 1x74
 341 685 l 1
 540 685 l 1x74
 534 4 l 1
 534 0 l 1
 528 0 l 1
 501 -20 452 -70 452 -97 c 0
 452 -107 457 -114 470 -114 c 0
 480 -114 512 -110 512 -110 c 1
 501 -200 l 1
 501 -200 450 -210 413 -210 c 0
 364 -210 335 -185 335 -139 c 0xf8
 335 -89 390 -31 428 0 c 1
 423 0 l 1
 423 143 l 1
 199 143 l 1
 130 0 l 1
 18 0 l 1x74
406 588 m 1
 242 241 l 1
 426 241 l 1
 431 588 l 1
 406 588 l 1
EndSplineSet
Position2: "'cpsp' Capital Spacing in Lateinisch lookup 0 subtable" dx=5 dy=0 dh=10 dv=0
EndChar

StartChar: Aring
Encoding: 197 197 24
Width: 552
Flags: MW
HStem: 0 21G<18 18 18 130 423 423 423 534> 143 98<242 423 199 426> 588 101<406 456 425.5 431> 766 71<444 470>
VStem: 326 75 428.5 108.5 499 75
LayerCount: 2
Fore
SplineSet
18 0 m 1xc4
 331 665 l 1
 325 682 324 702 331 727 c 0
 350 802 407 837 477 837 c 0
 543 837 588 805 570 727 c 0xda
 564 703 554 683 540 666 c 1
 534 0 l 1
 423 0 l 1
 423 143 l 1
 199 143 l 1
 130 0 l 1
 18 0 l 1xc4
406 588 m 1xe4
 242 241 l 1
 426 241 l 1
 431 588 l 1
 406 588 l 1xe4
401 727 m 0xfa
 397 705 410 689 441 689 c 0
 471 689 493 703 499 727 c 0
 505 755 481 766 459 766 c 0
 429 766 408 751 401 727 c 0xfa
EndSplineSet
Position2: "'cpsp' Capital Spacing in Lateinisch lookup 0 subtable" dx=5 dy=0 dh=10 dv=0
EndChar

StartChar: Atilde
Encoding: 195 195 25
Width: 552
Flags: MW
HStem: 0 21G<18 18 18 130 423 423 423 534> 143 98<242 423 199 426> 588 97<406 406 406 431> 790 96<531.5 546.5> 838 96<379 395.5>
VStem: 428.5 108.5
LayerCount: 2
Fore
SplineSet
630 927 m 1xf4
 632 851 l 1
 632 851 569 790 524 790 c 0xf4
 477 790 413 838 378 838 c 0
 355 838 293 795 293 795 c 1
 290 871 l 1
 290 871 357 934 401 934 c 0xec
 456 934 518 886 545 886 c 0
 568 886 630 927 630 927 c 1xf4
18 0 m 1
 341 685 l 1
 540 685 l 1
 534 0 l 1
 423 0 l 1
 423 143 l 1
 199 143 l 1
 130 0 l 1
 18 0 l 1
406 588 m 1
 242 241 l 1
 426 241 l 1
 431 588 l 1
 406 588 l 1
EndSplineSet
Position2: "'cpsp' Capital Spacing in Lateinisch lookup 0 subtable" dx=5 dy=0 dh=10 dv=0
EndChar

StartChar: AE
Encoding: 198 198 26
Width: 765
Flags: MW
HStem: 0 105<457 727> 144 103<241 362 194 387> 294 101<526 740 502 763> 588 105<399 399 399 467>
VStem: 19 870<0 693>
LayerCount: 2
Fore
SplineSet
328 0 m 1
 362 144 l 1
 194 144 l 1
 125 0 l 1
 19 0 l 1
 343 693 l 1
 889 693 l 1
 866 587 l 1
 572 589 l 1
 526 395 l 1
 763 395 l 1
 740 294 l 1
 502 294 l 1
 457 105 l 1
 750 105 l 1
 727 0 l 1
 328 0 l 1
399 588 m 1
 241 247 l 1
 387 247 l 1
 467 588 l 1
 399 588 l 1
EndSplineSet
Position2: "'cpsp' Capital Spacing in Lateinisch lookup 0 subtable" dx=5 dy=0 dh=10 dv=0
EndChar

StartChar: AEacute
Encoding: 508 508 27
Width: 765
Flags: MW
HStem: 0 105<457 727> 144 103<241 362 194 387> 294 101<526 740 502 763> 588 105<399 399 399 467>
VStem: 19 870<0 693>
LayerCount: 2
Fore
SplineSet
328 0 m 1
 362 144 l 1
 194 144 l 1
 125 0 l 1
 19 0 l 1
 343 693 l 1
 889 693 l 1
 866 587 l 1
 572 589 l 1
 526 395 l 1
 763 395 l 1
 740 294 l 1
 502 294 l 1
 457 105 l 1
 750 105 l 1
 727 0 l 1
 328 0 l 1
399 588 m 1
 241 247 l 1
 387 247 l 1
 467 588 l 1
 399 588 l 1
517 774 m 1
 508 859 l 1
 756 951 l 1
 766 854 l 1
 517 774 l 1
EndSplineSet
Position2: "'cpsp' Capital Spacing in Lateinisch lookup 0 subtable" dx=5 dy=0 dh=10 dv=0
EndChar

StartChar: B
Encoding: 66 66 28
Width: 575
Flags: MW
HStem: 0 96<204 319> 300 94<272 384 251 397> 589 96<318 441 318 318>
VStem: 470 115<191.5 257.5> 518 114<494.5 545.5>
LayerCount: 2
Fore
SplineSet
228 685 m 1xf0
 459 685 l 2
 568 685 632 643 632 543 c 0xe8
 632 446 582 391 512 353 c 1
 568 325 585 290 585 235 c 0
 585 103 497 0 319 0 c 2
 70 0 l 1
 228 685 l 1xf0
384 300 m 2xf0
 251 300 l 1
 204 96 l 1
 341 96 l 2
 422 96 470 151 470 232 c 0
 470 283 438 300 384 300 c 2xf0
441 589 m 2xe8
 318 589 l 1
 272 394 l 1
 397 394 l 2
 467 394 518 448 518 522 c 0
 518 569 494 589 441 589 c 2xe8
EndSplineSet
Position2: "'cpsp' Capital Spacing in Lateinisch lookup 0 subtable" dx=5 dy=0 dh=10 dv=0
EndChar

StartChar: C
Encoding: 67 67 29
Width: 498
Flags: MW
HStem: -11 97<284 343.5> 599 97<375 489> 669 21G<623 623>
VStem: 105 115<159 290 159 292>
LayerCount: 2
Fore
SplineSet
481 101 m 1xb0
 473 13 l 1
 473 13 382 -11 305 -11 c 0
 169 -11 105 59 105 186 c 0
 105 398 201 696 454 696 c 0xd0
 535 696 623 669 623 669 c 1xb0
 597 585 l 1
 597 585 529 599 449 599 c 0xd0
 301 599 220 386 220 194 c 0
 220 124 249 86 319 86 c 0
 398 86 481 101 481 101 c 1xb0
EndSplineSet
Position2: "'cpsp' Capital Spacing in Lateinisch lookup 0 subtable" dx=5 dy=0 dh=10 dv=0
EndChar

StartChar: Cacute
Encoding: 262 262 30
Width: 498
Flags: MW
HStem: -11 97<284 343.5> 599 97<375 489> 669 21G<623 623>
VStem: 105 115<159 290 159 292>
LayerCount: 2
Fore
SplineSet
481 101 m 1xb0
 473 13 l 1
 473 13 382 -11 305 -11 c 0
 169 -11 105 59 105 186 c 0
 105 398 201 696 454 696 c 0xd0
 535 696 623 669 623 669 c 1xb0
 597 585 l 1
 597 585 529 599 449 599 c 0xd0
 301 599 220 386 220 194 c 0
 220 124 249 86 319 86 c 0
 398 86 481 101 481 101 c 1xb0
395 774 m 1
 386 859 l 1
 634 951 l 1
 644 854 l 1
 395 774 l 1
EndSplineSet
Position2: "'cpsp' Capital Spacing in Lateinisch lookup 0 subtable" dx=5 dy=0 dh=10 dv=0
EndChar

StartChar: Ccaron
Encoding: 268 268 31
Width: 498
Flags: MW
HStem: -11 97<284 343.5> 599 97<375 489> 669 21G<623 623> 783 145<441 453 346 514 441 441>
VStem: 105 115<159 290 159 292>
LayerCount: 2
Fore
SplineSet
481 101 m 1xb8
 473 13 l 1
 473 13 382 -11 305 -11 c 0
 169 -11 105 59 105 186 c 0
 105 398 201 696 454 696 c 0xd8
 535 696 623 669 623 669 c 1xb8
 597 585 l 1
 597 585 529 599 449 599 c 0xd8
 301 599 220 386 220 194 c 0
 220 124 249 86 319 86 c 0
 398 86 481 101 481 101 c 1xb8
672 928 m 1
 514 783 l 1
 441 783 l 1
 346 928 l 1
 453 928 l 1
 495 860 l 1
 565 928 l 1
 672 928 l 1
EndSplineSet
Position2: "'cpsp' Capital Spacing in Lateinisch lookup 0 subtable" dx=5 dy=0 dh=10 dv=0
EndChar

StartChar: Ccedilla
Encoding: 199 199 32
Width: 498
Flags: MW
HStem: -221 75<240 262.5 239 293> -91 53<233 295> -11 97<296 305 296 296> -7 21G<252 252> 599 97<375 489> 669 21G<623 623>
VStem: 105 115<159 290 159 292> 294 90
LayerCount: 2
Fore
SplineSet
481 101 m 1xa6
 473 13 l 1
 473 13 382 -11 305 -11 c 2
 296 -11 l 1xa7
 289 -38 l 1
 295 -38 l 2
 353 -38 397 -56 381 -124 c 0
 366 -188 325 -221 261 -221 c 0
 219 -221 179 -212 179 -212 c 1
 196 -144 l 1
 196 -144 229 -146 249 -146 c 0
 276 -146 289 -137 294 -117 c 0
 300 -94 284 -91 262 -91 c 2
 233 -91 l 1
 252 -7 l 1
 152 9 105 77 105 186 c 0
 105 398 201 696 454 696 c 0xdb
 535 696 623 669 623 669 c 1xa6
 597 585 l 1
 597 585 529 599 449 599 c 0xaa
 301 599 220 386 220 194 c 0
 220 124 249 86 319 86 c 0
 398 86 481 101 481 101 c 1xa6
EndSplineSet
Position2: "'cpsp' Capital Spacing in Lateinisch lookup 0 subtable" dx=5 dy=0 dh=10 dv=0
EndChar

StartChar: Ccircumflex
Encoding: 264 264 33
Width: 498
Flags: MW
HStem: -11 97<284 343.5> 599 97<375 489> 669 21G<623 623> 785 146<311 544 541 541 541 544 481 640>
VStem: 105 115<159 290 159 292>
LayerCount: 2
Fore
SplineSet
481 101 m 1xb8
 473 13 l 1
 473 13 382 -11 305 -11 c 0
 169 -11 105 59 105 186 c 0
 105 398 201 696 454 696 c 0xd8
 535 696 623 669 623 669 c 1xb8
 597 585 l 1
 597 585 529 599 449 599 c 0xd8
 301 599 220 386 220 194 c 0
 220 124 249 86 319 86 c 0
 398 86 481 101 481 101 c 1xb8
311 785 m 1
 481 931 l 1
 544 931 l 1
 640 785 l 1
 541 785 l 1
 503 851 l 1
 426 785 l 1
 311 785 l 1
EndSplineSet
Position2: "'cpsp' Capital Spacing in Lateinisch lookup 0 subtable" dx=5 dy=0 dh=10 dv=0
EndChar

StartChar: Cdotaccent
Encoding: 266 266 34
Width: 498
Flags: MW
HStem: -11 97<284 343.5> 599 97<375 489> 669 21G<623 623> 780 118<424 546 451 518>
VStem: 105 115<159 290 159 292>
LayerCount: 2
Fore
SplineSet
481 101 m 1xb8
 473 13 l 1
 473 13 382 -11 305 -11 c 0
 169 -11 105 59 105 186 c 0
 105 398 201 696 454 696 c 0xd8
 535 696 623 669 623 669 c 1xb8
 597 585 l 1
 597 585 529 599 449 599 c 0xd8
 301 599 220 386 220 194 c 0
 220 124 249 86 319 86 c 0
 398 86 481 101 481 101 c 1xb8
424 780 m 1
 451 898 l 1
 546 898 l 1
 518 780 l 1
 424 780 l 1
EndSplineSet
Position2: "'cpsp' Capital Spacing in Lateinisch lookup 0 subtable" dx=5 dy=0 dh=10 dv=0
EndChar

StartChar: D
Encoding: 68 68 35
Width: 606
Flags: MW
HStem: 0 97<205 313> 588 97<317 424 317 317>
VStem: 541 115<408.5 519>
LayerCount: 2
Fore
SplineSet
313 0 m 2
 70 0 l 1
 229 685 l 1
 446 685 l 2
 566 685 656 635 656 479 c 0
 656 259 551 0 313 0 c 2
541 479 m 0
 541 559 501 588 424 588 c 2
 317 588 l 1
 205 97 l 1
 324 97 l 2
 477 97 541 338 541 479 c 0
EndSplineSet
Position2: "'cpsp' Capital Spacing in Lateinisch lookup 0 subtable" dx=5 dy=0 dh=10 dv=0
EndChar

StartChar: Dcaron
Encoding: 270 270 36
Width: 606
Flags: MW
HStem: 685 243<312 419 312 446 229 419> 783 145<407 419 312 480 407 407>
VStem: 70 586<0 557>
LayerCount: 2
Fore
SplineSet
70 0 m 1xa0
 313 0 l 2
 551 0 656 259 656 479 c 0
 656 635 566 685 446 685 c 2
 229 685 l 1
 70 0 l 1xa0
541 479 m 0
 541 338 477 97 324 97 c 2
 205 97 l 1
 317 588 l 1
 424 588 l 2
 501 588 541 559 541 479 c 0
638 928 m 1
 480 783 l 1
 407 783 l 1x60
 312 928 l 1
 419 928 l 1
 461 860 l 1
 531 928 l 1
 638 928 l 1
EndSplineSet
Position2: "'cpsp' Capital Spacing in Lateinisch lookup 0 subtable" dx=5 dy=0 dh=10 dv=0
EndChar

StartChar: Dcroat
Encoding: 272 272 37
Width: 612
Flags: MW
HStem: 0 97<211 319> 290 110<107 143 84 169 107 255 280 379> 588 97<323 430 323 323>
VStem: 547 115<408.5 519>
LayerCount: 2
Fore
SplineSet
319 0 m 2
 76 0 l 1
 143 290 l 1
 84 290 l 1
 107 400 l 1
 169 400 l 1
 235 685 l 1
 452 685 l 2
 572 685 662 635 662 479 c 0
 662 259 557 0 319 0 c 2
547 479 m 0
 547 559 507 588 430 588 c 2
 323 588 l 1
 280 400 l 1
 403 400 l 1
 379 290 l 1
 255 290 l 1
 211 97 l 1
 330 97 l 2
 483 97 547 338 547 479 c 0
EndSplineSet
Position2: "'cpsp' Capital Spacing in Lateinisch lookup 0 subtable" dx=5 dy=0 dh=10 dv=0
EndChar

StartChar: E
Encoding: 69 69 38
Width: 500
Flags: MW
HStem: 0 97<205 464> 296 98<273 476 251 499> 588 97<317 598 317 317>
VStem: 70 551
LayerCount: 2
Fore
SplineSet
70 0 m 1
 228 685 l 1
 621 685 l 1
 598 588 l 1
 317 588 l 1
 273 394 l 1
 499 394 l 1
 476 296 l 1
 251 296 l 1
 205 97 l 1
 487 97 l 1
 464 0 l 1
 70 0 l 1
EndSplineSet
Position2: "'cpsp' Capital Spacing in Lateinisch lookup 0 subtable" dx=5 dy=0 dh=10 dv=0
EndChar

StartChar: Eacute
Encoding: 201 201 39
Width: 500
Flags: MW
HStem: 0 97<205 464> 296 98<273 476 251 499> 588 97<317 598 317 317>
VStem: 70 551
LayerCount: 2
Fore
SplineSet
361 774 m 1
 352 859 l 1
 600 951 l 1
 610 854 l 1
 361 774 l 1
70 0 m 1
 228 685 l 1
 621 685 l 1
 598 588 l 1
 317 588 l 1
 273 394 l 1
 499 394 l 1
 476 296 l 1
 251 296 l 1
 205 97 l 1
 487 97 l 1
 464 0 l 1
 70 0 l 1
EndSplineSet
Position2: "'cpsp' Capital Spacing in Lateinisch lookup 0 subtable" dx=5 dy=0 dh=10 dv=0
EndChar

StartChar: Ebreve
Encoding: 276 276 40
Width: 500
Flags: MW
HStem: 0 97<205 464> 296 98<273 476 251 499> 588 97<317 598 317 317> 788 137<390.5 410 312 489.5>
VStem: 70 552
LayerCount: 2
Fore
SplineSet
312 925 m 1
 410 925 l 1
 404 887 422 874 455 874 c 0
 488 874 514 895 524 925 c 1
 622 925 l 1
 595 841 542 788 437 788 c 0
 344 788 299 836 312 925 c 1
70 0 m 1
 228 685 l 1
 621 685 l 1
 598 588 l 1
 317 588 l 1
 273 394 l 1
 499 394 l 1
 476 296 l 1
 251 296 l 1
 205 97 l 1
 487 97 l 1
 464 0 l 1
 70 0 l 1
EndSplineSet
Position2: "'cpsp' Capital Spacing in Lateinisch lookup 0 subtable" dx=5 dy=0 dh=10 dv=0
EndChar

StartChar: Ecaron
Encoding: 282 282 41
Width: 500
Flags: MW
HStem: 0 97<205 464> 296 98<273 476 251 499> 588 97<317 598 317 317> 796 145<400 412 305 473 400 400>
VStem: 70 561
LayerCount: 2
Fore
SplineSet
631 941 m 1
 473 796 l 1
 400 796 l 1
 305 941 l 1
 412 941 l 1
 454 873 l 1
 524 941 l 1
 631 941 l 1
70 0 m 1
 228 685 l 1
 621 685 l 1
 598 588 l 1
 317 588 l 1
 273 394 l 1
 499 394 l 1
 476 296 l 1
 251 296 l 1
 205 97 l 1
 487 97 l 1
 464 0 l 1
 70 0 l 1
EndSplineSet
Position2: "'cpsp' Capital Spacing in Lateinisch lookup 0 subtable" dx=5 dy=0 dh=10 dv=0
EndChar

StartChar: Ecircumflex
Encoding: 202 202 42
Width: 500
Flags: MW
HStem: 0 97<205 464> 296 98<273 476 251 499> 588 97<317 598 317 317> 786 146<296 529 526 526 526 529 466 625>
VStem: 70 555
LayerCount: 2
Fore
SplineSet
296 786 m 1
 466 932 l 1
 529 932 l 1
 625 786 l 1
 526 786 l 1
 488 852 l 1
 411 786 l 1
 296 786 l 1
70 0 m 1
 228 685 l 1
 621 685 l 1
 598 588 l 1
 317 588 l 1
 273 394 l 1
 499 394 l 1
 476 296 l 1
 251 296 l 1
 205 97 l 1
 487 97 l 1
 464 0 l 1
 70 0 l 1
EndSplineSet
Position2: "'cpsp' Capital Spacing in Lateinisch lookup 0 subtable" dx=5 dy=0 dh=10 dv=0
EndChar

StartChar: Edieresis
Encoding: 203 203 43
Width: 500
Flags: MW
HStem: 0 97<205 464> 296 98<273 476 251 499> 588 97<317 598 317 317> 799 117<306 423 333 395 527 588 333 500>
VStem: 70 551
LayerCount: 2
Fore
SplineSet
306 799 m 1
 333 916 l 1
 423 916 l 1
 395 799 l 1
 306 799 l 1
500 799 m 1
 527 916 l 1
 617 916 l 1
 588 799 l 1
 500 799 l 1
70 0 m 1
 228 685 l 1
 621 685 l 1
 598 588 l 1
 317 588 l 1
 273 394 l 1
 499 394 l 1
 476 296 l 1
 251 296 l 1
 205 97 l 1
 487 97 l 1
 464 0 l 1
 70 0 l 1
EndSplineSet
Position2: "'cpsp' Capital Spacing in Lateinisch lookup 0 subtable" dx=5 dy=0 dh=10 dv=0
EndChar

StartChar: Edotaccent
Encoding: 278 278 44
Width: 500
Flags: MW
HStem: 0 97<205 464> 296 98<273 476 251 499> 588 97<317 598 317 317> 796 118<389 511 416 483>
VStem: 70 551
LayerCount: 2
Fore
SplineSet
389 796 m 1
 416 914 l 1
 511 914 l 1
 483 796 l 1
 389 796 l 1
70 0 m 1
 228 685 l 1
 621 685 l 1
 598 588 l 1
 317 588 l 1
 273 394 l 1
 499 394 l 1
 476 296 l 1
 251 296 l 1
 205 97 l 1
 487 97 l 1
 464 0 l 1
 70 0 l 1
EndSplineSet
Position2: "'cpsp' Capital Spacing in Lateinisch lookup 0 subtable" dx=5 dy=0 dh=10 dv=0
EndChar

StartChar: Egrave
Encoding: 200 200 45
Width: 500
Flags: MW
HStem: 0 97<205 464> 296 98<273 476 251 499> 588 97<317 598 317 317>
VStem: 70 551
LayerCount: 2
Fore
SplineSet
350 941 m 1
 556 849 l 1
 507 765 l 1
 297 846 l 1
 350 941 l 1
70 0 m 1
 228 685 l 1
 621 685 l 1
 598 588 l 1
 317 588 l 1
 273 394 l 1
 499 394 l 1
 476 296 l 1
 251 296 l 1
 205 97 l 1
 487 97 l 1
 464 0 l 1
 70 0 l 1
EndSplineSet
Position2: "'cpsp' Capital Spacing in Lateinisch lookup 0 subtable" dx=5 dy=0 dh=10 dv=0
EndChar

StartChar: Emacron
Encoding: 274 274 46
Width: 500
Flags: MW
HStem: 0 97<205 464> 296 98<273 476 251 499> 588 97<317 598 317 317> 814 87<289 622 309 601>
VStem: 70 552
LayerCount: 2
Fore
SplineSet
289 814 m 1
 309 901 l 1
 622 901 l 1
 601 814 l 1
 289 814 l 1
70 0 m 1
 228 685 l 1
 621 685 l 1
 598 588 l 1
 317 588 l 1
 273 394 l 1
 499 394 l 1
 476 296 l 1
 251 296 l 1
 205 97 l 1
 487 97 l 1
 464 0 l 1
 70 0 l 1
EndSplineSet
Position2: "'cpsp' Capital Spacing in Lateinisch lookup 0 subtable" dx=5 dy=0 dh=10 dv=0
EndChar

StartChar: Eogonek
Encoding: 280 280 47
Width: 500
Flags: MW
HStem: -210 96<309.5 396> 0 97<205 349 449 449 449 464> 296 98<273 476 251 499> 588 97<317 598 317 317>
VStem: 70 551 256 171.5
LayerCount: 2
Fore
SplineSet
70 0 m 1x78
 228 685 l 1
 621 685 l 1
 598 588 l 1
 317 588 l 1
 273 394 l 1
 499 394 l 1
 476 296 l 1
 251 296 l 1
 205 97 l 1
 487 97 l 1
 464 0 l 1
 449 0 l 1
 422 -20 373 -70 373 -97 c 0
 373 -107 378 -114 391 -114 c 0
 401 -114 433 -110 433 -110 c 1
 422 -200 l 1
 422 -200 371 -210 334 -210 c 0
 285 -210 256 -185 256 -139 c 0
 256 -89 311 -31 349 0 c 1xf4
 70 0 l 1x78
EndSplineSet
Position2: "'cpsp' Capital Spacing in Lateinisch lookup 0 subtable" dx=5 dy=0 dh=10 dv=0
EndChar

StartChar: F
Encoding: 70 70 48
Width: 479
Flags: MW
HStem: 0 21G<70 70 70 182> 256 97<264 470 241 494> 588 97<317 591 317 317>
VStem: 70 544
LayerCount: 2
Fore
SplineSet
70 0 m 1
 229 685 l 1
 614 685 l 1
 591 588 l 1
 317 588 l 1
 264 353 l 1
 494 353 l 1
 470 256 l 1
 241 256 l 1
 182 0 l 1
 70 0 l 1
EndSplineSet
Position2: "'cpsp' Capital Spacing in Lateinisch lookup 0 subtable" dx=5 dy=0 dh=10 dv=0
EndChar

StartChar: G
Encoding: 71 71 49
Width: 570
Flags: MW
HStem: -11 97<302 360 302 383.5> 277 93<387 601 409 468> 599 97<372.5 500.5> 660 21G<671 671>
VStem: 107 115<155.5 278.5 155.5 320>
LayerCount: 2
Fore
SplineSet
387 277 m 1xd8
 409 370 l 1
 601 370 l 1
 518 15 l 1
 518 15 442 -11 325 -11 c 0
 183 -11 107 56 107 195 c 0
 107 445 218 696 467 696 c 0xe8
 573 696 671 660 671 660 c 1xd8
 645 579 l 1
 645 579 545 599 456 599 c 0xe8
 289 599 222 363 222 194 c 0
 222 117 266 86 338 86 c 0
 382 86 426 96 426 96 c 1
 468 277 l 1
 387 277 l 1xd8
EndSplineSet
Position2: "'cpsp' Capital Spacing in Lateinisch lookup 0 subtable" dx=5 dy=0 dh=10 dv=0
EndChar

StartChar: Gbreve
Encoding: 286 286 50
Width: 570
Flags: MW
HStem: -11 97<302 360 302 383.5> 277 93<387 601 409 468> 599 97<372.5 500.5> 660 21G<671 671> 768 157<438.5 460 354 538>
VStem: 107 115<155.5 278.5 155.5 320> 354 105<909 925>
LayerCount: 2
Fore
SplineSet
354 925 m 1xde
 460 925 l 1
 458 919 459 914 459 909 c 0
 460 884 477 867 510 867 c 0
 550 867 576 888 588 925 c 1
 693 925 l 1
 665 834 594 768 482 768 c 0
 395 768 355 819 352 884 c 0
 351 897 352 911 354 925 c 1xde
387 277 m 1
 409 370 l 1
 601 370 l 1
 518 15 l 1
 518 15 442 -11 325 -11 c 0
 183 -11 107 56 107 195 c 0
 107 445 218 696 467 696 c 0xee
 573 696 671 660 671 660 c 1xde
 645 579 l 1
 645 579 545 599 456 599 c 0xee
 289 599 222 363 222 194 c 0
 222 117 266 86 338 86 c 0
 382 86 426 96 426 96 c 1
 468 277 l 1
 387 277 l 1
EndSplineSet
Position2: "'cpsp' Capital Spacing in Lateinisch lookup 0 subtable" dx=5 dy=0 dh=10 dv=0
EndChar

StartChar: Gcircumflex
Encoding: 284 284 51
Width: 570
Flags: MW
HStem: -11 97<302 360 302 383.5> 277 93<387 601 409 468> 599 97<372.5 500.5> 660 21G<671 671> 765 165<317 559 317 559 538 538 538 559 479 645>
VStem: 107 115<155.5 278.5 155.5 320>
LayerCount: 2
Fore
SplineSet
317 765 m 1xdc
 479 930 l 1
 559 930 l 1
 645 765 l 1
 538 765 l 1
 503 839 l 1
 432 765 l 1
 317 765 l 1xdc
387 277 m 1
 409 370 l 1
 601 370 l 1
 518 15 l 1
 518 15 442 -11 325 -11 c 0
 183 -11 107 56 107 195 c 0
 107 445 218 696 467 696 c 0xec
 573 696 671 660 671 660 c 1xdc
 645 579 l 1
 645 579 545 599 456 599 c 0xec
 289 599 222 363 222 194 c 0
 222 117 266 86 338 86 c 0
 382 86 426 96 426 96 c 1
 468 277 l 1
 387 277 l 1
EndSplineSet
Position2: "'cpsp' Capital Spacing in Lateinisch lookup 0 subtable" dx=5 dy=0 dh=10 dv=0
EndChar

StartChar: Gcommaaccent
Encoding: 290 290 52
Width: 570
Flags: MW
HStem: -72 158<244 360 302 343> -11 97<302 360 302 383.5> 277 93<387 601 409 468> 599 97<372.5 500.5> 660 21G<671 671>
VStem: 107 115<155.5 278.5 155.5 320>
LayerCount: 2
Fore
SplineSet
387 277 m 1x6c
 409 370 l 1
 601 370 l 1
 518 15 l 1
 518 15 442 -11 325 -11 c 0
 183 -11 107 56 107 195 c 0
 107 445 218 696 467 696 c 0x74
 573 696 671 660 671 660 c 1x6c
 645 579 l 1
 645 579 545 599 456 599 c 0x74
 289 599 222 363 222 194 c 0
 222 117 266 86 338 86 c 0
 382 86 426 96 426 96 c 1
 468 277 l 1
 387 277 l 1x6c
244 -72 m 1xac
 151 -298 l 1
 241 -298 l 1
 343 -72 l 1
 244 -72 l 1xac
EndSplineSet
Position2: "'cpsp' Capital Spacing in Lateinisch lookup 0 subtable" dx=5 dy=0 dh=10 dv=0
EndChar

StartChar: Gdotaccent
Encoding: 288 288 53
Width: 570
Flags: MW
HStem: -11 97<302 360 302 383.5> 277 93<387 601 409 468> 599 97<372.5 500.5> 660 21G<671 671> 760 117<439 568 466 541>
VStem: 107 115<155.5 278.5 155.5 320>
LayerCount: 2
Fore
SplineSet
439 760 m 1xdc
 466 877 l 1
 568 877 l 1
 541 760 l 1
 439 760 l 1xdc
387 277 m 1
 409 370 l 1
 601 370 l 1
 518 15 l 1
 518 15 442 -11 325 -11 c 0
 183 -11 107 56 107 195 c 0
 107 445 218 696 467 696 c 0xec
 573 696 671 660 671 660 c 1xdc
 645 579 l 1
 645 579 545 599 456 599 c 0xec
 289 599 222 363 222 194 c 0
 222 117 266 86 338 86 c 0
 382 86 426 96 426 96 c 1
 468 277 l 1
 387 277 l 1
EndSplineSet
Position2: "'cpsp' Capital Spacing in Lateinisch lookup 0 subtable" dx=5 dy=0 dh=10 dv=0
EndChar

StartChar: H
Encoding: 72 72 54
Width: 622
Flags: MW
HStem: 0 21G<70 182 70 70 440 551 440 440> 300 97<274 508 251 531>
VStem: 70 639
LayerCount: 2
Fore
SplineSet
440 0 m 1
 508 300 l 1
 251 300 l 1
 182 0 l 1
 70 0 l 1
 229 685 l 1
 340 685 l 1
 274 397 l 1
 531 397 l 1
 598 685 l 1
 709 685 l 1
 551 0 l 1
 440 0 l 1
EndSplineSet
Position2: "'cpsp' Capital Spacing in Lateinisch lookup 0 subtable" dx=5 dy=0 dh=10 dv=0
EndChar

StartChar: Hbar
Encoding: 294 294 55
Width: 632
Flags: MW
HStem: 0 21G<76 183 76 76 450 557 450 450> 293 104<274 518 250 542> 490 98<118 211 140 189 140 295 318 563 692 737>
VStem: 76 686<0 588>
LayerCount: 2
Fore
SplineSet
118 490 m 1
 118 493 l 1
 140 588 l 1
 211 588 l 1
 234 685 l 1
 341 685 l 1
 318 588 l 1
 586 588 l 1
 608 685 l 1
 715 685 l 1
 692 588 l 1
 762 588 l 1
 737 490 l 1
 670 490 l 1
 557 0 l 1
 450 0 l 1
 518 293 l 1
 250 293 l 1
 183 0 l 1
 76 0 l 1
 189 490 l 1
 118 490 l 1
274 397 m 1
 542 397 l 1
 563 490 l 1
 295 490 l 1
 274 397 l 1
EndSplineSet
Position2: "'cpsp' Capital Spacing in Lateinisch lookup 0 subtable" dx=5 dy=0 dh=10 dv=0
EndChar

StartChar: Hcircumflex
Encoding: 292 292 56
Width: 622
Flags: MW
HStem: 0 21G<70 182 70 70 440 551 440 440> 300 97<274 508 251 531> 785 146<320 553 550 550 550 553 490 649>
VStem: 70 639
LayerCount: 2
Fore
SplineSet
440 0 m 1
 508 300 l 1
 251 300 l 1
 182 0 l 1
 70 0 l 1
 229 685 l 1
 340 685 l 1
 274 397 l 1
 531 397 l 1
 598 685 l 1
 709 685 l 1
 551 0 l 1
 440 0 l 1
320 785 m 1
 490 931 l 1
 553 931 l 1
 649 785 l 1
 550 785 l 1
 512 851 l 1
 435 785 l 1
 320 785 l 1
EndSplineSet
Position2: "'cpsp' Capital Spacing in Lateinisch lookup 0 subtable" dx=5 dy=0 dh=10 dv=0
EndChar

StartChar: I
Encoding: 73 73 57
Width: 252
Flags: MW
HStem: 0 21G<70 70 70 182>
VStem: 70 270
LayerCount: 2
Fore
SplineSet
70 0 m 1
 229 685 l 1
 340 685 l 1
 182 0 l 1
 70 0 l 1
EndSplineSet
Position2: "'cpsp' Capital Spacing in Lateinisch lookup 0 subtable" dx=5 dy=0 dh=10 dv=0
EndChar

StartChar: Iacute
Encoding: 205 205 58
Width: 252
Flags: MW
HStem: 0 21G<70 70 70 182>
VStem: 70 412
LayerCount: 2
Fore
SplineSet
233 774 m 1
 224 859 l 1
 472 951 l 1
 482 854 l 1
 233 774 l 1
70 0 m 1
 229 685 l 1
 340 685 l 1
 182 0 l 1
 70 0 l 1
EndSplineSet
Position2: "'cpsp' Capital Spacing in Lateinisch lookup 0 subtable" dx=5 dy=0 dh=10 dv=0
EndChar

StartChar: Ibreve
Encoding: 300 300 59
Width: 252
Flags: MW
HStem: 0 21G<70 70 70 182> 788 137<262.5 282 184 361.5>
VStem: 70 424
LayerCount: 2
Fore
SplineSet
184 925 m 1
 282 925 l 1
 276 887 294 874 327 874 c 0
 360 874 386 895 396 925 c 1
 494 925 l 1
 467 841 414 788 309 788 c 0
 216 788 171 836 184 925 c 1
70 0 m 1
 229 685 l 1
 340 685 l 1
 182 0 l 1
 70 0 l 1
EndSplineSet
Position2: "'cpsp' Capital Spacing in Lateinisch lookup 0 subtable" dx=5 dy=0 dh=10 dv=0
EndChar

StartChar: Icircumflex
Encoding: 206 206 60
Width: 252
Flags: MW
HStem: 0 21G<70 70 70 182> 786 146<137 370 367 367 367 370 307 466>
VStem: 70 396
LayerCount: 2
Fore
SplineSet
137 786 m 1
 307 932 l 1
 370 932 l 1
 466 786 l 1
 367 786 l 1
 329 852 l 1
 252 786 l 1
 137 786 l 1
70 0 m 1
 229 685 l 1
 340 685 l 1
 182 0 l 1
 70 0 l 1
EndSplineSet
Position2: "'cpsp' Capital Spacing in Lateinisch lookup 0 subtable" dx=5 dy=0 dh=10 dv=0
EndChar

StartChar: Idieresis
Encoding: 207 207 61
Width: 252
Flags: MW
HStem: 0 21G<70 70 70 182> 808 117<164 281 191 253 385 446 191 358>
VStem: 70 405
LayerCount: 2
Fore
SplineSet
164 808 m 1
 191 925 l 1
 281 925 l 1
 253 808 l 1
 164 808 l 1
358 808 m 1
 385 925 l 1
 475 925 l 1
 446 808 l 1
 358 808 l 1
70 0 m 1
 229 685 l 1
 340 685 l 1
 182 0 l 1
 70 0 l 1
EndSplineSet
Position2: "'cpsp' Capital Spacing in Lateinisch lookup 0 subtable" dx=5 dy=0 dh=10 dv=0
EndChar

StartChar: Idotaccent
Encoding: 304 304 62
Width: 252
Flags: MW
HStem: 0 21G<70 70 70 182> 796 118<259 381 286 353>
VStem: 70 311
LayerCount: 2
Fore
SplineSet
259 796 m 1
 286 914 l 1
 381 914 l 1
 353 796 l 1
 259 796 l 1
70 0 m 1
 229 685 l 1
 340 685 l 1
 182 0 l 1
 70 0 l 1
EndSplineSet
Position2: "'cpsp' Capital Spacing in Lateinisch lookup 0 subtable" dx=5 dy=0 dh=10 dv=0
EndChar

StartChar: Igrave
Encoding: 204 204 63
Width: 252
Flags: MW
HStem: 0 21G<70 70 70 182>
VStem: 70 335
LayerCount: 2
Fore
SplineSet
199 941 m 1
 405 849 l 1
 356 765 l 1
 146 846 l 1
 199 941 l 1
70 0 m 1
 229 685 l 1
 340 685 l 1
 182 0 l 1
 70 0 l 1
EndSplineSet
Position2: "'cpsp' Capital Spacing in Lateinisch lookup 0 subtable" dx=5 dy=0 dh=10 dv=0
EndChar

StartChar: Imacron
Encoding: 298 298 64
Width: 252
Flags: MW
HStem: 0 21G<70 70 70 182> 825 87<151 484 171 463>
VStem: 70 414
LayerCount: 2
Fore
SplineSet
151 825 m 1
 171 912 l 1
 484 912 l 1
 463 825 l 1
 151 825 l 1
70 0 m 1
 229 685 l 1
 340 685 l 1
 182 0 l 1
 70 0 l 1
EndSplineSet
Position2: "'cpsp' Capital Spacing in Lateinisch lookup 0 subtable" dx=5 dy=0 dh=10 dv=0
EndChar

StartChar: Iogonek
Encoding: 302 302 65
Width: 252
Flags: MW
HStem: -210 96<32.5 119> 0 21G<70 70 70 72 182 182>
VStem: -21 172
LayerCount: 2
Fore
SplineSet
70 0 m 1
 229 685 l 1
 340 685 l 1
 182 0 l 1
 149 -17 96 -68 96 -97 c 0
 96 -107 102 -114 114 -114 c 0
 124 -114 156 -110 156 -110 c 1
 146 -200 l 1
 146 -200 94 -210 57 -210 c 0
 8 -210 -21 -185 -21 -139 c 0
 -21 -89 34 -31 72 0 c 1
 70 0 l 1
EndSplineSet
Position2: "'cpsp' Capital Spacing in Lateinisch lookup 0 subtable" dx=5 dy=0 dh=10 dv=0
EndChar

StartChar: Itilde
Encoding: 296 296 66
Width: 252
Flags: MW
HStem: 0 21G<70 70 70 182> 782 96<390.5 405.5> 830 96<238 254.5>
VStem: 70 421
LayerCount: 2
Fore
SplineSet
489 919 m 1xd0
 491 843 l 1
 491 843 428 782 383 782 c 0xd0
 336 782 272 830 237 830 c 0
 214 830 152 787 152 787 c 1
 149 863 l 1
 149 863 216 926 260 926 c 0xb0
 315 926 377 878 404 878 c 0
 427 878 489 919 489 919 c 1xd0
70 0 m 1
 229 685 l 1
 340 685 l 1
 182 0 l 1
 70 0 l 1
EndSplineSet
Position2: "'cpsp' Capital Spacing in Lateinisch lookup 0 subtable" dx=5 dy=0 dh=10 dv=0
EndChar

StartChar: J
Encoding: 74 74 67
Width: 275
Flags: MW
HStem: -70 755<6 366>
VStem: 6 360
LayerCount: 2
Fore
SplineSet
366 685 m 1
 237 128 l 2
 198 -45 172 -70 6 -70 c 1
 25 28 l 1
 91 29 105 38 126 130 c 2
 255 685 l 1
 366 685 l 1
EndSplineSet
Position2: "'cpsp' Capital Spacing in Lateinisch lookup 0 subtable" dx=5 dy=0 dh=10 dv=0
EndChar

StartChar: Jcircumflex
Encoding: 308 308 68
Width: 275
Flags: MW
HStem: 785 146<157 390 387 387 387 390 327 486>
VStem: 6 480
LayerCount: 2
Fore
SplineSet
366 685 m 1
 237 128 l 2
 198 -45 172 -70 6 -70 c 1
 25 28 l 1
 91 29 105 38 126 130 c 2
 255 685 l 1
 366 685 l 1
157 785 m 1
 327 931 l 1
 390 931 l 1
 486 785 l 1
 387 785 l 1
 349 851 l 1
 272 785 l 1
 157 785 l 1
EndSplineSet
Position2: "'cpsp' Capital Spacing in Lateinisch lookup 0 subtable" dx=5 dy=0 dh=10 dv=0
EndChar

StartChar: K
Encoding: 75 75 69
Width: 532
Flags: MW
HStem: 0 21G<70 182 70 70 401 518 401 401> 285 98
VStem: 70 604
LayerCount: 2
Fore
SplineSet
401 0 m 1
 333 288 l 1
 247 282 l 1
 182 0 l 1
 70 0 l 1
 229 685 l 1
 340 685 l 1
 269 380 l 1
 345 386 l 1
 551 685 l 1
 674 685 l 1
 434 341 l 1
 518 0 l 1
 401 0 l 1
EndSplineSet
Position2: "'cpsp' Capital Spacing in Lateinisch lookup 0 subtable" dx=5 dy=0 dh=10 dv=0
EndChar

StartChar: Kcommaaccent
Encoding: 310 310 70
Width: 532
Flags: MW
HStem: 0 21G<70 182 70 70 401 518 401 401> 285 98
VStem: 70 604
LayerCount: 2
Fore
SplineSet
222 -72 m 1
 129 -298 l 1
 219 -298 l 1
 321 -72 l 1
 222 -72 l 1
401 0 m 1
 333 288 l 1
 247 282 l 1
 182 0 l 1
 70 0 l 1
 229 685 l 1
 340 685 l 1
 269 380 l 1
 345 386 l 1
 551 685 l 1
 674 685 l 1
 434 341 l 1
 518 0 l 1
 401 0 l 1
EndSplineSet
Position2: "'cpsp' Capital Spacing in Lateinisch lookup 0 subtable" dx=5 dy=0 dh=10 dv=0
EndChar

StartChar: L
Encoding: 76 76 71
Width: 427
Flags: MW
HStem: 0 97<205 422>
VStem: 70 374<0 97>
LayerCount: 2
Fore
SplineSet
422 0 m 1
 70 0 l 1
 229 685 l 1
 340 685 l 1
 205 97 l 1
 444 97 l 1
 422 0 l 1
EndSplineSet
Position2: "'cpsp' Capital Spacing in Lateinisch lookup 0 subtable" dx=5 dy=0 dh=10 dv=0
EndChar

StartChar: Lacute
Encoding: 313 313 72
Width: 427
Flags: MW
HStem: 0 97<205 422>
VStem: 70 486
LayerCount: 2
Fore
SplineSet
307 774 m 1
 298 859 l 1
 546 951 l 1
 556 854 l 1
 307 774 l 1
422 0 m 1
 70 0 l 1
 229 685 l 1
 340 685 l 1
 205 97 l 1
 444 97 l 1
 422 0 l 1
EndSplineSet
Position2: "'cpsp' Capital Spacing in Lateinisch lookup 0 subtable" dx=5 dy=0 dh=10 dv=0
EndChar

StartChar: Lcaron
Encoding: 317 317 73
Width: 459
Flags: MW
HStem: 0 97<205 422> 442 243<476 517 229 417>
VStem: 70 504
LayerCount: 2
Fore
SplineSet
574 685 m 1
 517 442 l 1
 417 442 l 1
 476 685 l 1
 574 685 l 1
422 0 m 1
 70 0 l 1
 229 685 l 1
 340 685 l 1
 205 97 l 1
 444 97 l 1
 422 0 l 1
EndSplineSet
Position2: "'cpsp' Capital Spacing in Lateinisch lookup 0 subtable" dx=5 dy=0 dh=10 dv=0
EndChar

StartChar: Lcommaaccent
Encoding: 315 315 74
Width: 427
Flags: MW
HStem: -72 169<184 444 205 283> 0 97<205 422>
VStem: 70 374<0 97>
LayerCount: 2
Fore
SplineSet
184 -72 m 1xa0
 91 -298 l 1
 181 -298 l 1
 283 -72 l 1
 184 -72 l 1xa0
422 0 m 1x60
 70 0 l 1
 229 685 l 1
 340 685 l 1
 205 97 l 1
 444 97 l 1
 422 0 l 1x60
EndSplineSet
Position2: "'cpsp' Capital Spacing in Lateinisch lookup 0 subtable" dx=5 dy=0 dh=10 dv=0
EndChar

StartChar: Lslash
Encoding: 321 321 75
Width: 428
Flags: MW
HStem: 0 97<207 424> 483 20G<401 401>
VStem: 54 392<97 286>
LayerCount: 2
Fore
SplineSet
424 0 m 1
 72 0 l 1
 126 234 l 1
 88 210 l 1
 87 210 l 1
 54 286 l 1
 152 347 l 1
 231 685 l 1
 342 685 l 1
 283 429 l 1
 401 503 l 1
 435 427 l 1
 257 316 l 1
 207 97 l 1
 446 97 l 1
 424 0 l 1
EndSplineSet
Position2: "'cpsp' Capital Spacing in Lateinisch lookup 0 subtable" dx=5 dy=0 dh=10 dv=0
EndChar

StartChar: M
Encoding: 77 77 76
Width: 785
Flags: MW
HStem: 0 21G<70 70 70 182 603 603 603 715> 588 97<317 324 317 317 732 740 732 732>
VStem: 334.5 81.5
LayerCount: 2
Fore
SplineSet
70 0 m 1
 229 685 l 1
 406 685 l 1
 426 151 l 1
 693 685 l 1
 873 685 l 1
 715 0 l 1
 603 0 l 1
 740 588 l 1
 732 588 l 1
 453 28 l 1
 345 28 l 1
 324 588 l 1
 317 588 l 1
 182 0 l 1
 70 0 l 1
EndSplineSet
Position2: "'cpsp' Capital Spacing in Lateinisch lookup 0 subtable" dx=5 dy=0 dh=10 dv=0
EndChar

StartChar: N
Encoding: 78 78 77
Width: 642
Flags: MW
HStem: 0 117<397 493 478 493 478 572> 575 110<310 325 310 310>
VStem: 70 660
LayerCount: 2
Fore
SplineSet
70 0 m 1
 229 685 l 1
 412 685 l 1
 478 117 l 1
 493 117 l 1
 622 685 l 1
 730 685 l 1
 572 0 l 1
 397 0 l 1
 325 575 l 1
 310 575 l 1
 176 0 l 1
 70 0 l 1
EndSplineSet
Position2: "'cpsp' Capital Spacing in Lateinisch lookup 0 subtable" dx=5 dy=0 dh=10 dv=0
EndChar

StartChar: Nacute
Encoding: 323 323 78
Width: 642
Flags: MW
HStem: 0 117<397 493 478 493 478 572> 575 110<310 325 310 310>
VStem: 70 660
LayerCount: 2
Fore
SplineSet
395 774 m 1
 386 859 l 1
 634 951 l 1
 644 854 l 1
 395 774 l 1
70 0 m 1
 229 685 l 1
 412 685 l 1
 478 117 l 1
 493 117 l 1
 622 685 l 1
 730 685 l 1
 572 0 l 1
 397 0 l 1
 325 575 l 1
 310 575 l 1
 176 0 l 1
 70 0 l 1
EndSplineSet
Position2: "'cpsp' Capital Spacing in Lateinisch lookup 0 subtable" dx=5 dy=0 dh=10 dv=0
EndChar

StartChar: Ncaron
Encoding: 327 327 79
Width: 642
Flags: MW
HStem: 0 117<397 493 478 493 478 572> 575 110<310 325 310 310> 781 145<449 461 354 522 449 449>
VStem: 70 660
LayerCount: 2
Fore
SplineSet
680 926 m 1
 522 781 l 1
 449 781 l 1
 354 926 l 1
 461 926 l 1
 503 858 l 1
 573 926 l 1
 680 926 l 1
70 0 m 1
 229 685 l 1
 412 685 l 1
 478 117 l 1
 493 117 l 1
 622 685 l 1
 730 685 l 1
 572 0 l 1
 397 0 l 1
 325 575 l 1
 310 575 l 1
 176 0 l 1
 70 0 l 1
EndSplineSet
Position2: "'cpsp' Capital Spacing in Lateinisch lookup 0 subtable" dx=5 dy=0 dh=10 dv=0
EndChar

StartChar: Ncommaaccent
Encoding: 325 325 80
Width: 642
Flags: MW
HStem: 0 117<397 493 478 493 478 572> 575 110<310 325 310 310>
VStem: 70 660
LayerCount: 2
Fore
SplineSet
281 -72 m 1
 188 -298 l 1
 278 -298 l 1
 380 -72 l 1
 281 -72 l 1
70 0 m 1
 229 685 l 1
 412 685 l 1
 478 117 l 1
 493 117 l 1
 622 685 l 1
 730 685 l 1
 572 0 l 1
 397 0 l 1
 325 575 l 1
 310 575 l 1
 176 0 l 1
 70 0 l 1
EndSplineSet
Position2: "'cpsp' Capital Spacing in Lateinisch lookup 0 subtable" dx=5 dy=0 dh=10 dv=0
EndChar

StartChar: Ntilde
Encoding: 209 209 81
Width: 642
Flags: MW
HStem: 0 117<397 493 478 493 478 572> 575 110<310 325 310 310> 788 96<572.5 587.5> 836 96<420 436.5>
VStem: 70 660
LayerCount: 2
Fore
SplineSet
671 925 m 1xe8
 673 849 l 1
 673 849 610 788 565 788 c 0xe8
 518 788 454 836 419 836 c 0
 396 836 334 793 334 793 c 1
 331 869 l 1
 331 869 398 932 442 932 c 0xd8
 497 932 559 884 586 884 c 0
 609 884 671 925 671 925 c 1xe8
70 0 m 1
 229 685 l 1
 412 685 l 1
 478 117 l 1
 493 117 l 1
 622 685 l 1
 730 685 l 1
 572 0 l 1
 397 0 l 1
 325 575 l 1
 310 575 l 1
 176 0 l 1
 70 0 l 1
EndSplineSet
Position2: "'cpsp' Capital Spacing in Lateinisch lookup 0 subtable" dx=5 dy=0 dh=10 dv=0
EndChar

StartChar: O
Encoding: 79 79 82
Width: 620
Flags: MW
HStem: -11 97<294 355> 599 97<422.5 482>
VStem: 106 115<163 262.5 163 278.5> 555 115<417 521.5>
LayerCount: 2
Fore
SplineSet
337 86 m 0
 374 86 408 99 435 123 c 0
 514 194 555 355 555 479 c 0
 555 564 524 599 440 599 c 0
 405 599 373 589 347 566 c 0
 264 491 221 319 221 206 c 0
 221 120 251 86 337 86 c 0
320 -11 m 0
 182 -11 106 50 106 196 c 0
 106 361 158 534 264 627 c 0
 314 672 378 696 452 696 c 0
 588 696 670 635 670 489 c 0
 670 318 619 139 506 48 c 0
 457 10 390 -11 320 -11 c 0
EndSplineSet
Position2: "'cpsp' Capital Spacing in Lateinisch lookup 0 subtable" dx=5 dy=0 dh=10 dv=0
EndChar

StartChar: Oacute
Encoding: 211 211 83
Width: 620
Flags: MW
HStem: -11 97<294 355> 599 97<422.5 482>
VStem: 106 115<163 262.5 163 278.5> 555 115<417 521.5>
LayerCount: 2
Fore
SplineSet
337 86 m 0
 374 86 408 99 435 123 c 0
 514 194 555 355 555 479 c 0
 555 564 524 599 440 599 c 0
 405 599 373 589 347 566 c 0
 264 491 221 319 221 206 c 0
 221 120 251 86 337 86 c 0
320 -11 m 0
 182 -11 106 50 106 196 c 0
 106 361 158 534 264 627 c 0
 314 672 378 696 452 696 c 0
 588 696 670 635 670 489 c 0
 670 318 619 139 506 48 c 0
 457 10 390 -11 320 -11 c 0
404 774 m 1
 395 859 l 1
 643 951 l 1
 653 854 l 1
 404 774 l 1
EndSplineSet
Position2: "'cpsp' Capital Spacing in Lateinisch lookup 0 subtable" dx=5 dy=0 dh=10 dv=0
EndChar

StartChar: Obreve
Encoding: 334 334 84
Width: 620
Flags: MW
HStem: -11 97<294 355> 599 97<422.5 482> 788 137<436.5 456 358 535.5>
VStem: 106 115<163 262.5 163 278.5> 555 115<417 521.5>
LayerCount: 2
Fore
SplineSet
358 925 m 1
 456 925 l 1
 450 887 468 874 501 874 c 0
 534 874 560 895 570 925 c 1
 668 925 l 1
 641 841 588 788 483 788 c 0
 390 788 345 836 358 925 c 1
337 86 m 0
 374 86 408 99 435 123 c 0
 514 194 555 355 555 479 c 0
 555 564 524 599 440 599 c 0
 405 599 373 589 347 566 c 0
 264 491 221 319 221 206 c 0
 221 120 251 86 337 86 c 0
320 -11 m 0
 182 -11 106 50 106 196 c 0
 106 361 158 534 264 627 c 0
 314 672 378 696 452 696 c 0
 588 696 670 635 670 489 c 0
 670 318 619 139 506 48 c 0
 457 10 390 -11 320 -11 c 0
EndSplineSet
Position2: "'cpsp' Capital Spacing in Lateinisch lookup 0 subtable" dx=5 dy=0 dh=10 dv=0
EndChar

StartChar: Ocircumflex
Encoding: 212 212 85
Width: 620
Flags: MW
HStem: -11 97<294 355> 599 97<422.5 482> 785 146<326 559 556 556 556 559 496 655>
VStem: 106 115<163 262.5 163 278.5> 555 115<417 521.5>
LayerCount: 2
Fore
SplineSet
337 86 m 0
 374 86 408 99 435 123 c 0
 514 194 555 355 555 479 c 0
 555 564 524 599 440 599 c 0
 405 599 373 589 347 566 c 0
 264 491 221 319 221 206 c 0
 221 120 251 86 337 86 c 0
320 -11 m 0
 182 -11 106 50 106 196 c 0
 106 361 158 534 264 627 c 0
 314 672 378 696 452 696 c 0
 588 696 670 635 670 489 c 0
 670 318 619 139 506 48 c 0
 457 10 390 -11 320 -11 c 0
326 785 m 1
 496 931 l 1
 559 931 l 1
 655 785 l 1
 556 785 l 1
 518 851 l 1
 441 785 l 1
 326 785 l 1
EndSplineSet
Position2: "'cpsp' Capital Spacing in Lateinisch lookup 0 subtable" dx=5 dy=0 dh=10 dv=0
EndChar

StartChar: Odieresis
Encoding: 214 214 86
Width: 620
Flags: MW
HStem: -11 97<294 355> 599 97<422.5 482> 795 116<343 468 369 440 567 637 369 540>
VStem: 106 115<163 262.5 163 278.5> 555 115<417 521.5>
LayerCount: 2
Fore
SplineSet
343 795 m 1
 369 911 l 1
 468 911 l 1
 440 795 l 1
 343 795 l 1
540 795 m 1
 567 911 l 1
 665 911 l 1
 637 795 l 1
 540 795 l 1
337 86 m 0
 374 86 408 99 435 123 c 0
 514 194 555 355 555 479 c 0
 555 564 524 599 440 599 c 0
 405 599 373 589 347 566 c 0
 264 491 221 319 221 206 c 0
 221 120 251 86 337 86 c 0
320 -11 m 0
 182 -11 106 50 106 196 c 0
 106 361 158 534 264 627 c 0
 314 672 378 696 452 696 c 0
 588 696 670 635 670 489 c 0
 670 318 619 139 506 48 c 0
 457 10 390 -11 320 -11 c 0
EndSplineSet
Position2: "'cpsp' Capital Spacing in Lateinisch lookup 0 subtable" dx=5 dy=0 dh=10 dv=0
EndChar

StartChar: Ograve
Encoding: 210 210 87
Width: 620
Flags: MW
HStem: -11 97<294 355> 599 97<422.5 482>
VStem: 106 115<163 262.5 163 278.5> 555 115<417 521.5>
LayerCount: 2
Fore
SplineSet
403 941 m 1
 609 849 l 1
 560 765 l 1
 350 846 l 1
 403 941 l 1
337 86 m 0
 374 86 408 99 435 123 c 0
 514 194 555 355 555 479 c 0
 555 564 524 599 440 599 c 0
 405 599 373 589 347 566 c 0
 264 491 221 319 221 206 c 0
 221 120 251 86 337 86 c 0
320 -11 m 0
 182 -11 106 50 106 196 c 0
 106 361 158 534 264 627 c 0
 314 672 378 696 452 696 c 0
 588 696 670 635 670 489 c 0
 670 318 619 139 506 48 c 0
 457 10 390 -11 320 -11 c 0
EndSplineSet
Position2: "'cpsp' Capital Spacing in Lateinisch lookup 0 subtable" dx=5 dy=0 dh=10 dv=0
EndChar

StartChar: Ohungarumlaut
Encoding: 336 336 88
Width: 620
Flags: MW
HStem: -11 97<294 355> 599 97<422.5 482>
VStem: 106 115<163 262.5 163 278.5> 555 115<417 521.5>
LayerCount: 2
Fore
SplineSet
603 753 m 1
 529 789 l 1
 662 958 l 1
 745 919 l 1
 603 753 l 1
405 754 m 1
 330 789 l 1
 465 959 l 1
 547 920 l 1
 405 754 l 1
337 86 m 0
 374 86 408 99 435 123 c 0
 514 194 555 355 555 479 c 0
 555 564 524 599 440 599 c 0
 405 599 373 589 347 566 c 0
 264 491 221 319 221 206 c 0
 221 120 251 86 337 86 c 0
320 -11 m 0
 182 -11 106 50 106 196 c 0
 106 361 158 534 264 627 c 0
 314 672 378 696 452 696 c 0
 588 696 670 635 670 489 c 0
 670 318 619 139 506 48 c 0
 457 10 390 -11 320 -11 c 0
EndSplineSet
Position2: "'cpsp' Capital Spacing in Lateinisch lookup 0 subtable" dx=5 dy=0 dh=10 dv=0
EndChar

StartChar: Omacron
Encoding: 332 332 89
Width: 620
Flags: MW
HStem: -11 97<294 355> 599 97<422.5 482> 814 87<332 665 352 644>
VStem: 106 115<163 262.5 163 278.5> 555 115<417 521.5>
LayerCount: 2
Fore
SplineSet
337 86 m 0
 374 86 408 99 435 123 c 0
 514 194 555 355 555 479 c 0
 555 564 524 599 440 599 c 0
 405 599 373 589 347 566 c 0
 264 491 221 319 221 206 c 0
 221 120 251 86 337 86 c 0
320 -11 m 0
 182 -11 106 50 106 196 c 0
 106 361 158 534 264 627 c 0
 314 672 378 696 452 696 c 0
 588 696 670 635 670 489 c 0
 670 318 619 139 506 48 c 0
 457 10 390 -11 320 -11 c 0
332 814 m 1
 352 901 l 1
 665 901 l 1
 644 814 l 1
 332 814 l 1
EndSplineSet
Position2: "'cpsp' Capital Spacing in Lateinisch lookup 0 subtable" dx=5 dy=0 dh=10 dv=0
EndChar

StartChar: Oslash
Encoding: 216 216 90
Width: 620
Flags: MW
HStem: -11 97<321.5 355> 599 97<422.5 455.5>
VStem: 106 115<197 262.5 197 278.5> 555 115<417 487>
LayerCount: 2
Fore
SplineSet
116 -118 m 1
 60 -84 l 1
 150 49 l 1
 121 83 106 131 106 196 c 0
 106 361 158 534 264 627 c 0
 314 672 378 696 452 696 c 0
 499 696 540 688 573 672 c 1
 661 801 l 1
 724 775 l 1
 626 632 l 1
 654 598 670 551 670 489 c 0
 670 318 619 139 506 48 c 0
 457 10 390 -11 320 -11 c 0
 274 -11 234 -4 203 10 c 1
 116 -118 l 1
225 160 m 1
 360 359 l 1
 513 583 l 1
 495 594 471 599 440 599 c 0
 405 599 373 589 347 566 c 0
 264 491 221 319 221 206 c 0
 221 188 222 173 225 160 c 1
337 86 m 0
 374 86 408 99 435 123 c 0
 514 194 555 355 555 479 c 0
 555 495 554 509 551 521 c 1
 419 327 l 1
 264 100 l 1
 282 91 306 86 337 86 c 0
EndSplineSet
Position2: "'cpsp' Capital Spacing in Lateinisch lookup 0 subtable" dx=5 dy=0 dh=10 dv=0
EndChar

StartChar: Oslashacute
Encoding: 510 510 91
Width: 622
Flags: MW
HStem: -11 97<322.5 356> 599 97<423.5 456.5>
VStem: 107 115<197 262.5 197 278.5> 556 115<417 487>
LayerCount: 2
Fore
SplineSet
117 -118 m 1
 61 -84 l 1
 151 49 l 1
 122 83 107 131 107 196 c 0
 107 361 159 534 265 627 c 0
 315 672 379 696 453 696 c 0
 500 696 541 688 574 672 c 1
 662 801 l 1
 725 775 l 1
 627 632 l 1
 655 598 671 551 671 489 c 0
 671 318 620 139 507 48 c 0
 458 10 391 -11 321 -11 c 0
 275 -11 235 -4 204 10 c 1
 117 -118 l 1
226 160 m 1
 361 359 l 1
 514 583 l 1
 496 594 472 599 441 599 c 0
 406 599 374 589 348 566 c 0
 265 491 222 319 222 206 c 0
 222 188 223 173 226 160 c 1
338 86 m 0
 375 86 409 99 436 123 c 0
 515 194 556 355 556 479 c 0
 556 495 555 509 552 521 c 1
 420 327 l 1
 265 100 l 1
 283 91 307 86 338 86 c 0
402 765 m 1
 392 859 l 1
 640 951 l 1
 651 846 l 1
 402 765 l 1
EndSplineSet
Position2: "'cpsp' Capital Spacing in Lateinisch lookup 0 subtable" dx=5 dy=0 dh=10 dv=0
EndChar

StartChar: Otilde
Encoding: 213 213 92
Width: 620
Flags: MW
HStem: -11 97<294 355> 599 97<422.5 482> 788 96<579.5 594.5> 836 96<427 443.5>
VStem: 106 115<163 262.5 163 278.5> 555 115<417 521.5>
LayerCount: 2
Fore
SplineSet
678 925 m 1xec
 680 849 l 1
 680 849 617 788 572 788 c 0xec
 525 788 461 836 426 836 c 0
 403 836 341 793 341 793 c 1
 338 869 l 1
 338 869 405 932 449 932 c 0xdc
 504 932 566 884 593 884 c 0
 616 884 678 925 678 925 c 1xec
337 86 m 0
 374 86 408 99 435 123 c 0
 514 194 555 355 555 479 c 0
 555 564 524 599 440 599 c 0
 405 599 373 589 347 566 c 0
 264 491 221 319 221 206 c 0
 221 120 251 86 337 86 c 0
320 -11 m 0
 182 -11 106 50 106 196 c 0
 106 361 158 534 264 627 c 0
 314 672 378 696 452 696 c 0
 588 696 670 635 670 489 c 0
 670 318 619 139 506 48 c 0
 457 10 390 -11 320 -11 c 0
EndSplineSet
Position2: "'cpsp' Capital Spacing in Lateinisch lookup 0 subtable" dx=5 dy=0 dh=10 dv=0
EndChar

StartChar: OE
Encoding: 338 338 93
Width: 843
Flags: MW
HStem: -11 107<283.5 303> 0 96<283.5 804 283.5 411> 0 107<537 804> 295 101 586 107<651 944 651 651> 596 108<387 460>
VStem: 100 111
LayerCount: 2
Fore
SplineSet
804 0 m 1x3a
 411 0 l 1x3a
 371 -6 320 -11 286 -11 c 0
 161 -11 105 47 100 156 c 0
 98 208 105 270 123 345 c 0
 181 590 284 704 454 704 c 0x96
 481 704 542 698 572 693 c 1
 968 693 l 1
 944 586 l 1
 651 586 l 1
 605 396 l 1
 840 396 l 1
 817 294 l 1
 582 296 l 1
 537 107 l 1
 829 107 l 1
 804 0 l 1x3a
324 96 m 0x56
 345 96 397 100 432 103 c 1
 548 590 l 1
 529 592 478 596 442 596 c 0
 332 596 275 524 232 346 c 0
 219 288 211 243 211 205 c 0
 211 130 243 96 324 96 c 0x56
EndSplineSet
Position2: "'cpsp' Capital Spacing in Lateinisch lookup 0 subtable" dx=5 dy=0 dh=10 dv=0
EndChar

StartChar: P
Encoding: 80 80 94
Width: 547
Flags: MW
HStem: 0 21G<70 182 70 70> 212 97<253 344 231 360> 588 97<317 425 317 317>
VStem: 513 114<446 532>
LayerCount: 2
Fore
SplineSet
344 212 m 2
 231 212 l 1
 182 0 l 1
 70 0 l 1
 229 685 l 1
 434 685 l 2
 570 685 627 629 627 505 c 0
 627 320 521 212 344 212 c 2
253 309 m 1
 360 309 l 2
 459 309 513 388 513 504 c 0
 513 560 489 588 425 588 c 2
 317 588 l 1
 253 309 l 1
EndSplineSet
Position2: "'cpsp' Capital Spacing in Lateinisch lookup 0 subtable" dx=5 dy=0 dh=10 dv=0
EndChar

StartChar: Q
Encoding: 81 81 95
Width: 620
Flags: MW
HStem: -11 97<294 327.5> 599 97<422.5 482>
VStem: 106 115<163 262.5 163 278.5> 555 115<417 521.5>
LayerCount: 2
Fore
SplineSet
320 -11 m 0
 182 -11 106 50 106 196 c 0
 106 361 158 534 264 627 c 0
 314 672 378 696 452 696 c 0
 588 696 670 635 670 489 c 0
 670 318 619 139 506 48 c 0
 494 38 480 30 466 23 c 1
 514 -115 l 1
 409 -150 l 1
 365 -8 l 1
 350 -10 335 -11 320 -11 c 0
337 86 m 0
 374 86 408 99 435 123 c 0
 514 194 555 355 555 479 c 0
 555 564 524 599 440 599 c 0
 405 599 373 589 347 566 c 0
 264 491 221 319 221 206 c 0
 221 120 251 86 337 86 c 0
EndSplineSet
Position2: "'cpsp' Capital Spacing in Lateinisch lookup 0 subtable" dx=5 dy=0 dh=10 dv=0
EndChar

StartChar: R
Encoding: 82 82 96
Width: 561
Flags: MW
HStem: 0 21G<70 182 70 70 418 529 418 418> 235 96<258 362 236 373> 589 96<318 424 318 318>
VStem: 513 115<452.5 531>
LayerCount: 2
Fore
SplineSet
418 0 m 1
 362 235 l 1
 236 235 l 1
 182 0 l 1
 70 0 l 1
 229 685 l 1
 432 685 l 2
 563 685 628 634 628 503 c 0
 628 361 547 278 465 250 c 1
 529 0 l 1
 418 0 l 1
513 498 m 0
 513 564 489 589 424 589 c 2
 318 589 l 1
 258 331 l 1
 373 331 l 2
 461 331 513 407 513 498 c 0
EndSplineSet
Position2: "'cpsp' Capital Spacing in Lateinisch lookup 0 subtable" dx=5 dy=0 dh=10 dv=0
EndChar

StartChar: Racute
Encoding: 340 340 97
Width: 561
Flags: MW
HStem: 331 258<318 373 258 424> 685 21G<229 432 229 229>
VStem: 70 558<0 568.5>
LayerCount: 2
Fore
SplineSet
362 235 m 1
 418 0 l 1
 529 0 l 1
 465 250 l 1
 547 278 628 361 628 503 c 0
 628 634 563 685 432 685 c 2
 229 685 l 1
 70 0 l 1
 182 0 l 1
 236 235 l 1
 362 235 l 1
513 498 m 0
 513 407 461 331 373 331 c 2
 258 331 l 1
 318 589 l 1
 424 589 l 2
 489 589 513 564 513 498 c 0
342 774 m 1
 333 859 l 1
 581 951 l 1
 591 854 l 1
 342 774 l 1
EndSplineSet
Position2: "'cpsp' Capital Spacing in Lateinisch lookup 0 subtable" dx=5 dy=0 dh=10 dv=0
EndChar

StartChar: Rcaron
Encoding: 344 344 98
Width: 561
Flags: MW
HStem: 331 258<318 373 258 424> 685 242<295 402 295 432 229 402> 782 145<390 402 295 463 390 390>
VStem: 70 558<0 568.5>
LayerCount: 2
Fore
SplineSet
621 927 m 1xd0
 463 782 l 1
 390 782 l 1xb0
 295 927 l 1
 402 927 l 1
 444 859 l 1
 514 927 l 1
 621 927 l 1xd0
362 235 m 1
 418 0 l 1
 529 0 l 1
 465 250 l 1
 547 278 628 361 628 503 c 0
 628 634 563 685 432 685 c 2
 229 685 l 1xd0
 70 0 l 1
 182 0 l 1
 236 235 l 1
 362 235 l 1
513 498 m 0
 513 407 461 331 373 331 c 2
 258 331 l 1
 318 589 l 1
 424 589 l 2
 489 589 513 564 513 498 c 0
EndSplineSet
Position2: "'cpsp' Capital Spacing in Lateinisch lookup 0 subtable" dx=5 dy=0 dh=10 dv=0
EndChar

StartChar: Rcommaaccent
Encoding: 342 342 99
Width: 561
Flags: MW
HStem: -298 226<146 338 146 338> 0 21G<70 182 70 70 418 529 418 418> 235 96<258 362 236 373> 589 96<318 424 318 318>
VStem: 513 115<452.5 531>
LayerCount: 2
Fore
SplineSet
146 -298 m 1
 239 -72 l 1
 338 -72 l 1
 236 -298 l 1
 146 -298 l 1
418 0 m 1
 362 235 l 1
 236 235 l 1
 182 0 l 1
 70 0 l 1
 229 685 l 1
 432 685 l 2
 563 685 628 634 628 503 c 0
 628 361 547 278 465 250 c 1
 529 0 l 1
 418 0 l 1
513 498 m 0
 513 564 489 589 424 589 c 2
 318 589 l 1
 258 331 l 1
 373 331 l 2
 461 331 513 407 513 498 c 0
EndSplineSet
Position2: "'cpsp' Capital Spacing in Lateinisch lookup 0 subtable" dx=5 dy=0 dh=10 dv=0
EndChar

StartChar: S
Encoding: 83 83 100
Width: 497
Flags: MW
HStem: -11 97<222 302 222 333.5> 601 95<351.5 425> 663 21G<588 588>
VStem: 153 113<464 523 464 540.5> 397 114<169 236.5>
LayerCount: 2
Fore
SplineSet
588 663 m 1xb8
 568 583 l 1
 568 583 460 601 390 601 c 0
 313 601 266 559 266 487 c 0
 266 441 286 428 372 394 c 0
 480 349 511 315 511 226 c 0
 511 73 410 -11 257 -11 c 0
 156 -11 53 24 53 24 c 1
 71 105 l 1
 71 105 186 86 258 86 c 0
 346 86 397 125 397 213 c 0
 397 260 379 273 291 309 c 0
 197 347 153 384 153 475 c 0
 153 606 244 696 389 696 c 0xd8
 490 696 588 663 588 663 c 1xb8
EndSplineSet
Position2: "'cpsp' Capital Spacing in Lateinisch lookup 0 subtable" dx=5 dy=0 dh=10 dv=0
EndChar

StartChar: Sacute
Encoding: 346 346 101
Width: 497
Flags: MW
HStem: -11 97<222 302 222 333.5> 601 95<351.5 425> 663 21G<588 588>
VStem: 153 113<464 523 464 540.5> 397 114<169 236.5>
LayerCount: 2
Fore
SplineSet
588 663 m 1xb8
 568 583 l 1
 568 583 460 601 390 601 c 0
 313 601 266 559 266 487 c 0
 266 441 286 428 372 394 c 0
 480 349 511 315 511 226 c 0
 511 73 410 -11 257 -11 c 0
 156 -11 53 24 53 24 c 1
 71 105 l 1
 71 105 186 86 258 86 c 0
 346 86 397 125 397 213 c 0
 397 260 379 273 291 309 c 0
 197 347 153 384 153 475 c 0
 153 606 244 696 389 696 c 0xd8
 490 696 588 663 588 663 c 1xb8
344 774 m 1
 335 859 l 1
 583 951 l 1
 593 854 l 1
 344 774 l 1
EndSplineSet
Position2: "'cpsp' Capital Spacing in Lateinisch lookup 0 subtable" dx=5 dy=0 dh=10 dv=0
EndChar

StartChar: Scaron
Encoding: 352 352 102
Width: 497
Flags: MW
HStem: -11 97<222 302 222 333.5> 601 95<351.5 425> 663 21G<588 588> 783 145<399 411 304 472 399 399>
VStem: 153 113<464 523 464 540.5> 397 114<169 236.5>
LayerCount: 2
Fore
SplineSet
630 928 m 1xbc
 472 783 l 1
 399 783 l 1
 304 928 l 1
 411 928 l 1
 453 860 l 1
 523 928 l 1
 630 928 l 1xbc
588 663 m 1
 568 583 l 1
 568 583 460 601 390 601 c 0
 313 601 266 559 266 487 c 0
 266 441 286 428 372 394 c 0
 480 349 511 315 511 226 c 0
 511 73 410 -11 257 -11 c 0
 156 -11 53 24 53 24 c 1
 71 105 l 1
 71 105 186 86 258 86 c 0
 346 86 397 125 397 213 c 0
 397 260 379 273 291 309 c 0
 197 347 153 384 153 475 c 0xdc
 153 606 244 696 389 696 c 0
 490 696 588 663 588 663 c 1
EndSplineSet
Position2: "'cpsp' Capital Spacing in Lateinisch lookup 0 subtable" dx=5 dy=0 dh=10 dv=0
EndChar

StartChar: Scedilla
Encoding: 350 350 103
Width: 497
Flags: MW
HStem: -221 75<209 231.5 208 262> -91 53<202 264> -9 21G<220 220> 601 95<351.5 425> 663 21G<588 588>
VStem: 153 113<464 523 464 540.5> 263 90 397 114<169 236.5>
LayerCount: 2
Fore
SplineSet
588 663 m 1xad
 568 583 l 1
 568 583 460 601 390 601 c 0
 313 601 266 559 266 487 c 0xb5
 266 441 286 428 372 394 c 0
 480 349 511 315 511 226 c 0
 511 76 414 -8 265 -11 c 1
 258 -38 l 1
 264 -38 l 2
 322 -38 366 -56 350 -124 c 0
 335 -188 294 -221 230 -221 c 0
 188 -221 148 -212 148 -212 c 1
 165 -144 l 1
 165 -144 198 -146 218 -146 c 0
 245 -146 258 -137 263 -117 c 0
 269 -94 253 -91 231 -91 c 2
 202 -91 l 1xeb
 220 -9 l 1
 132 -3 53 24 53 24 c 1xab
 71 105 l 1
 71 105 186 86 258 86 c 0
 346 86 397 125 397 213 c 0
 397 260 379 273 291 309 c 0
 197 347 153 384 153 475 c 0
 153 606 244 696 389 696 c 0xf5
 490 696 588 663 588 663 c 1xad
EndSplineSet
Substitution2: "'locl' Localized Forms in Lateinisch lookup 0 subtable" Scommaaccent
Position2: "'cpsp' Capital Spacing in Lateinisch lookup 0 subtable" dx=5 dy=0 dh=10 dv=0
EndChar

StartChar: Scircumflex
Encoding: 348 348 104
Width: 497
Flags: MW
HStem: -11 97<222 302 222 333.5> 601 95<351.5 425> 663 21G<588 588> 785 146<260 493 490 490 490 493 430 589>
VStem: 153 113<464 523 464 540.5> 397 114<169 236.5>
LayerCount: 2
Fore
SplineSet
588 663 m 1xbc
 568 583 l 1
 568 583 460 601 390 601 c 0
 313 601 266 559 266 487 c 0
 266 441 286 428 372 394 c 0
 480 349 511 315 511 226 c 0
 511 73 410 -11 257 -11 c 0
 156 -11 53 24 53 24 c 1
 71 105 l 1
 71 105 186 86 258 86 c 0
 346 86 397 125 397 213 c 0
 397 260 379 273 291 309 c 0
 197 347 153 384 153 475 c 0
 153 606 244 696 389 696 c 0xdc
 490 696 588 663 588 663 c 1xbc
260 785 m 1
 430 931 l 1
 493 931 l 1
 589 785 l 1
 490 785 l 1
 452 851 l 1
 375 785 l 1
 260 785 l 1
EndSplineSet
Position2: "'cpsp' Capital Spacing in Lateinisch lookup 0 subtable" dx=5 dy=0 dh=10 dv=0
EndChar

StartChar: Scommaaccent
Encoding: 536 536 105
Width: 497
Flags: MW
HStem: -72 158<194 302 222 293> -11 97<222 302 222 333.5> 601 95<351.5 425> 663 21G<588 588>
VStem: 153 113<464 523 464 540.5> 397 114<169 236.5>
LayerCount: 2
Fore
SplineSet
194 -72 m 1x9c
 101 -298 l 1
 191 -298 l 1
 293 -72 l 1
 194 -72 l 1x9c
588 663 m 1
 568 583 l 1
 568 583 460 601 390 601 c 0
 313 601 266 559 266 487 c 0
 266 441 286 428 372 394 c 0
 480 349 511 315 511 226 c 0
 511 73 410 -11 257 -11 c 0
 156 -11 53 24 53 24 c 1
 71 105 l 1
 71 105 186 86 258 86 c 0
 346 86 397 125 397 213 c 0
 397 260 379 273 291 309 c 0
 197 347 153 384 153 475 c 0
 153 606 244 696 389 696 c 0x6c
 490 696 588 663 588 663 c 1
EndSplineSet
Position2: "'cpsp' Capital Spacing in Lateinisch lookup 0 subtable" dx=5 dy=0 dh=10 dv=0
EndChar

StartChar: T
Encoding: 84 84 106
Width: 461
Flags: MW
HStem: 0 21G<174 285 174 174> 588 97<145 610 168 309 421 421 421 587>
VStem: 145 465<588 685>
LayerCount: 2
Fore
SplineSet
145 588 m 1
 168 685 l 1
 610 685 l 1
 587 588 l 1
 421 588 l 1
 285 0 l 1
 174 0 l 1
 309 588 l 1
 145 588 l 1
EndSplineSet
Position2: "'cpsp' Capital Spacing in Lateinisch lookup 0 subtable" dx=5 dy=0 dh=10 dv=0
EndChar

StartChar: Tbar
Encoding: 358 358 107
Width: 466
Flags: MW
HStem: 0 21G<177 288 177 177> 269 97<127 239 104 261 372 487 127 350> 588 97<148 613 171 312 424 424 424 590>
VStem: 104 509<269 685>
LayerCount: 2
Fore
SplineSet
148 588 m 1
 171 685 l 1
 613 685 l 1
 590 588 l 1
 424 588 l 1
 372 366 l 1
 512 366 l 1
 487 269 l 1
 350 269 l 1
 288 0 l 1
 177 0 l 1
 239 269 l 1
 104 269 l 1
 127 366 l 1
 261 366 l 1
 312 588 l 1
 148 588 l 1
EndSplineSet
Position2: "'cpsp' Capital Spacing in Lateinisch lookup 0 subtable" dx=5 dy=0 dh=10 dv=0
EndChar

StartChar: Tcaron
Encoding: 356 356 108
Width: 461
Flags: MW
HStem: 0 21G<174 285 174 174> 588 97<145 610 168 309 421 421 421 587> 782 145<359 371 264 432 359 359>
VStem: 145 465<588 685>
LayerCount: 2
Fore
SplineSet
590 927 m 1
 432 782 l 1
 359 782 l 1
 264 927 l 1
 371 927 l 1
 413 859 l 1
 483 927 l 1
 590 927 l 1
145 588 m 1
 168 685 l 1
 610 685 l 1
 587 588 l 1
 421 588 l 1
 285 0 l 1
 174 0 l 1
 309 588 l 1
 145 588 l 1
EndSplineSet
Position2: "'cpsp' Capital Spacing in Lateinisch lookup 0 subtable" dx=5 dy=0 dh=10 dv=0
EndChar

StartChar: Tcommaaccent
Encoding: 538 538 109
Width: 461
Flags: MW
HStem: 0 21G<174 285 174 174> 588 97<145 610 168 309 421 421 421 587>
VStem: 76 534
LayerCount: 2
Fore
SplineSet
169 -72 m 1
 76 -298 l 1
 166 -298 l 1
 268 -72 l 1
 169 -72 l 1
145 588 m 1
 168 685 l 1
 610 685 l 1
 587 588 l 1
 421 588 l 1
 285 0 l 1
 174 0 l 1
 309 588 l 1
 145 588 l 1
EndSplineSet
Position2: "'cpsp' Capital Spacing in Lateinisch lookup 0 subtable" dx=5 dy=0 dh=10 dv=0
EndChar

StartChar: U
Encoding: 85 85 110
Width: 594
Flags: MW
HStem: -11 97<288.5 368 288.5 388.5>
VStem: 107 111<129 154.5>
LayerCount: 2
Fore
SplineSet
334 685 m 1
 227 225 l 2
 222 203 218 179 218 156 c 0
 218 102 257 86 320 86 c 0
 416 86 448 131 469 222 c 2
 576 685 l 1
 688 685 l 1
 581 222 l 2
 544 62 467 -11 310 -11 c 0
 188 -11 107 35 107 139 c 0
 107 170 113 211 119 241 c 2
 222 685 l 1
 334 685 l 1
EndSplineSet
Position2: "'cpsp' Capital Spacing in Lateinisch lookup 0 subtable" dx=5 dy=0 dh=10 dv=0
EndChar

StartChar: Uacute
Encoding: 218 218 111
Width: 594
Flags: MW
HStem: -11 97<288.5 368 288.5 388.5>
VStem: 107 111<129 154.5>
LayerCount: 2
Fore
SplineSet
334 685 m 1
 227 225 l 2
 222 203 218 179 218 156 c 0
 218 102 257 86 320 86 c 0
 416 86 448 131 469 222 c 2
 576 685 l 1
 688 685 l 1
 581 222 l 2
 544 62 467 -11 310 -11 c 0
 188 -11 107 35 107 139 c 0
 107 170 113 211 119 241 c 2
 222 685 l 1
 334 685 l 1
371 774 m 1
 362 859 l 1
 610 951 l 1
 620 854 l 1
 371 774 l 1
EndSplineSet
Position2: "'cpsp' Capital Spacing in Lateinisch lookup 0 subtable" dx=5 dy=0 dh=10 dv=0
EndChar

StartChar: Ubreve
Encoding: 364 364 112
Width: 594
Flags: MW
HStem: -11 97<288.5 368 288.5 388.5> 788 137<415.5 435 337 514.5>
VStem: 107 111<129 154.5>
LayerCount: 2
Fore
SplineSet
337 925 m 1
 435 925 l 1
 429 887 447 874 480 874 c 0
 513 874 539 895 549 925 c 1
 647 925 l 1
 620 841 567 788 462 788 c 0
 369 788 324 836 337 925 c 1
334 685 m 1
 227 225 l 2
 222 203 218 179 218 156 c 0
 218 102 257 86 320 86 c 0
 416 86 448 131 469 222 c 2
 576 685 l 1
 688 685 l 1
 581 222 l 2
 544 62 467 -11 310 -11 c 0
 188 -11 107 35 107 139 c 0
 107 170 113 211 119 241 c 2
 222 685 l 1
 334 685 l 1
EndSplineSet
Position2: "'cpsp' Capital Spacing in Lateinisch lookup 0 subtable" dx=5 dy=0 dh=10 dv=0
EndChar

StartChar: Ucircumflex
Encoding: 219 219 113
Width: 594
Flags: MW
HStem: -11 97<288.5 368 288.5 388.5> 785 146<307 540 537 537 537 540 477 636>
VStem: 107 111<129 154.5>
LayerCount: 2
Fore
SplineSet
334 685 m 1
 227 225 l 2
 222 203 218 179 218 156 c 0
 218 102 257 86 320 86 c 0
 416 86 448 131 469 222 c 2
 576 685 l 1
 688 685 l 1
 581 222 l 2
 544 62 467 -11 310 -11 c 0
 188 -11 107 35 107 139 c 0
 107 170 113 211 119 241 c 2
 222 685 l 1
 334 685 l 1
307 785 m 1
 477 931 l 1
 540 931 l 1
 636 785 l 1
 537 785 l 1
 499 851 l 1
 422 785 l 1
 307 785 l 1
EndSplineSet
Position2: "'cpsp' Capital Spacing in Lateinisch lookup 0 subtable" dx=5 dy=0 dh=10 dv=0
EndChar

StartChar: Udieresis
Encoding: 220 220 114
Width: 594
Flags: MW
HStem: -11 97<288.5 368 288.5 388.5> 795 116<322 447 349 420 546 617 349 520>
VStem: 107 111<129 154.5>
LayerCount: 2
Fore
SplineSet
322 795 m 1
 349 911 l 1
 447 911 l 1
 420 795 l 1
 322 795 l 1
520 795 m 1
 546 911 l 1
 645 911 l 1
 617 795 l 1
 520 795 l 1
334 685 m 1
 227 225 l 2
 222 203 218 179 218 156 c 0
 218 102 257 86 320 86 c 0
 416 86 448 131 469 222 c 2
 576 685 l 1
 688 685 l 1
 581 222 l 2
 544 62 467 -11 310 -11 c 0
 188 -11 107 35 107 139 c 0
 107 170 113 211 119 241 c 2
 222 685 l 1
 334 685 l 1
EndSplineSet
Position2: "'cpsp' Capital Spacing in Lateinisch lookup 0 subtable" dx=5 dy=0 dh=10 dv=0
EndChar

StartChar: Ugrave
Encoding: 217 217 115
Width: 594
Flags: MW
HStem: -11 97<288.5 368 288.5 388.5>
VStem: 107 111<129 154.5>
LayerCount: 2
Fore
SplineSet
390 941 m 1
 596 849 l 1
 547 765 l 1
 337 846 l 1
 390 941 l 1
334 685 m 1
 227 225 l 2
 222 203 218 179 218 156 c 0
 218 102 257 86 320 86 c 0
 416 86 448 131 469 222 c 2
 576 685 l 1
 688 685 l 1
 581 222 l 2
 544 62 467 -11 310 -11 c 0
 188 -11 107 35 107 139 c 0
 107 170 113 211 119 241 c 2
 222 685 l 1
 334 685 l 1
EndSplineSet
Position2: "'cpsp' Capital Spacing in Lateinisch lookup 0 subtable" dx=5 dy=0 dh=10 dv=0
EndChar

StartChar: Uhungarumlaut
Encoding: 368 368 116
Width: 594
Flags: MW
HStem: -11 97<288.5 368 288.5 388.5>
VStem: 107 111<129 154.5>
LayerCount: 2
Fore
SplineSet
577 746 m 1
 503 782 l 1
 636 951 l 1
 719 912 l 1
 577 746 l 1
379 747 m 1
 304 782 l 1
 439 952 l 1
 521 913 l 1
 379 747 l 1
334 685 m 1
 227 225 l 2
 222 203 218 179 218 156 c 0
 218 102 257 86 320 86 c 0
 416 86 448 131 469 222 c 2
 576 685 l 1
 688 685 l 1
 581 222 l 2
 544 62 467 -11 310 -11 c 0
 188 -11 107 35 107 139 c 0
 107 170 113 211 119 241 c 2
 222 685 l 1
 334 685 l 1
EndSplineSet
Position2: "'cpsp' Capital Spacing in Lateinisch lookup 0 subtable" dx=5 dy=0 dh=10 dv=0
EndChar

StartChar: Umacron
Encoding: 362 362 117
Width: 594
Flags: MW
HStem: -11 97<288.5 368 288.5 388.5> 814 87<316 649 336 628>
VStem: 107 111<129 154.5>
LayerCount: 2
Fore
SplineSet
334 685 m 1
 227 225 l 2
 222 203 218 179 218 156 c 0
 218 102 257 86 320 86 c 0
 416 86 448 131 469 222 c 2
 576 685 l 1
 688 685 l 1
 581 222 l 2
 544 62 467 -11 310 -11 c 0
 188 -11 107 35 107 139 c 0
 107 170 113 211 119 241 c 2
 222 685 l 1
 334 685 l 1
316 814 m 1
 336 901 l 1
 649 901 l 1
 628 814 l 1
 316 814 l 1
EndSplineSet
Position2: "'cpsp' Capital Spacing in Lateinisch lookup 0 subtable" dx=5 dy=0 dh=10 dv=0
EndChar

StartChar: Uogonek
Encoding: 370 370 118
Width: 597
Flags: MW
HStem: -210 96<243.5 330> -9 21G -9 95
VStem: 108 111<129 154.5> 190 171.5
LayerCount: 2
Fore
SplineSet
335 685 m 1xd0
 228 225 l 2
 223 203 219 179 219 156 c 0xb0
 219 102 258 86 321 86 c 0
 417 86 449 131 470 222 c 2
 577 685 l 1
 689 685 l 1
 582 222 l 2
 550 85 490 12 375 -6 c 1
 348 -29 307 -72 307 -97 c 0
 307 -107 312 -114 325 -114 c 0
 335 -114 367 -110 367 -110 c 1
 356 -200 l 1
 356 -200 305 -210 268 -210 c 0
 219 -210 190 -185 190 -139 c 0xa8
 190 -93 235 -42 272 -9 c 1
 172 0 108 46 108 139 c 0
 108 170 114 211 120 241 c 2
 223 685 l 1
 335 685 l 1xd0
EndSplineSet
Position2: "'cpsp' Capital Spacing in Lateinisch lookup 0 subtable" dx=5 dy=0 dh=10 dv=0
EndChar

StartChar: Uring
Encoding: 366 366 119
Width: 594
Flags: MW
HStem: -11 97<288.5 368 288.5 388.5> 729 71<464.5 495 464.5 499> 877 71<483 509>
VStem: 107 111<129 154.5> 366 74 538 75
LayerCount: 2
Fore
SplineSet
609 838 m 0
 591 767 536 729 462 729 c 0
 394 729 351 766 370 838 c 0
 389 913 446 948 516 948 c 0
 582 948 627 916 609 838 c 0
440 838 m 0
 436 816 449 800 480 800 c 0
 510 800 532 814 538 838 c 0
 544 866 520 877 498 877 c 0
 468 877 447 862 440 838 c 0
334 685 m 1
 227 225 l 2
 222 203 218 179 218 156 c 0
 218 102 257 86 320 86 c 0
 416 86 448 131 469 222 c 2
 576 685 l 1
 688 685 l 1
 581 222 l 2
 544 62 467 -11 310 -11 c 0
 188 -11 107 35 107 139 c 0
 107 170 113 211 119 241 c 2
 222 685 l 1
 334 685 l 1
EndSplineSet
Position2: "'cpsp' Capital Spacing in Lateinisch lookup 0 subtable" dx=5 dy=0 dh=10 dv=0
EndChar

StartChar: Utilde
Encoding: 360 360 120
Width: 594
Flags: MW
HStem: -11 97<288.5 368 288.5 388.5> 789 96<550.5 565.5> 837 96<398 414.5>
VStem: 107 111<129 154.5>
LayerCount: 2
Fore
SplineSet
649 926 m 1xd0
 651 850 l 1
 651 850 588 789 543 789 c 0xd0
 496 789 432 837 397 837 c 0
 374 837 312 794 312 794 c 1
 309 870 l 1
 309 870 376 933 420 933 c 0xb0
 475 933 537 885 564 885 c 0
 587 885 649 926 649 926 c 1xd0
334 685 m 1
 227 225 l 2
 222 203 218 179 218 156 c 0
 218 102 257 86 320 86 c 0
 416 86 448 131 469 222 c 2
 576 685 l 1
 688 685 l 1
 581 222 l 2
 544 62 467 -11 310 -11 c 0
 188 -11 107 35 107 139 c 0
 107 170 113 211 119 241 c 2
 222 685 l 1
 334 685 l 1
EndSplineSet
Position2: "'cpsp' Capital Spacing in Lateinisch lookup 0 subtable" dx=5 dy=0 dh=10 dv=0
EndChar

StartChar: V
Encoding: 86 86 121
Width: 551
Flags: MW
HStem: 0 97<274 312 274 373>
VStem: 173 107
LayerCount: 2
Fore
SplineSet
578 685 m 1
 690 685 l 1
 373 0 l 1
 171 0 l 1
 175 685 l 1
 286 685 l 1
 274 97 l 1
 312 97 l 1
 578 685 l 1
EndSplineSet
Position2: "'cpsp' Capital Spacing in Lateinisch lookup 0 subtable" dx=5 dy=0 dh=10 dv=0
EndChar

StartChar: W
Encoding: 87 87 122
Width: 849
Flags: MW
HStem: 0 103<253 273 253 326 613 632>
VStem: 532.5 94
LayerCount: 2
Fore
SplineSet
179 685 m 1
 291 685 l 1
 253 103 l 1
 273 103 l 1
 518 675 l 1
 640 675 l 1
 613 103 l 1
 632 103 l 1
 873 685 l 1
 984 685 l 1
 690 0 l 1
 519 0 l 1
 546 527 l 1
 326 0 l 1
 150 0 l 1
 179 685 l 1
EndSplineSet
Position2: "'cpsp' Capital Spacing in Lateinisch lookup 0 subtable" dx=5 dy=0 dh=10 dv=0
EndChar

StartChar: Wacute
Encoding: 7810 7810 123
Width: 849
Flags: MW
HStem: 0 103<253 273 253 326 613 632>
VStem: 532.5 94
LayerCount: 2
Fore
SplineSet
503 774 m 1
 494 859 l 1
 742 951 l 1
 752 854 l 1
 503 774 l 1
179 685 m 1
 291 685 l 1
 253 103 l 1
 273 103 l 1
 518 675 l 1
 640 675 l 1
 613 103 l 1
 632 103 l 1
 873 685 l 1
 984 685 l 1
 690 0 l 1
 519 0 l 1
 546 527 l 1
 326 0 l 1
 150 0 l 1
 179 685 l 1
EndSplineSet
Position2: "'cpsp' Capital Spacing in Lateinisch lookup 0 subtable" dx=5 dy=0 dh=10 dv=0
EndChar

StartChar: Wcircumflex
Encoding: 372 372 124
Width: 849
Flags: MW
HStem: 0 103<253 273 253 326 613 632> 784 146<432 665 662 662 662 665 602 761>
VStem: 532.5 94
LayerCount: 2
Fore
SplineSet
432 784 m 1
 602 930 l 1
 665 930 l 1
 761 784 l 1
 662 784 l 1
 624 850 l 1
 547 784 l 1
 432 784 l 1
179 685 m 1
 291 685 l 1
 253 103 l 1
 273 103 l 1
 518 675 l 1
 640 675 l 1
 613 103 l 1
 632 103 l 1
 873 685 l 1
 984 685 l 1
 690 0 l 1
 519 0 l 1
 546 527 l 1
 326 0 l 1
 150 0 l 1
 179 685 l 1
EndSplineSet
Position2: "'cpsp' Capital Spacing in Lateinisch lookup 0 subtable" dx=5 dy=0 dh=10 dv=0
EndChar

StartChar: Wdieresis
Encoding: 7812 7812 125
Width: 849
Flags: MW
HStem: 0 103<253 273 253 326 613 632> 799 117<457 574 484 546 678 739 484 651>
VStem: 532.5 94
LayerCount: 2
Fore
SplineSet
457 799 m 1
 484 916 l 1
 574 916 l 1
 546 799 l 1
 457 799 l 1
651 799 m 1
 678 916 l 1
 768 916 l 1
 739 799 l 1
 651 799 l 1
179 685 m 1
 291 685 l 1
 253 103 l 1
 273 103 l 1
 518 675 l 1
 640 675 l 1
 613 103 l 1
 632 103 l 1
 873 685 l 1
 984 685 l 1
 690 0 l 1
 519 0 l 1
 546 527 l 1
 326 0 l 1
 150 0 l 1
 179 685 l 1
EndSplineSet
Position2: "'cpsp' Capital Spacing in Lateinisch lookup 0 subtable" dx=5 dy=0 dh=10 dv=0
EndChar

StartChar: Wgrave
Encoding: 7808 7808 126
Width: 849
Flags: MW
HStem: 0 103<253 273 253 326 613 632>
VStem: 532.5 94
LayerCount: 2
Fore
SplineSet
513 941 m 1
 719 849 l 1
 670 765 l 1
 460 846 l 1
 513 941 l 1
179 685 m 1
 291 685 l 1
 253 103 l 1
 273 103 l 1
 518 675 l 1
 640 675 l 1
 613 103 l 1
 632 103 l 1
 873 685 l 1
 984 685 l 1
 690 0 l 1
 519 0 l 1
 546 527 l 1
 326 0 l 1
 150 0 l 1
 179 685 l 1
EndSplineSet
Position2: "'cpsp' Capital Spacing in Lateinisch lookup 0 subtable" dx=5 dy=0 dh=10 dv=0
EndChar

StartChar: X
Encoding: 88 88 127
Width: 517
Flags: MW
HStem: 0 21G<6 125 6 6 390 506 390 390>
VStem: 6 660
LayerCount: 2
Fore
SplineSet
291 685 m 1
 357 425 l 1
 547 685 l 1
 666 685 l 1
 404 343 l 1
 506 0 l 1
 390 0 l 1
 319 262 l 1
 125 0 l 1
 6 0 l 1
 272 345 l 1
 173 685 l 1
 291 685 l 1
EndSplineSet
Position2: "'cpsp' Capital Spacing in Lateinisch lookup 0 subtable" dx=5 dy=0 dh=10 dv=0
EndChar

StartChar: Y
Encoding: 89 89 128
Width: 499
Flags: MW
HStem: 0 21G<194 298 194 194>
VStem: 163 489<685 685>
LayerCount: 2
Fore
SplineSet
652 685 m 1
 367 291 l 1
 298 0 l 1
 194 0 l 1
 263 298 l 1
 163 685 l 1
 276 685 l 1
 338 395 l 1
 534 685 l 1
 652 685 l 1
EndSplineSet
Position2: "'cpsp' Capital Spacing in Lateinisch lookup 0 subtable" dx=5 dy=0 dh=10 dv=0
EndChar

StartChar: Yacute
Encoding: 221 221 129
Width: 499
Flags: MW
HStem: 0 21G<194 298 194 194>
VStem: 163 489<685 685>
LayerCount: 2
Fore
SplineSet
345 774 m 1
 336 859 l 1
 584 951 l 1
 594 854 l 1
 345 774 l 1
652 685 m 1
 367 291 l 1
 298 0 l 1
 194 0 l 1
 263 298 l 1
 163 685 l 1
 276 685 l 1
 338 395 l 1
 534 685 l 1
 652 685 l 1
EndSplineSet
Position2: "'cpsp' Capital Spacing in Lateinisch lookup 0 subtable" dx=5 dy=0 dh=10 dv=0
EndChar

StartChar: Ycircumflex
Encoding: 374 374 130
Width: 499
Flags: MW
HStem: 0 21G<194 298 194 194> 784 146<261 494 491 491 491 494 431 590>
VStem: 163 489<685 685>
LayerCount: 2
Fore
SplineSet
261 784 m 1
 431 930 l 1
 494 930 l 1
 590 784 l 1
 491 784 l 1
 453 850 l 1
 376 784 l 1
 261 784 l 1
652 685 m 1
 367 291 l 1
 298 0 l 1
 194 0 l 1
 263 298 l 1
 163 685 l 1
 276 685 l 1
 338 395 l 1
 534 685 l 1
 652 685 l 1
EndSplineSet
Position2: "'cpsp' Capital Spacing in Lateinisch lookup 0 subtable" dx=5 dy=0 dh=10 dv=0
EndChar

StartChar: Ydieresis
Encoding: 376 376 131
Width: 499
Flags: MW
HStem: 0 21G<194 298 194 194> 799 117<283 400 310 372 504 565 310 477>
VStem: 163 489<685 685>
LayerCount: 2
Fore
SplineSet
283 799 m 1
 310 916 l 1
 400 916 l 1
 372 799 l 1
 283 799 l 1
477 799 m 1
 504 916 l 1
 594 916 l 1
 565 799 l 1
 477 799 l 1
652 685 m 1
 367 291 l 1
 298 0 l 1
 194 0 l 1
 263 298 l 1
 163 685 l 1
 276 685 l 1
 338 395 l 1
 534 685 l 1
 652 685 l 1
EndSplineSet
Position2: "'cpsp' Capital Spacing in Lateinisch lookup 0 subtable" dx=5 dy=0 dh=10 dv=0
EndChar

StartChar: Ygrave
Encoding: 7922 7922 132
Width: 499
Flags: MW
HStem: 0 21G<194 298 194 194>
VStem: 163 489<685 685>
LayerCount: 2
Fore
SplineSet
340 941 m 1
 546 849 l 1
 497 765 l 1
 287 846 l 1
 340 941 l 1
652 685 m 1
 367 291 l 1
 298 0 l 1
 194 0 l 1
 263 298 l 1
 163 685 l 1
 276 685 l 1
 338 395 l 1
 534 685 l 1
 652 685 l 1
EndSplineSet
Position2: "'cpsp' Capital Spacing in Lateinisch lookup 0 subtable" dx=5 dy=0 dh=10 dv=0
EndChar

StartChar: Z
Encoding: 90 90 133
Width: 492
Flags: MW
HStem: 0 97<184 454> 588 97<173 613 196 463>
VStem: 37 576
LayerCount: 2
Fore
SplineSet
173 588 m 1
 196 685 l 1
 613 685 l 1
 585 562 l 1
 190 122 l 1
 184 97 l 1
 477 97 l 1
 454 0 l 1
 37 0 l 1
 64 121 l 1
 457 563 l 1
 463 588 l 1
 173 588 l 1
EndSplineSet
Position2: "'cpsp' Capital Spacing in Lateinisch lookup 0 subtable" dx=5 dy=0 dh=10 dv=0
EndChar

StartChar: Zacute
Encoding: 377 377 134
Width: 492
Flags: MW
HStem: 0 97<184 454> 588 97<173 613 196 463>
VStem: 37 576
LayerCount: 2
Fore
SplineSet
324 774 m 1
 315 859 l 1
 563 951 l 1
 573 854 l 1
 324 774 l 1
173 588 m 1
 196 685 l 1
 613 685 l 1
 585 562 l 1
 190 122 l 1
 184 97 l 1
 477 97 l 1
 454 0 l 1
 37 0 l 1
 64 121 l 1
 457 563 l 1
 463 588 l 1
 173 588 l 1
EndSplineSet
Position2: "'cpsp' Capital Spacing in Lateinisch lookup 0 subtable" dx=5 dy=0 dh=10 dv=0
EndChar

StartChar: Zcaron
Encoding: 381 381 135
Width: 492
Flags: MW
HStem: 0 97<184 454> 588 97<173 613 196 463> 781 145<388 400 293 461 388 388>
VStem: 37 582
LayerCount: 2
Fore
SplineSet
619 926 m 1
 461 781 l 1
 388 781 l 1
 293 926 l 1
 400 926 l 1
 442 858 l 1
 512 926 l 1
 619 926 l 1
173 588 m 1
 196 685 l 1
 613 685 l 1
 585 562 l 1
 190 122 l 1
 184 97 l 1
 477 97 l 1
 454 0 l 1
 37 0 l 1
 64 121 l 1
 457 563 l 1
 463 588 l 1
 173 588 l 1
EndSplineSet
Position2: "'cpsp' Capital Spacing in Lateinisch lookup 0 subtable" dx=5 dy=0 dh=10 dv=0
EndChar

StartChar: Zdotaccent
Encoding: 379 379 136
Width: 492
Flags: MW
HStem: 0 97<184 454> 588 97<173 613 196 463> 796 118<378 500 405 472>
VStem: 37 576
LayerCount: 2
Fore
SplineSet
378 796 m 1
 405 914 l 1
 500 914 l 1
 472 796 l 1
 378 796 l 1
173 588 m 1
 196 685 l 1
 613 685 l 1
 585 562 l 1
 190 122 l 1
 184 97 l 1
 477 97 l 1
 454 0 l 1
 37 0 l 1
 64 121 l 1
 457 563 l 1
 463 588 l 1
 173 588 l 1
EndSplineSet
Position2: "'cpsp' Capital Spacing in Lateinisch lookup 0 subtable" dx=5 dy=0 dh=10 dv=0
EndChar

StartChar: g
Encoding: 103 103 139
Width: 477
Flags: MW
HStem: -232 91<177 248 177 290> 162 89<269 320 260 344> 411 89<480 572> 422 89<279 338>
VStem: 13 100<-91.5 -61.5> 110 101<297.5 343.5 297.5 365.5> 121 98<108 116> 355 103<-84.5 -35> 389 100<330 365 304 376>
LayerCount: 2
Fore
SplineSet
213 -232 m 0xe9
 93 -232 13 -191 13 -98 c 0xe9
 13 -25 83 17 139 45 c 1
 126 58 121 72 121 94 c 0xe3
 121 138 179 190 179 190 c 1
 136 213 110 248 110 313 c 0
 110 418 187 511 315 511 c 0xd480
 365 511 425 494 425 494 c 1
 572 500 l 1
 551 411 l 1
 480 411 l 1
 485 398 489 378 489 352 c 0
 489 256 409 162 279 162 c 0
 259 162 241 167 241 167 c 1
 241 167 219 138 219 118 c 0xe280
 219 98 244 93 312 83 c 0
 394 72 458 45 458 -40 c 0
 458 -149 367 -232 213 -232 c 0xe9
274 -2 m 0
 235 4 204 9 188 13 c 1
 156 -3 113 -38 113 -73 c 0
 113 -110 141 -141 213 -141 c 0
 283 -141 355 -117 355 -52 c 0
 355 -18 328 -10 274 -2 c 0
287 251 m 0xd480
 353 251 389 306 389 354 c 0
 389 398 366 422 310 422 c 0
 248 422 211 369 211 318 c 0
 211 277 233 251 287 251 c 0xd480
EndSplineSet
EndChar

StartChar: h
Encoding: 104 104 140
Width: 507
Flags: MW
HStem: 0 21G<60 168 60 60 344 344 344 452> 417 94<373 386.5> 688 20G<223 331 331 331>
VStem: 418 112<358 372.5>
LayerCount: 2
Fore
SplineSet
168 0 m 1
 60 0 l 1
 223 708 l 1
 331 708 l 1
 269 435 l 1
 269 435 336 511 410 511 c 0
 496 511 530 453 530 377 c 0
 530 339 517 281 509 248 c 2
 452 0 l 1
 344 0 l 1
 400 241 l 2
 407 269 418 324 418 352 c 0
 418 393 407 417 366 417 c 0
 320 417 245 334 245 334 c 1
 168 0 l 1
EndSplineSet
EndChar

StartChar: s
Encoding: 115 115 141
Width: 431
Flags: MW
HStem: -11 92<195 259 195 278> 418 92<279 338.5>
VStem: 113 109<334.5 367 334.5 381> 326 110<131 167.5>
LayerCount: 2
Fore
SplineSet
490 484 m 1
 470 403 l 1
 470 403 371 418 306 418 c 0
 252 418 222 386 222 348 c 0
 222 321 240 312 302 294 c 0
 388 269 436 251 436 175 c 0
 436 49 341 -11 215 -11 c 0
 126 -11 48 18 48 18 c 1
 68 99 l 1
 68 99 163 81 227 81 c 0
 291 81 326 108 326 154 c 0
 326 181 303 189 249 203 c 0
 165 225 113 251 113 321 c 0
 113 441 207 510 317 510 c 0
 411 510 490 484 490 484 c 1
EndSplineSet
EndChar

StartChar: endash
Encoding: 8211 8211 143
Width: 556
Flags: MW
HStem: 220 93<90 590 90 590>
VStem: 90 500<220 313 220 313>
LayerCount: 2
Fore
SplineSet
90 313 m 1
 590 313 l 1
 590 220 l 1
 90 220 l 1
 90 313 l 1
EndSplineSet
Substitution2: "'case' Case-Sensitive Forms in Lateinisch lookup 4 subtable" endash.cap
EndChar

StartChar: dollar
Encoding: 36 36 144
Width: 560
Flags: MW
HStem: -11 94<288 289 289 331.5 288 362> 0 21G<181 181> 581 91<379 416 416 423.5 345 427> 659 21G<533 533>
VStem: 188 109<453 505 453 522> 423 110<163.5 223>
LayerCount: 2
Fore
SplineSet
608 640 m 1x9c
 588 563 l 1
 588 563 545 570 498 575 c 1
 412 375 l 1
 505 334 533 300 533 218 c 0
 533 71 436 -11 288 -11 c 0
 275 -11 261 -10 248 -9 c 1x9c
 202 -119 l 1
 131 -119 l 1
 181 0 l 1
 129 10 91 23 91 23 c 1
 109 101 l 1
 109 101 163 92 218 87 c 1
 309 302 l 1
 226 338 188 374 188 459 c 0
 188 585 275 672 415 672 c 0
 432 672 448 671 465 669 c 1x6c
 510 776 l 1
 583 776 l 1
 533 659 l 1
 577 650 608 640 608 640 c 1x9c
423 206 m 0
 423 240 413 256 370 276 c 1
 288 83 l 1
 289 83 l 2
 374 83 423 121 423 206 c 0
297 470 m 0
 297 436 308 420 351 400 c 1
 427 581 l 1
 416 581 l 2xac
 342 581 297 540 297 470 c 0
EndSplineSet
EndChar

StartChar: exclam
Encoding: 33 33 145
Width: 174
Flags: MW
HStem: 0 135<33 174 64 143>
VStem: 33 273
LayerCount: 2
Fore
SplineSet
92 246 m 1
 192 700 l 1
 306 700 l 1
 193 246 l 1
 92 246 l 1
33 0 m 1
 64 135 l 1
 174 135 l 1
 143 0 l 1
 33 0 l 1
EndSplineSet
EndChar

StartChar: summation
Encoding: 8721 8721 146
Width: 560
Flags: MW
HStem: -172 97<221 590 221 590> 659 98<221 590 221 221>
VStem: 103 118<-75 -55 -75 -50 -75 -50 641 659>
LayerCount: 2
Fore
SplineSet
353 302 m 1
 103 635 l 1
 103 757 l 1
 590 757 l 1
 590 659 l 1
 221 659 l 1
 221 641 l 1
 454 340 l 1
 454 263 l 1
 221 -55 l 1
 221 -75 l 1
 590 -75 l 1
 590 -172 l 1
 103 -172 l 1
 103 -50 l 1
 353 302 l 1
EndSplineSet
EndChar

StartChar: a
Encoding: 97 97 147
Width: 516
Flags: MW
HStem: -11 93<231.5 260> -2 21G<358 358> 419 92<291.5 357.5>
VStem: 84 110<132.5 209 132.5 228.5>
LayerCount: 2
Fore
SplineSet
219 -11 m 0xb0
 123 -11 84 58 84 156 c 0
 84 301 161 511 337 511 c 0
 406 511 567 482 567 482 c 1
 492 158 l 2
 478 95 465 2 465 2 c 1
 358 -2 l 1x70
 358 -2 369 70 373 89 c 1
 373 89 301 -11 219 -11 c 0xb0
340 419 m 0
 243 419 194 262 194 156 c 0
 194 109 208 82 255 82 c 0
 306 82 392 189 392 189 c 1
 443 404 l 1
 443 404 375 419 340 419 c 0
EndSplineSet
EndChar

StartChar: o
Encoding: 111 111 148
Width: 495
Flags: MW
HStem: -11 92<244.5 315.5 244.5 352.5> 418 92<292.5 363.5>
VStem: 85 108<139 227.5 139 251> 416 108<269.5 357.5>
LayerCount: 2
Fore
SplineSet
337 510 m 0
 456 510 524 455 524 330 c 0
 524 163 435 -11 270 -11 c 0
 152 -11 85 41 85 167 c 0
 85 335 182 510 337 510 c 0
270 81 m 0
 361 81 416 208 416 331 c 0
 416 384 390 418 337 418 c 0
 248 418 193 289 193 166 c 0
 193 112 219 81 270 81 c 0
EndSplineSet
EndChar

StartChar: n
Encoding: 110 110 149
Width: 506
Flags: MW
HStem: 0 21G<60 168 60 60 344 344 344 452> 417 83<175 386> 417 94<372.5 386>
VStem: 418 112<358.5 372.5>
LayerCount: 2
Fore
SplineSet
168 0 m 1xb0
 60 0 l 1
 175 500 l 1
 279 500 l 1
 268 434 l 1xd0
 268 434 335 511 410 511 c 0
 496 511 530 453 530 377 c 0
 530 340 517 281 509 249 c 2
 452 0 l 1
 344 0 l 1
 400 241 l 2
 406 269 418 324 418 352 c 0
 418 393 407 417 365 417 c 0
 318 417 245 334 245 334 c 1
 168 0 l 1xb0
EndSplineSet
EndChar

StartChar: numbersign
Encoding: 35 35 150
Width: 560
Flags: MW
HStem: 0 21G<116 211 116 116 337 432 337 337> 171 92<79 158 56 181 276 379 79 254 497 577> 400 91<136 215 113 238 136 310 333 436 554 634>
VStem: 56 600<171 491>
LayerCount: 2
Fore
SplineSet
577 171 m 1
 475 171 l 1
 432 0 l 1
 337 0 l 1
 379 171 l 1
 254 171 l 1
 211 0 l 1
 116 0 l 1
 158 171 l 1
 56 171 l 1
 79 263 l 1
 181 263 l 1
 215 400 l 1
 113 400 l 1
 136 491 l 1
 238 491 l 1
 281 663 l 1
 376 663 l 1
 333 491 l 1
 459 491 l 1
 502 663 l 1
 597 663 l 1
 554 491 l 1
 656 491 l 1
 634 400 l 1
 531 400 l 1
 497 263 l 1
 600 263 l 1
 577 171 l 1
402 263 m 1
 436 400 l 1
 310 400 l 1
 276 263 l 1
 402 263 l 1
EndSplineSet
EndChar

StartChar: at
Encoding: 64 64 151
Width: 948
Flags: MW
HStem: -204 92<341 477.5> -11 93<468 471> -10 103<746 785 746 797> 419 92<525.5 580.5> 632 92<500 766.5>
VStem: 81 103 307 109 607 108 903 100
LayerCount: 2
Fore
SplineSet
637 724 m 0xde80
 976 724 1043 527 984 296 c 0
 925 62 857 -10 737 -10 c 0xbe80
 682 -10 646 4 630 39 c 1
 590 19 501 -11 441 -11 c 0xde80
 303 -11 295 127 315 231 c 0
 348 402 426 511 568 511 c 0
 610 511 697 498 791 482 c 1
 781 442 718 170 715 130 c 0
 713 100 731 93 761 93 c 0xbf80
 809 93 844 137 885 307 c 0
 929 485 913 632 620 632 c 0
 380 632 257 509 199 268 c 0
 152 70 202 -112 480 -112 c 0
 518 -112 617 -103 617 -103 c 1
 597 -195 l 1
 597 -195 500 -204 455 -204 c 0
 125 -204 42 35 97 268 c 0
 176 600 346 724 637 724 c 0xde80
468 82 m 0
 515 82 573 107 607 126 c 1
 610 160 644 311 666 404 c 1
 642 410 595 419 566 419 c 0xdf80
 485 419 447 336 424 230 c 0
 407 151 415 84 468 82 c 0
EndSplineSet
EndChar

StartChar: ydieresis
Encoding: 255 255 152
Width: 460
Flags: MW
HStem: -215 21G<103 212 103 103> 0 90<135 255> 480 20G<131 238 238 238 448 558 558 558> 609 117<211 336 238 309 435 506 238 409>
VStem: 133 102.5
LayerCount: 2
Fore
SplineSet
211 609 m 1
 238 726 l 1
 336 726 l 1
 309 609 l 1
 211 609 l 1
409 609 m 1
 435 726 l 1
 533 726 l 1
 506 609 l 1
 409 609 l 1
131 500 m 1
 238 500 l 1
 233 90 l 1
 255 90 l 1
 448 500 l 1
 558 500 l 1
 212 -215 l 1
 103 -215 l 1
 211 0 l 1
 135 0 l 1
 131 500 l 1
EndSplineSet
EndChar

StartChar: scaron
Encoding: 353 353 153
Width: 431
Flags: MW
HStem: -11 92<195 259 195 278> 418 92<279 338.5> 580 165<314 330 231 381 314 314>
VStem: 113 109<334.5 367 334.5 381> 326 110<131 167.5>
LayerCount: 2
Fore
SplineSet
490 484 m 1
 470 403 l 1
 470 403 371 418 306 418 c 0
 252 418 222 386 222 348 c 0
 222 321 240 312 302 294 c 0
 388 269 436 251 436 175 c 0
 436 49 341 -11 215 -11 c 0
 126 -11 48 18 48 18 c 1
 68 99 l 1
 68 99 163 81 227 81 c 0
 291 81 326 108 326 154 c 0
 326 181 303 189 249 203 c 0
 165 225 113 251 113 321 c 0
 113 441 207 510 317 510 c 0
 411 510 490 484 490 484 c 1
381 580 m 1
 314 580 l 1
 231 745 l 1
 330 745 l 1
 369 669 l 1
 438 745 l 1
 544 745 l 1
 381 580 l 1
EndSplineSet
EndChar

StartChar: yacute
Encoding: 253 253 154
Width: 460
Flags: MW
HStem: -215 21G<103 212 103 103> 0 90<135 255> 480 20G<131 238 238 238 448 558 558 558> 666 21G<528 528> 671 21G<271 271>
VStem: 133 102.5
LayerCount: 2
Fore
SplineSet
131 500 m 1xec
 238 500 l 1
 233 90 l 1
 255 90 l 1
 448 500 l 1
 558 500 l 1
 212 -215 l 1
 103 -215 l 1
 211 0 l 1
 135 0 l 1
 131 500 l 1xec
280 585 m 1xf4
 271 671 l 1
 519 763 l 1xec
 528 666 l 1
 280 585 l 1xf4
EndSplineSet
EndChar

StartChar: zcaron
Encoding: 382 382 155
Width: 416
Flags: MW
HStem: 0 93<183 379> 407 93<129 496 152 345> 580 165<301 317 218 368 301 301>
VStem: 36 495
LayerCount: 2
Fore
SplineSet
368 580 m 1
 301 580 l 1
 218 745 l 1
 317 745 l 1
 356 669 l 1
 425 745 l 1
 531 745 l 1
 368 580 l 1
129 407 m 1
 152 500 l 1
 496 500 l 1
 474 410 l 1
 183 93 l 1
 403 93 l 1
 379 0 l 1
 36 0 l 1
 55 91 l 1
 345 407 l 1
 129 407 l 1
EndSplineSet
EndChar

StartChar: degree
Encoding: 176 176 156
Width: 560
Flags: MW
HStem: 405 62<382 431.5 382 450> 634 62<382 431.5>
VStem: 260 65<525.5 574.5 525.5 593.5> 491 62<525.5 574.5>
LayerCount: 2
Fore
SplineSet
260 550 m 0
 260 637 320 696 407 696 c 0
 493 696 553 637 553 550 c 0
 553 463 493 405 407 405 c 0
 320 405 260 463 260 550 c 0
325 550 m 0
 325 501 357 467 407 467 c 0
 456 467 491 501 491 550 c 0
 491 599 456 634 407 634 c 0
 357 634 325 599 325 550 c 0
EndSplineSet
EndChar

StartChar: section
Encoding: 167 167 157
Width: 480
Flags: MW
HStem: -171 97<179.5 242.5 179.5 296> 545 98<348 409.5>
VStem: 89 111<213 240.5> 161 106<437.5 482> 326 107<23 30.5> 387 112<240.5 263>
LayerCount: 2
Fore
SplineSet
559 622 m 1xd8
 534 530 l 1
 534 530 432 545 387 545 c 0
 309 545 267 512 267 460 c 0
 267 415 319 407 379 394 c 0
 479 372 499 316 499 274 c 0xd4
 499 207 442 139 416 110 c 1
 431 87 433 71 433 52 c 0
 433 -6 402 -171 190 -171 c 0
 126 -171 24 -151 24 -151 c 1
 55 -60 l 1
 55 -60 154 -74 205 -74 c 0
 280 -74 326 -33 326 10 c 0
 326 51 303 53 211 78 c 0
 120 102 89 140 89 199 c 0xe8
 89 282 155 342 181 361 c 1
 163 379 161 415 161 440 c 0
 161 524 239 643 404 643 c 0
 467 643 559 622 559 622 c 1xd8
312 303 m 0
 283 309 250 318 243 323 c 1
 235 314 200 263 200 227 c 0
 200 199 220 189 264 178 c 0xe8
 297 168 323 160 345 150 c 1
 355 160 387 215 387 249 c 0
 387 277 366 291 312 303 c 0
EndSplineSet
EndChar

StartChar: copyright
Encoding: 169 169 158
Width: 642
Flags: MW
HStem: 155 53<358 483 358 502> 272 79<417.5 450.5 417.5 452> 517 78<416 451> 661 52<359 483>
VStem: 151 54<372 496 372 514> 304 85<407.5 465.5 407.5 494> 637 55<371.5 496>
LayerCount: 2
Fore
SplineSet
151 434 m 0
 151 594 265 713 422 713 c 0
 584 713 692 586 692 434 c 0
 692 277 584 155 420 155 c 0
 266 155 151 277 151 434 c 0
205 434 m 0
 205 310 296 208 420 208 c 0
 546 208 637 309 637 434 c 0
 637 558 545 661 421 661 c 0
 297 661 205 558 205 434 c 0
503 357 m 1
 509 288 l 1
 509 288 477 272 427 272 c 0
 339 272 304 313 304 437 c 0
 304 551 339 595 430 595 c 0
 476 595 509 582 509 582 c 1
 503 510 l 1
 503 510 467 517 435 517 c 0
 397 517 389 494 389 437 c 0
 389 378 400 351 435 351 c 0
 466 351 503 357 503 357 c 1
EndSplineSet
EndChar

StartChar: trademark
Encoding: 8482 8482 159
Width: 693
Flags: MW
HStem: 331 307<216 444 444 513 660 660 660 729> 571 67<216 416 216 290 364 364 364 416>
VStem: 290 74<332 571 332 571> 444 69<331 527 331 638> 660 69<331 527 527 527>
LayerCount: 2
Fore
SplineSet
216 571 m 1x78
 216 638 l 1
 416 638 l 1
 416 571 l 1
 364 571 l 1
 364 332 l 1
 290 332 l 1
 290 571 l 1
 216 571 l 1x78
444 331 m 1
 444 638 l 1
 533 638 l 1x78
 585 458 l 1
 641 638 l 1
 729 638 l 1
 729 331 l 1
 660 331 l 1xb8
 660 527 l 1
 612 349 l 1
 563 349 l 1
 513 527 l 1
 513 331 l 1
 444 331 l 1
EndSplineSet
EndChar

StartChar: registered
Encoding: 174 174 160
Width: 642
Flags: MW
HStem: 155 53<360 483.5 360 502.5> 378 60<385 426 426 427 385 385> 527 61<384 384 384 420> 661 52<359.5 483>
VStem: 151 54<372 496 372 514> 305 80<279 378 279 588> 467 77<468 497> 637 55<371.5 496>
LayerCount: 2
Fore
SplineSet
151 434 m 0
 151 594 265 713 421 713 c 0
 584 713 692 586 692 434 c 0
 692 277 584 155 421 155 c 0
 266 155 151 277 151 434 c 0
205 434 m 0
 205 310 299 208 421 208 c 0
 546 208 637 309 637 434 c 0
 637 558 545 661 421 661 c 0
 298 661 205 558 205 434 c 0
464 279 m 1
 427 378 l 1
 385 378 l 1
 385 279 l 1
 305 279 l 1
 305 588 l 1
 430 588 l 2
 498 588 544 561 544 488 c 0
 544 437 533 412 501 391 c 1
 548 279 l 1
 464 279 l 1
384 527 m 1
 384 438 l 1
 426 438 l 2
 453 438 467 454 467 482 c 0
 467 512 452 527 420 527 c 2
 384 527 l 1
EndSplineSet
EndChar

StartChar: aacute
Encoding: 225 225 161
Width: 516
Flags: MW
HStem: -11 93<231.5 260> -2 21G<358 358> 419 92<291.5 357.5> 666 21G<586 586> 671 21G<329 329>
VStem: 84 110<132.5 209 132.5 228.5>
LayerCount: 2
Fore
SplineSet
219 -11 m 0xac
 123 -11 84 58 84 156 c 0
 84 301 161 511 337 511 c 0
 406 511 567 482 567 482 c 1
 492 158 l 2
 478 95 465 2 465 2 c 1
 358 -2 l 1x6c
 358 -2 369 70 373 89 c 1
 373 89 301 -11 219 -11 c 0xac
340 419 m 0
 243 419 194 262 194 156 c 0
 194 109 208 82 255 82 c 0
 306 82 392 189 392 189 c 1
 443 404 l 1
 443 404 375 419 340 419 c 0
338 585 m 1xb4
 329 671 l 1
 577 763 l 1xac
 586 666 l 1
 338 585 l 1xb4
EndSplineSet
EndChar

StartChar: agrave
Encoding: 224 224 162
Width: 516
Flags: MW
HStem: -11 93<231.5 260> -2 21G<358 358> 419 92<291.5 357.5> 667 21G<552 552> 671 21G<295 295>
VStem: 84 110<132.5 209 132.5 228.5>
LayerCount: 2
Fore
SplineSet
219 -11 m 0xac
 123 -11 84 58 84 156 c 0
 84 301 161 511 337 511 c 0
 406 511 567 482 567 482 c 1
 492 158 l 2
 478 95 465 2 465 2 c 1
 358 -2 l 1x6c
 358 -2 369 70 373 89 c 1
 373 89 301 -11 219 -11 c 0xac
340 419 m 0
 243 419 194 262 194 156 c 0
 194 109 208 82 255 82 c 0
 306 82 392 189 392 189 c 1
 443 404 l 1
 443 404 375 419 340 419 c 0
347 759 m 1
 552 667 l 1
 506 588 l 1xb4
 295 671 l 1
 347 759 l 1
EndSplineSet
EndChar

StartChar: acircumflex
Encoding: 226 226 163
Width: 516
Flags: MW
HStem: -11 93<231.5 260> -2 21G<358 358> 419 92<291.5 357.5> 580 165<224 466 224 466 445 445 445 466 387 553>
VStem: 84 110<132.5 209 132.5 228.5>
LayerCount: 2
Fore
SplineSet
224 580 m 1xb8
 387 745 l 1
 466 745 l 1
 553 580 l 1
 445 580 l 1
 411 654 l 1
 339 580 l 1
 224 580 l 1xb8
219 -11 m 0
 123 -11 84 58 84 156 c 0
 84 301 161 511 337 511 c 0
 406 511 567 482 567 482 c 1
 492 158 l 2
 478 95 465 2 465 2 c 1
 358 -2 l 1x78
 358 -2 369 70 373 89 c 1
 373 89 301 -11 219 -11 c 0
340 419 m 0
 243 419 194 262 194 156 c 0
 194 109 208 82 255 82 c 0
 306 82 392 189 392 189 c 1
 443 404 l 1
 443 404 375 419 340 419 c 0
EndSplineSet
EndChar

StartChar: adieresis
Encoding: 228 228 164
Width: 516
Flags: MW
HStem: -11 93<231.5 260> -2 21G<358 358> 419 92<291.5 357.5> 609 117<252 378 279 350 476 547 279 450>
VStem: 84 110<132.5 209 132.5 228.5>
LayerCount: 2
Fore
SplineSet
252 609 m 1xb8
 279 726 l 1
 378 726 l 1
 350 609 l 1
 252 609 l 1xb8
450 609 m 1
 476 726 l 1
 575 726 l 1
 547 609 l 1
 450 609 l 1
219 -11 m 0
 123 -11 84 58 84 156 c 0
 84 301 161 511 337 511 c 0
 406 511 567 482 567 482 c 1
 492 158 l 2
 478 95 465 2 465 2 c 1
 358 -2 l 1x78
 358 -2 369 70 373 89 c 1
 373 89 301 -11 219 -11 c 0
340 419 m 0
 243 419 194 262 194 156 c 0
 194 109 208 82 255 82 c 0
 306 82 392 189 392 189 c 1
 443 404 l 1
 443 404 375 419 340 419 c 0
EndSplineSet
EndChar

StartChar: atilde
Encoding: 227 227 165
Width: 516
Flags: MW
HStem: -11 93<231.5 260> -2 21G<358 358> 419 92<291.5 357.5> 600 96<498.5 512> 646 95<361 376> 659 21G<596 596>
VStem: 84 110<132.5 209 132.5 228.5>
LayerCount: 2
Fore
SplineSet
219 -11 m 0xa6
 123 -11 84 58 84 156 c 0
 84 301 161 511 337 511 c 0
 406 511 567 482 567 482 c 1
 492 158 l 2
 478 95 465 2 465 2 c 1
 358 -2 l 1x66
 358 -2 369 70 373 89 c 1
 373 89 301 -11 219 -11 c 0xa6
340 419 m 0
 243 419 194 262 194 156 c 0
 194 109 208 82 255 82 c 0
 306 82 392 189 392 189 c 1
 443 404 l 1
 443 404 375 419 340 419 c 0
592 736 m 1xb2
 596 659 l 1xa6
 596 659 534 600 490 600 c 0xb2
 446 600 391 646 361 646 c 0
 336 646 277 605 277 605 c 1
 275 681 l 1
 275 681 339 741 383 741 c 0xaa
 432 741 486 696 511 696 c 0
 533 696 592 736 592 736 c 1xb2
EndSplineSet
EndChar

StartChar: aring
Encoding: 229 229 166
Width: 516
Flags: MW
HStem: -11 93<231.5 260> -2 21G<358 358> 419 92<291.5 357.5> 555 66<411 432.5 411 434.5> 694 68<429 449.5>
VStem: 84 110<132.5 209 132.5 228.5> 330 64
LayerCount: 2
Fore
SplineSet
219 -11 m 0xbe
 123 -11 84 58 84 156 c 0
 84 301 161 511 337 511 c 0
 406 511 567 482 567 482 c 1
 492 158 l 2
 478 95 465 2 465 2 c 1
 358 -2 l 1x7e
 358 -2 369 70 373 89 c 1
 373 89 301 -11 219 -11 c 0xbe
340 419 m 0
 243 419 194 262 194 156 c 0
 194 109 208 82 255 82 c 0
 306 82 392 189 392 189 c 1
 443 404 l 1
 443 404 375 419 340 419 c 0
334 659 m 0
 347 716 394 762 456 762 c 0
 516 762 538 720 527 664 c 0
 516 597 465 555 404 555 c 0
 341 555 319 600 334 659 c 0
394 659 m 0
 389 640 400 621 422 621 c 0
 443 621 461 637 467 658 c 0
 473 678 459 694 440 694 c 0
 418 694 400 679 394 659 c 0
EndSplineSet
EndChar

StartChar: eacute
Encoding: 233 233 167
Width: 470
Flags: MW
HStem: -11 93<253.5 293.5> 209 82<213 242 200 260> 422 88<315.5 371.5> 666 21G<538 538> 671 21G<281 281>
VStem: 85 109<130.5 163.5 130.5 239.5> 414 107<341.5 390.5>
LayerCount: 2
Fore
SplineSet
277 82 m 0xee
 347 82 442 99 442 99 c 1
 431 17 l 1
 431 17 340 -11 247 -11 c 0
 140 -11 85 40 85 151 c 0
 85 328 165 510 357 510 c 0
 457 510 521 471 521 373 c 0
 521 246 432 209 242 209 c 2
 200 209 l 1
 196 194 194 172 194 155 c 0
 194 106 230 82 277 82 c 0xee
213 291 m 1
 260 291 l 2
 370 291 414 311 414 372 c 0
 414 409 391 422 352 422 c 0
 279 422 235 373 213 291 c 1
290 585 m 1xf6
 281 671 l 1
 529 763 l 1xee
 538 666 l 1
 290 585 l 1xf6
EndSplineSet
EndChar

StartChar: egrave
Encoding: 232 232 168
Width: 470
Flags: MW
HStem: -11 93<253.5 293.5> 209 82<213 242 200 260> 422 88<315.5 371.5> 667 21G<465 465> 671 21G<208 208>
VStem: 85 109<130.5 163.5 130.5 239.5> 414 107<341.5 390.5>
LayerCount: 2
Fore
SplineSet
277 82 m 0xee
 347 82 442 99 442 99 c 1
 431 17 l 1
 431 17 340 -11 247 -11 c 0
 140 -11 85 40 85 151 c 0
 85 328 165 510 357 510 c 0
 457 510 521 471 521 373 c 0
 521 246 432 209 242 209 c 2
 200 209 l 1
 196 194 194 172 194 155 c 0
 194 106 230 82 277 82 c 0xee
213 291 m 1
 260 291 l 2
 370 291 414 311 414 372 c 0
 414 409 391 422 352 422 c 0
 279 422 235 373 213 291 c 1
260 759 m 1
 465 667 l 1
 419 588 l 1xf6
 208 671 l 1
 260 759 l 1
EndSplineSet
EndChar

StartChar: ecircumflex
Encoding: 234 234 169
Width: 470
Flags: MW
HStem: -11 93<253.5 293.5> 209 82<213 242 200 260> 422 88<315.5 371.5> 580 165<200 442 200 442 421 421 421 442 362 528>
VStem: 85 109<130.5 163.5 130.5 239.5> 414 107<341.5 390.5>
LayerCount: 2
Fore
SplineSet
200 580 m 1
 362 745 l 1
 442 745 l 1
 528 580 l 1
 421 580 l 1
 386 654 l 1
 315 580 l 1
 200 580 l 1
277 82 m 0
 347 82 442 99 442 99 c 1
 431 17 l 1
 431 17 340 -11 247 -11 c 0
 140 -11 85 40 85 151 c 0
 85 328 165 510 357 510 c 0
 457 510 521 471 521 373 c 0
 521 246 432 209 242 209 c 2
 200 209 l 1
 196 194 194 172 194 155 c 0
 194 106 230 82 277 82 c 0
213 291 m 1
 260 291 l 2
 370 291 414 311 414 372 c 0
 414 409 391 422 352 422 c 0
 279 422 235 373 213 291 c 1
EndSplineSet
EndChar

StartChar: edieresis
Encoding: 235 235 170
Width: 470
Flags: MW
HStem: -11 93<253.5 293.5> 209 82<213 242 200 260> 422 88<315.5 371.5> 609 117<229 354 256 327 453 524 256 427>
VStem: 85 109<130.5 163.5 130.5 239.5> 414 107<341.5 390.5>
LayerCount: 2
Fore
SplineSet
229 609 m 1
 256 726 l 1
 354 726 l 1
 327 609 l 1
 229 609 l 1
427 609 m 1
 453 726 l 1
 552 726 l 1
 524 609 l 1
 427 609 l 1
277 82 m 0
 347 82 442 99 442 99 c 1
 431 17 l 1
 431 17 340 -11 247 -11 c 0
 140 -11 85 40 85 151 c 0
 85 328 165 510 357 510 c 0
 457 510 521 471 521 373 c 0
 521 246 432 209 242 209 c 2
 200 209 l 1
 196 194 194 172 194 155 c 0
 194 106 230 82 277 82 c 0
213 291 m 1
 260 291 l 2
 370 291 414 311 414 372 c 0
 414 409 391 422 352 422 c 0
 279 422 235 373 213 291 c 1
EndSplineSet
EndChar

StartChar: idieresis
Encoding: 239 239 171
Width: 227
Flags: MW
HStem: 0 21G<60 60 60 168> 480 20G<175 283 283 283> 609 117<95 220 122 193 319 390 122 293>
VStem: 60 358
LayerCount: 2
Fore
SplineSet
95 609 m 1
 122 726 l 1
 220 726 l 1
 193 609 l 1
 95 609 l 1
293 609 m 1
 319 726 l 1
 418 726 l 1
 390 609 l 1
 293 609 l 1
60 0 m 1
 175 500 l 1
 283 500 l 1
 168 0 l 1
 60 0 l 1
EndSplineSet
EndChar

StartChar: ntilde
Encoding: 241 241 172
Width: 506
Flags: MW
HStem: 600 96<473.5 487> 646 95<336 351> 659 21G<571 571>
VStem: 60 511
LayerCount: 2
Fore
SplineSet
60 0 m 1x30
 168 0 l 1
 245 334 l 1
 245 334 318 417 365 417 c 0
 407 417 418 393 418 352 c 0
 418 324 406 269 400 241 c 2
 344 0 l 1
 452 0 l 1
 509 249 l 2
 517 281 530 340 530 377 c 0
 530 453 496 511 410 511 c 0
 335 511 268 434 268 434 c 1
 279 500 l 1
 175 500 l 1
 60 0 l 1x30
567 736 m 1x90
 571 659 l 1x30
 571 659 509 600 465 600 c 0x90
 421 600 366 646 336 646 c 0
 311 646 252 605 252 605 c 1
 250 681 l 1
 250 681 314 741 358 741 c 0x50
 407 741 461 696 486 696 c 0
 508 696 567 736 567 736 c 1x90
EndSplineSet
EndChar

StartChar: oacute
Encoding: 243 243 173
Width: 495
Flags: MW
HStem: -11 92<244.5 315.5 244.5 352.5> 418 92<292.5 363.5> 666 21G<539 539> 671 21G<282 282>
VStem: 85 108<139 227.5 139 251> 416 108<269.5 357.5>
LayerCount: 2
Fore
SplineSet
337 510 m 0xdc
 456 510 524 455 524 330 c 0
 524 163 435 -11 270 -11 c 0
 152 -11 85 41 85 167 c 0
 85 335 182 510 337 510 c 0xdc
270 81 m 0
 361 81 416 208 416 331 c 0
 416 384 390 418 337 418 c 0
 248 418 193 289 193 166 c 0
 193 112 219 81 270 81 c 0
291 585 m 1xec
 282 671 l 1
 530 763 l 1xdc
 539 666 l 1
 291 585 l 1xec
EndSplineSet
EndChar

StartChar: ograve
Encoding: 242 242 174
Width: 495
Flags: MW
HStem: -11 92<244.5 315.5 244.5 352.5> 418 92<292.5 363.5> 667 21G<494 494> 671 21G<237 237>
VStem: 85 108<139 227.5 139 251> 416 108<269.5 357.5>
LayerCount: 2
Fore
SplineSet
337 510 m 0xdc
 456 510 524 455 524 330 c 0
 524 163 435 -11 270 -11 c 0
 152 -11 85 41 85 167 c 0
 85 335 182 510 337 510 c 0xdc
270 81 m 0
 361 81 416 208 416 331 c 0
 416 384 390 418 337 418 c 0
 248 418 193 289 193 166 c 0
 193 112 219 81 270 81 c 0
289 759 m 1
 494 667 l 1
 448 588 l 1xec
 237 671 l 1
 289 759 l 1
EndSplineSet
EndChar

StartChar: ocircumflex
Encoding: 244 244 175
Width: 495
Flags: MW
HStem: -11 92<244.5 315.5 244.5 352.5> 418 92<292.5 363.5> 580 165<215 457 215 457 436 436 436 457 378 544>
VStem: 85 108<139 227.5 139 251> 416 108<269.5 357.5>
LayerCount: 2
Fore
SplineSet
215 580 m 1
 378 745 l 1
 457 745 l 1
 544 580 l 1
 436 580 l 1
 402 654 l 1
 330 580 l 1
 215 580 l 1
337 510 m 0
 456 510 524 455 524 330 c 0
 524 163 435 -11 270 -11 c 0
 152 -11 85 41 85 167 c 0
 85 335 182 510 337 510 c 0
270 81 m 0
 361 81 416 208 416 331 c 0
 416 384 390 418 337 418 c 0
 248 418 193 289 193 166 c 0
 193 112 219 81 270 81 c 0
EndSplineSet
EndChar

StartChar: odieresis
Encoding: 246 246 176
Width: 495
Flags: MW
HStem: -11 92<244.5 315.5 244.5 352.5> 418 92<292.5 363.5> 609 117<243 359 270 332 458 520 270 432>
VStem: 85 108<139 227.5 139 251> 416 108<269.5 357.5>
LayerCount: 2
Fore
SplineSet
337 510 m 0
 456 510 524 455 524 330 c 0
 524 163 435 -11 270 -11 c 0
 152 -11 85 41 85 167 c 0
 85 335 182 510 337 510 c 0
270 81 m 0
 361 81 416 208 416 331 c 0
 416 384 390 418 337 418 c 0
 248 418 193 289 193 166 c 0
 193 112 219 81 270 81 c 0
243 609 m 1
 270 726 l 1
 359 726 l 1
 332 609 l 1
 243 609 l 1
432 609 m 1
 458 726 l 1
 548 726 l 1
 520 609 l 1
 432 609 l 1
EndSplineSet
EndChar

StartChar: otilde
Encoding: 245 245 177
Width: 495
Flags: MW
HStem: -11 92<244.5 315.5 244.5 352.5> 418 92<292.5 363.5> 600 96<452.5 466> 646 95<315 330> 659 21G<550 550>
VStem: 85 108<139 227.5 139 251> 416 108<269.5 357.5>
LayerCount: 2
Fore
SplineSet
337 510 m 0xce
 456 510 524 455 524 330 c 0
 524 163 435 -11 270 -11 c 0
 152 -11 85 41 85 167 c 0
 85 335 182 510 337 510 c 0xce
270 81 m 0
 361 81 416 208 416 331 c 0
 416 384 390 418 337 418 c 0
 248 418 193 289 193 166 c 0
 193 112 219 81 270 81 c 0
546 736 m 1xe6
 550 659 l 1xce
 550 659 488 600 444 600 c 0xe6
 400 600 345 646 315 646 c 0
 290 646 231 605 231 605 c 1
 229 681 l 1
 229 681 293 741 337 741 c 0xd6
 386 741 440 696 465 696 c 0
 487 696 546 736 546 736 c 1xe6
EndSplineSet
EndChar

StartChar: uacute
Encoding: 250 250 178
Width: 506
Flags: MW
HStem: -11 94<236.5 249> 0 83<236.5 447 236.5 343> 480 20G<169 277 277 277 454 562 562 562> 666 21G<546 546> 671 21G<289 289>
VStem: 92 112<127.5 141.5>
LayerCount: 2
Fore
SplineSet
454 500 m 1xac
 562 500 l 1
 447 0 l 1
 343 0 l 1x74
 354 66 l 1
 354 66 286 -11 212 -11 c 0
 126 -11 92 47 92 123 c 0
 92 160 105 219 112 251 c 2
 169 500 l 1
 277 500 l 1
 222 259 l 2
 215 231 204 176 204 148 c 0
 204 107 217 83 256 83 c 0
 303 83 377 166 377 166 c 1
 454 500 l 1xac
298 585 m 1
 289 671 l 1
 537 763 l 1xac
 546 666 l 1
 298 585 l 1
EndSplineSet
EndChar

StartChar: ugrave
Encoding: 249 249 179
Width: 506
Flags: MW
HStem: -11 94<236.5 249> 0 83<236.5 447 236.5 343> 480 20G<169 277 277 277 454 562 562 562> 667 21G<497 497> 671 21G<240 240>
VStem: 92 112<127.5 141.5>
LayerCount: 2
Fore
SplineSet
292 759 m 1xac
 497 667 l 1
 451 588 l 1xb4
 240 671 l 1
 292 759 l 1xac
454 500 m 1
 562 500 l 1
 447 0 l 1
 343 0 l 1x6c
 354 66 l 1
 354 66 286 -11 212 -11 c 0
 126 -11 92 47 92 123 c 0
 92 160 105 219 112 251 c 2
 169 500 l 1
 277 500 l 1
 222 259 l 2
 215 231 204 176 204 148 c 0
 204 107 217 83 256 83 c 0
 303 83 377 166 377 166 c 1
 454 500 l 1
EndSplineSet
EndChar

StartChar: ucircumflex
Encoding: 251 251 180
Width: 506
Flags: MW
HStem: -11 94<236.5 249> 0 83<236.5 447 236.5 343> 480 20G<169 277 277 277 454 562 562 562> 580 165<207 449 207 449 428 428 428 449 369 535>
VStem: 92 112<127.5 141.5>
LayerCount: 2
Fore
SplineSet
207 580 m 1xb8
 369 745 l 1
 449 745 l 1
 535 580 l 1
 428 580 l 1
 393 654 l 1
 322 580 l 1
 207 580 l 1xb8
454 500 m 1
 562 500 l 1
 447 0 l 1
 343 0 l 1x78
 354 66 l 1
 354 66 286 -11 212 -11 c 0
 126 -11 92 47 92 123 c 0
 92 160 105 219 112 251 c 2
 169 500 l 1
 277 500 l 1
 222 259 l 2
 215 231 204 176 204 148 c 0
 204 107 217 83 256 83 c 0
 303 83 377 166 377 166 c 1
 454 500 l 1
EndSplineSet
EndChar

StartChar: udieresis
Encoding: 252 252 181
Width: 506
Flags: MW
HStem: -11 94<236.5 249> 0 83<236.5 447 236.5 343> 480 20G<169 277 277 277 454 562 562 562> 609 117<230 355 257 328 454 525 257 428>
VStem: 92 112<127.5 141.5>
LayerCount: 2
Fore
SplineSet
230 609 m 1xb8
 257 726 l 1
 355 726 l 1
 328 609 l 1
 230 609 l 1xb8
428 609 m 1
 454 726 l 1
 552 726 l 1
 525 609 l 1
 428 609 l 1
454 500 m 1
 562 500 l 1
 447 0 l 1
 343 0 l 1x78
 354 66 l 1
 354 66 286 -11 212 -11 c 0
 126 -11 92 47 92 123 c 0
 92 160 105 219 112 251 c 2
 169 500 l 1
 277 500 l 1
 222 259 l 2
 215 231 204 176 204 148 c 0
 204 107 217 83 256 83 c 0
 303 83 377 166 377 166 c 1
 454 500 l 1
EndSplineSet
EndChar

StartChar: minus
Encoding: 8722 8722 182
Width: 560
Flags: MW
HStem: 202 98<121 553 121 553>
VStem: 121 432<202 300 202 300>
LayerCount: 2
Fore
SplineSet
121 202 m 1
 121 300 l 1
 553 300 l 1
 553 202 l 1
 121 202 l 1
EndSplineSet
EndChar

StartChar: multiply
Encoding: 215 215 183
Width: 560
Flags: MW
HStem: 33 435<189 487 486 487>
VStem: 120 435<102 102>
LayerCount: 2
Fore
SplineSet
190 467 m 1
 338 317 l 1
 487 468 l 1
 555 399 l 1
 404 250 l 1
 555 102 l 1
 486 33 l 1
 338 184 l 1
 189 33 l 1
 120 102 l 1
 271 250 l 1
 121 398 l 1
 190 467 l 1
EndSplineSet
EndChar

StartChar: dotlessi
Encoding: 305 305 184
Width: 228
Flags: MW
HStem: 0 21G<60 60 60 168> 480 20G<175 283 283 283>
VStem: 60 223
LayerCount: 2
Fore
SplineSet
60 0 m 1
 175 500 l 1
 283 500 l 1
 168 0 l 1
 60 0 l 1
EndSplineSet
EndChar

StartChar: iacute
Encoding: 237 237 185
Width: 227
Flags: MW
HStem: 0 21G<60 60 60 168> 480 20G<175 283 283 283> 666 21G<435 435> 671 21G<178 178>
VStem: 60 375
LayerCount: 2
Fore
SplineSet
60 0 m 1xd8
 175 500 l 1
 283 500 l 1
 168 0 l 1
 60 0 l 1xd8
187 585 m 1xe8
 178 671 l 1
 426 763 l 1xd8
 435 666 l 1
 187 585 l 1xe8
EndSplineSet
EndChar

StartChar: igrave
Encoding: 236 236 186
Width: 227
Flags: MW
HStem: 0 21G<60 60 60 168> 480 20G<175 283 283 283> 667 21G<331 331> 671 21G<74 74>
VStem: 60 271
LayerCount: 2
Fore
SplineSet
60 0 m 1xd8
 175 500 l 1
 283 500 l 1
 168 0 l 1
 60 0 l 1xd8
126 759 m 1
 331 667 l 1
 285 588 l 1xe8
 74 671 l 1
 126 759 l 1
EndSplineSet
EndChar

StartChar: icircumflex
Encoding: 238 238 187
Width: 227
Flags: MW
HStem: 0 21G<60 60 60 168> 480 20G<175 283 283 283> 580 165<75 317 75 317 296 296 296 317 238 404>
VStem: 60 344
LayerCount: 2
Fore
SplineSet
75 580 m 1
 238 745 l 1
 317 745 l 1
 404 580 l 1
 296 580 l 1
 262 654 l 1
 190 580 l 1
 75 580 l 1
60 0 m 1
 175 500 l 1
 283 500 l 1
 168 0 l 1
 60 0 l 1
EndSplineSet
EndChar

StartChar: germandbls
Encoding: 223 223 188
Width: 553
Flags: MW
HStem: -11 92<323 383.5 323 422.5> 0 21G<59 161 59 59> 626 93<371.5 437.5>
VStem: 312 109<362 386.5 362 389> 458 110<147 187> 492 110<554.5 589.5>
LayerCount: 2
Fore
SplineSet
161 0 m 1x74
 59 0 l 1
 182 524 l 2
 218 674 288 719 419 719 c 0
 540 719 602 670 602 585 c 0x74
 602 514 576 468 508 440 c 0
 445 413 421 400 421 373 c 0
 421 351 433 341 486 307 c 0
 543 271 568 253 568 186 c 0
 568 66 489 -11 356 -11 c 0
 290 -11 210 13 210 13 c 1
 233 94 l 1
 233 94 301 81 345 81 c 0
 422 81 458 122 458 172 c 0xb8
 458 202 448 212 391 246 c 0
 330 282 312 307 312 353 c 0
 312 425 346 457 416 491 c 0
 476 520 492 536 492 573 c 0
 492 606 467 626 408 626 c 0
 335 626 300 593 281 510 c 2
 161 0 l 1x74
EndSplineSet
EndChar

StartChar: ccedilla
Encoding: 231 231 189
Width: 408
Flags: MW
HStem: -221 75<199 221.5 198 252> -91 53<192 254> -8 21G<211 211> 417 94<294 366.5>
VStem: 87 111<146 233 146 249.5> 253 90
LayerCount: 2
Fore
SplineSet
349 511 m 0
 414 511 488 485 488 485 c 1
 460 405 l 1
 460 405 388 417 345 417 c 0
 243 417 198 290 198 176 c 0
 198 116 222 83 285 83 c 0
 327 83 394 94 394 94 c 1
 386 12 l 1
 386 12 320 -9 255 -11 c 1
 248 -38 l 1
 254 -38 l 2
 312 -38 356 -56 340 -124 c 0
 325 -188 284 -221 220 -221 c 0
 178 -221 138 -212 138 -212 c 1
 155 -144 l 1
 155 -144 188 -146 208 -146 c 0
 235 -146 248 -137 253 -117 c 0
 259 -94 243 -91 221 -91 c 2
 192 -91 l 1xfc
 211 -8 l 1
 133 4 87 61 87 153 c 0
 87 346 173 511 349 511 c 0
EndSplineSet
EndChar

StartChar: lslash
Encoding: 322 322 190
Width: 283
Flags: MW
HStem: 0 21G<84 84 84 193> 688 20G<248 356 356 356>
VStem: 57 323<291 395>
LayerCount: 2
Fore
SplineSet
84 0 m 1
 140 245 l 1
 92 215 l 1
 57 291 l 1
 167 359 l 1
 248 708 l 1
 356 708 l 1
 294 438 l 1
 346 470 l 1
 380 395 l 1
 268 325 l 1
 193 0 l 1
 84 0 l 1
EndSplineSet
EndChar

StartChar: eth
Encoding: 240 240 191
Width: 523
Flags: MW
HStem: -9 104<235 314 235 333> 336 99<289.5 356> 688 20G<262 262>
VStem: 77 113 470 108
LayerCount: 2
Fore
SplineSet
384 564 m 1
 276 492 l 1
 238 552 l 1
 302 594 l 1
 276 601 249 608 225 613 c 1
 262 708 l 1
 323 701 375 690 418 672 c 1
 519 740 l 1
 555 679 l 1
 488 634 l 1
 570 574 596 481 565 355 c 0
 505 107 418 -9 248 -9 c 0
 110 -9 58 91 82 199 c 1
 106 337 206 435 339 435 c 0
 406 435 467 407 467 407 c 1
 481 488 441 535 384 564 c 1
323 336 m 0
 256 336 204 278 193 200 c 0
 181 138 197 95 273 95 c 0
 355 95 411 170 445 308 c 0
 443 310 389 336 323 336 c 0
EndSplineSet
EndChar

StartChar: Thorn
Encoding: 222 222 192
Width: 543
Flags: MW
HStem: 0 21G<69 174 69 69> 108.5 109.5 481 108
VStem: 497 108
LayerCount: 2
Fore
SplineSet
348 218 m 2
 425 218 471 272 491 353 c 0
 508 419 493 479 409 480 c 2
 288 482 l 1
 225 218 l 1
 348 218 l 2
323 108 m 2
 199 109 l 1
 174 0 l 1
 69 0 l 1
 232 693 l 1
 338 693 l 1
 312 589 l 1
 434 589 l 2
 573 589 626 483 598 353 c 0
 566 204 466 107 323 108 c 2
EndSplineSet
Position2: "'cpsp' Capital Spacing in Lateinisch lookup 0 subtable" dx=5 dy=0 dh=10 dv=0
EndChar

StartChar: oslash
Encoding: 248 248 193
Width: 495
Flags: MW
HStem: -9 92<264.5 316.5 264.5 353.5> 420 92<293.5 344.5> 479 20G<424 424>
VStem: 86 108<162 229.5 162 253> 417 108<271.5 339>
LayerCount: 2
Fore
SplineSet
338 512 m 0xd8
 370 512 399 507 424 499 c 1xb8
 489 605 l 1
 548 579 l 1
 477 468 l 1
 508 438 525 394 525 332 c 0
 525 165 436 -9 271 -9 c 0
 238 -9 210 -5 186 3 c 1
 117 -109 l 1
 58 -83 l 1
 133 34 l 1
 102 63 86 107 86 169 c 0
 86 337 183 512 338 512 c 0xd8
271 83 m 0
 362 83 417 210 417 333 c 0
 417 345 415 357 412 367 c 1
 329 237 l 1
 238 88 l 1
 247 85 258 83 271 83 c 0
198 135 m 1
 279 263 l 1
 372 414 l 1
 362 418 351 420 338 420 c 0
 249 420 194 291 194 168 c 0
 194 156 195 145 198 135 c 1
EndSplineSet
EndChar

StartChar: zero.pnum
Encoding: 65540 -1 194
Width: 509
Flags: MW
HStem: -8 101<240.5 281.5> 407 102<343 379.5>
VStem: 63 121<151 215> 437 123<298 345>
LayerCount: 2
Fore
SplineSet
374 509 m 0
 501 509 560 454 560 334 c 0
 560 238 521 118 430 49 c 0
 382 13 320 -8 243 -8 c 0
 129 -8 63 46 63 155 c 0
 63 275 115 400 213 465 c 0
 257 494 312 509 374 509 c 0
350 407 m 0
 244 407 184 287 184 178 c 0
 184 124 212 93 269 93 c 0
 418 93 437 284 437 312 c 0
 437 378 409 407 350 407 c 0
EndSplineSet
Substitution2: "'frac' Diagonal Fractions in Lateinisch lookup 1 subtable" zerosuperior
EndChar

StartChar: one.pnum
Encoding: 65541 -1 195
Width: 335
Flags: MW
HStem: 0 21G<182 301 182 182> 480 20G<314 425 425 425>
VStem: 91 334<377 500>
LayerCount: 2
Fore
SplineSet
91 377 m 1
 314 500 l 1
 425 500 l 1
 301 0 l 1
 182 0 l 1
 273 366 l 1
 122 284 l 1
 91 377 l 1
EndSplineSet
Substitution2: "'frac' Diagonal Fractions in Lateinisch lookup 1 subtable" onesuperior
EndChar

StartChar: two.pnum
Encoding: 65542 -1 196
Width: 430
Flags: MW
HStem: 0 104<220 414> 404 105<285 308.5>
VStem: 356 131<346.5 376.5>
LayerCount: 2
Fore
SplineSet
414 0 m 1
 15 0 l 1
 39 99 l 1
 181 197 l 2
 256 248 356 323 356 365 c 0
 356 388 341 404 276 404 c 0
 210 404 118 388 118 387 c 2
 135 484 l 1
 135 484 241 509 329 509 c 0
 446 509 487 453 487 393 c 0
 487 300 430 249 353 196 c 2
 220 104 l 1
 438 104 l 1
 414 0 l 1
EndSplineSet
Substitution2: "'frac' Diagonal Fractions in Lateinisch lookup 1 subtable" twosuperior
EndChar

StartChar: three.pnum
Encoding: 65543 -1 197
Width: 438
Flags: MW
HStem: -9 21G<169.5 305.5> -9 104<193 266 193 305.5> 206 97<161 262 136 287> 406 104<292.5 336.5>
VStem: 348 111<143.5 182> 386 116<355.5 383>
LayerCount: 2
Fore
SplineSet
142 487 m 1x78
 142 487 253 510 332 510 c 0
 468 510 502 457 502 407 c 0x74
 502 304 430 269 388 262 c 1
 434 250 459 219 459 183 c 0
 459 91 396 -9 215 -9 c 0x78
 124 -9 16 13 16 13 c 1xb8
 50 108 l 1
 50 108 158 95 228 95 c 0
 304 95 348 121 348 166 c 0
 348 198 310 206 262 206 c 2x78
 136 206 l 1
 161 303 l 1
 287 303 l 2
 341 303 386 323 386 369 c 0
 386 397 367 406 306 406 c 0x74
 230 406 129 392 129 392 c 1
 142 487 l 1x78
EndSplineSet
Substitution2: "'frac' Diagonal Fractions in Lateinisch lookup 1 subtable" threesuperior
EndChar

StartChar: four.pnum
Encoding: 65544 -1 198
Width: 464
Flags: MW
HStem: 0 189<277 277 277 325 189 388> 91 98<189 300 189 411 436 473> 480 20G<290 419 419 419>
VStem: 32 465<91 189>
LayerCount: 2
Fore
SplineSet
277 0 m 1xb0
 300 91 l 1
 32 91 l 1
 54 175 l 1x70
 290 500 l 1
 419 500 l 1
 189 189 l 1
 325 189 l 1
 353 306 l 1
 465 306 l 1
 436 189 l 1
 497 189 l 1xb0
 473 91 l 1
 411 91 l 1x70
 388 0 l 1
 277 0 l 1xb0
EndSplineSet
Substitution2: "'frac' Diagonal Fractions in Lateinisch lookup 1 subtable" foursuperior
EndChar

StartChar: five.pnum
Encoding: 65545 -1 199
Width: 460
Flags: MW
HStem: -9 99<214 285 214 317.5> 225 94<289 314.5> 394 106<245 514 245 245>
VStem: 368 116<147.5 190.5>
LayerCount: 2
Fore
SplineSet
171 500 m 1
 540 500 l 1
 514 394 l 1
 245 394 l 1
 207 298 l 1
 207 298 264 319 314 319 c 0
 415 319 484 287 484 189 c 0
 484 71 399 -9 236 -9 c 0
 153 -9 20 20 20 20 c 1
 55 118 l 1
 55 118 178 90 250 90 c 0
 320 90 368 121 368 174 c 0
 368 207 347 225 282 225 c 0
 235 225 161 200 161 200 c 1
 81 218 l 1
 171 500 l 1
EndSplineSet
Substitution2: "'frac' Diagonal Fractions in Lateinisch lookup 1 subtable" fivesuperior
EndChar

StartChar: six.pnum
Encoding: 65546 -1 200
Width: 467
Flags: MW
HStem: -10 89<221.5 310 221.5 329.5> 227 90<307.5 332> 413 97<316 398>
VStem: 65 108<141 166 141 251> 382 110<161.5 194.5>
LayerCount: 2
Fore
SplineSet
543 485 m 1
 511 398 l 1
 511 398 436 413 360 413 c 0
 272 413 223 377 199 286 c 1
 228 301 283 317 332 317 c 0
 453 317 492 273 492 198 c 0
 492 86 424 -10 235 -10 c 0
 115 -10 65 59 65 153 c 0
 65 349 177 510 371 510 c 0
 443 510 543 485 543 485 c 1
300 227 m 0
 237 227 177 199 177 199 c 1
 175 189 173 172 173 160 c 0
 173 122 184 79 259 79 c 0
 361 79 382 143 382 180 c 0
 382 209 364 227 300 227 c 0
EndSplineSet
Substitution2: "'frac' Diagonal Fractions in Lateinisch lookup 1 subtable" sixsuperior
EndChar

StartChar: seven.pnum
Encoding: 65547 -1 201
Width: 405
Flags: MW
HStem: 401 100<102 509 128 364>
VStem: 79 430
LayerCount: 2
Fore
SplineSet
102 401 m 1
 128 501 l 1
 509 501 l 1
 476 364 l 1
 170 -21 l 1
 79 30 l 1
 356 372 l 1
 364 401 l 1
 102 401 l 1
EndSplineSet
Substitution2: "'frac' Diagonal Fractions in Lateinisch lookup 1 subtable" sevensuperior
EndChar

StartChar: eight.pnum
Encoding: 65548 -1 202
Width: 483
Flags: MW
HStem: -10 102<225.5 309 225.5 336> 212 95<269 333 245 357> 414 95<287 371>
VStem: 44 124<122.5 143.5> 113 118<339 356.5 339 388.5> 383 118<150.5 182> 426 123<367 386.5>
LayerCount: 2
Fore
SplineSet
363 509 m 0xea
 488 509 549 459 549 399 c 0xea
 549 335 507 289 439 264 c 1
 487 235 501 201 501 170 c 0
 501 79 438 -10 234 -10 c 0
 111 -10 44 38 44 103 c 0xf4
 44 184 98 235 168 264 c 1
 119 296 113 329 113 348 c 0
 113 429 194 509 363 509 c 0xea
260 92 m 0xf4
 358 92 383 130 383 171 c 0
 383 193 367 205 333 212 c 1
 245 212 l 1
 196 203 168 173 168 135 c 0
 168 110 191 92 260 92 c 0xf4
338 414 m 0xea
 236 414 231 366 231 347 c 0
 231 331 237 318 269 307 c 1
 357 307 l 1
 403 321 426 341 426 375 c 0
 426 398 404 414 338 414 c 0xea
EndSplineSet
Substitution2: "'frac' Diagonal Fractions in Lateinisch lookup 1 subtable" eightsuperior
EndChar

StartChar: nine.pnum
Encoding: 65549 -1 203
Width: 464
Flags: MW
HStem: -10 98<182 264.5 182 306> 186 90<248.5 274> 422 88<270 358.5>
VStem: 89 109<309 341 309 351.5> 408 107<334 359>
LayerCount: 2
Fore
SplineSet
37 15 m 1
 69 103 l 1
 69 103 144 88 220 88 c 0
 309 88 361 128 383 217 c 1
 348 202 299 186 249 186 c 0
 128 186 89 232 89 305 c 0
 89 398 161 510 345 510 c 0
 465 510 515 441 515 347 c 0
 515 149 403 -10 209 -10 c 0
 137 -10 37 15 37 15 c 1
281 276 m 0
 343 276 404 304 404 304 c 1
 406 313 408 328 408 340 c 0
 408 378 396 422 321 422 c 0
 219 422 198 360 198 322 c 0
 198 296 216 276 281 276 c 0
EndSplineSet
Substitution2: "'frac' Diagonal Fractions in Lateinisch lookup 1 subtable" ninesuperior
EndChar

StartChar: brokenbar
Encoding: 166 166 204
Width: 327
Flags: MW
HStem: -215 21G<166 275 166 166> 688 20G<166 275 275 275>
VStem: 166 109<-215 164 -215 164 335 708>
LayerCount: 2
Fore
SplineSet
166 708 m 1
 275 708 l 1
 275 335 l 1
 166 335 l 1
 166 708 l 1
166 164 m 1
 275 164 l 1
 275 -215 l 1
 166 -215 l 1
 166 164 l 1
EndSplineSet
EndChar

StartChar: plusminus
Encoding: 177 177 205
Width: 560
Flags: MW
HStem: 27 98<101 556 101 556> 280 98<101 278 101 278 376 556>
VStem: 278 98<168 280 168 280 378 493>
LayerCount: 2
Fore
SplineSet
101 280 m 1
 101 378 l 1
 278 378 l 1
 278 493 l 1
 376 493 l 1
 376 378 l 1
 556 378 l 1
 556 280 l 1
 376 280 l 1
 376 168 l 1
 278 168 l 1
 278 280 l 1
 101 280 l 1
101 125 m 1
 556 125 l 1
 556 27 l 1
 101 27 l 1
 101 125 l 1
EndSplineSet
EndChar

StartChar: pi
Encoding: 960 960 206
Width: 560
Flags: MW
HStem: -7 92<554.5 586 554.5 586> 0 21G<149 258 149 149> 407 93<157.5 474 285 401 285 285>
VStem: 401 108<154 407 407 407>
LayerCount: 2
Fore
SplineSet
401 154 m 2xb0
 401 407 l 1
 285 407 l 1
 258 0 l 1
 149 0 l 1x70
 180 407 l 1
 135 407 84 394 84 394 c 1
 84 483 l 1
 84 483 146 500 230 500 c 2
 474 500 l 2
 538 500 593 513 593 513 c 1
 593 423 l 1
 593 423 567 412 509 409 c 1
 509 154 l 2
 509 103 523 85 586 85 c 1
 586 -7 l 1
 426 -7 401 23 401 154 c 2xb0
EndSplineSet
EndChar

StartChar: bullet
Encoding: 8226 8226 207
Width: 470
Flags: MW
HStem: 103 282<166 416 166 416>
VStem: 166 250<103 385 103 385>
LayerCount: 2
Fore
SplineSet
166 103 m 1
 166 385 l 1
 416 385 l 1
 416 103 l 1
 166 103 l 1
EndSplineSet
EndChar

StartChar: ordfeminine
Encoding: 170 170 208
Width: 335
Flags: MW
HStem: 332 68<355 412> 333 73<159 249> 472 59 582 77<284 307>
VStem: 113 96 330 99
LayerCount: 2
Fore
SplineSet
424 551 m 2x7c
 392 411 l 1
 396 405 405 401 412 400 c 1
 395 332 l 1xbc
 315 332 304 343 294 362 c 1
 294 362 239 333 190 333 c 0
 128 333 102 373 117 435 c 0
 131 496 168 525 250 529 c 2
 324 533 l 1
 330 556 l 2
 334 574 322 582 292 582 c 0
 250 582 166 575 166 575 c 1
 177 638 l 1
 177 638 253 659 315 659 c 0
 399 659 444 637 424 551 c 2x7c
311 474 m 1
 253 470 l 2
 228 468 214 459 209 437 c 0
 205 415 214 406 236 406 c 0
 262 406 299 422 299 422 c 1x7c
 311 474 l 1
EndSplineSet
EndChar

StartChar: ordmasculine
Encoding: 186 186 209
Width: 342
Flags: MW
HStem: 332 80<247 284 247 298> 582 77<283.5 320>
VStem: 124 95 351 96
LayerCount: 2
Fore
SplineSet
321 659 m 0
 377 659 435 639 444 588 c 0
 450 557 446 527 439 499 c 0
 410 375 352 332 244 332 c 0
 166 332 121 375 124 447 c 0
 125 463 128 482 133 502 c 0
 161 618 221 659 321 659 c 0
263 412 m 0
 305 412 327 433 345 500 c 0
 349 514 351 527 351 540 c 0
 351 570 336 582 304 582 c 0
 263 582 241 562 227 504 c 0
 222 485 219 470 219 455 c 0
 219 425 231 412 263 412 c 0
EndSplineSet
EndChar

StartChar: quotedblleft
Encoding: 8220 8220 210
Width: 352
Flags: MW
HStem: 444 241<114 321 114 321 290 290 290 321 240 398>
VStem: 114 383<444 685>
LayerCount: 2
Fore
SplineSet
240 685 m 1
 321 685 l 1
 222 444 l 1
 114 444 l 1
 240 685 l 1
416 685 m 1
 497 685 l 1
 398 444 l 1
 290 444 l 1
 416 685 l 1
EndSplineSet
EndChar

StartChar: asciitilde
Encoding: 126 126 211
Width: 560
Flags: MW
HStem: 181 98<420.5 463.5 420.5 471> 232 98<217.5 260>
VStem: 123 432<233 278>
LayerCount: 2
Fore
SplineSet
546 320 m 1xa0
 555 233 l 1
 555 233 500 181 442 181 c 0xa0
 388 181 280 232 240 232 c 0
 195 232 133 190 133 190 c 1
 123 278 l 1
 123 278 186 330 243 330 c 0x60
 298 330 397 279 444 279 c 0
 483 279 546 320 546 320 c 1xa0
EndSplineSet
EndChar

StartChar: emdash
Encoding: 8212 8212 212
Width: 1056
Flags: MW
HStem: 220 93<90 1090 90 1090>
VStem: 90 1000<220 313 220 313>
LayerCount: 2
Fore
SplineSet
90 313 m 1
 1090 313 l 1
 1090 220 l 1
 90 220 l 1
 90 313 l 1
EndSplineSet
Substitution2: "'case' Case-Sensitive Forms in Lateinisch lookup 4 subtable" emdash.cap
EndChar

StartChar: six
Encoding: 54 54 213
Width: 560
Flags: MW
HStem: -11 96<279.5 363.5 279.5 395> 324 96<363.5 397> 576 95<391 484.5>
VStem: 105 114<182.5 231.5 182.5 316> 463 114<192 270>
LayerCount: 2
Fore
SplineSet
637 650 m 1
 603 560 l 1
 603 560 524 576 445 576 c 0
 337 576 278 486 244 382 c 1
 244 382 329 420 398 420 c 0
 524 420 577 357 577 252 c 0
 577 98 482 -11 308 -11 c 0
 183 -11 105 63 105 220 c 0
 105 412 230 671 471 671 c 0
 547 671 637 650 637 650 c 1
365 324 m 0
 293 324 228 293 228 293 c 1
 224 276 219 246 219 217 c 0
 219 148 245 85 314 85 c 0
 413 85 463 145 463 239 c 0
 463 301 429 324 365 324 c 0
EndSplineSet
Substitution2: "'frac' Diagonal Fractions in Lateinisch lookup 1 subtable" sixsuperior
EndChar

StartChar: nine
Encoding: 57 57 214
Width: 560
Flags: MW
HStem: -11 21G<194 324> -11 102<217 305 217 324> 243 100<301.5 330> 570 101<359 444.5>
VStem: 135 109 499 97
LayerCount: 2
Fore
SplineSet
79 11 m 1xb4
 113 107 l 1
 113 107 178 91 256 91 c 0
 354 91 436 156 466 274 c 1
 466 274 358 243 302 243 c 0
 185 243 126 298 135 427 c 0
 143 542 238 671 422 671 c 0
 558 671 610 566 596 395 c 1
 580 121 417 -11 231 -11 c 0x7c
 157 -11 79 11 79 11 c 1xb4
336 343 m 0
 395 343 489 365 489 365 c 1
 515 484 492 570 397 570 c 0
 321 570 251 519 244 436 c 0
 236 366 267 343 336 343 c 0
EndSplineSet
Substitution2: "'frac' Diagonal Fractions in Lateinisch lookup 1 subtable" ninesuperior
EndChar

StartChar: yen
Encoding: 165 165 215
Width: 560
Flags: MW
HStem: 0 21G<229 340 229 229> 140 96<127 263 104 284 395 526 127 373> 291 95<140 255 161 255 161 290 489 560>
VStem: 104 610<140 660>
LayerCount: 2
Fore
SplineSet
140 291 m 1
 161 386 l 1
 255 386 l 1
 145 660 l 1
 265 660 l 1
 369 408 l 1
 570 660 l 1
 714 660 l 1
 489 386 l 1
 582 386 l 1
 560 291 l 1
 416 291 l 1
 405 277 l 1
 395 236 l 1
 548 236 l 1
 526 140 l 1
 373 140 l 1
 340 0 l 1
 229 0 l 1
 263 140 l 1
 104 140 l 1
 127 236 l 1
 284 236 l 1
 294 278 l 1
 290 291 l 1
 140 291 l 1
EndSplineSet
EndChar

StartChar: less
Encoding: 60 60 216
Width: 560
Flags: MW
HStem: 11 477<521 521>
VStem: 111 410<11 296 11 296>
LayerCount: 2
Fore
SplineSet
521 377 m 1
 226 253 l 1
 521 123 l 1
 521 11 l 1
 111 206 l 1
 111 296 l 1
 521 488 l 1
 521 377 l 1
EndSplineSet
EndChar

StartChar: greater
Encoding: 62 62 217
Width: 560
Flags: MW
HStem: 11 477<153 153>
VStem: 153 410<11 296 123 296 206 488 206 488>
LayerCount: 2
Fore
SplineSet
448 253 m 1
 153 377 l 1
 153 488 l 1
 563 296 l 1
 563 206 l 1
 153 11 l 1
 153 123 l 1
 448 253 l 1
EndSplineSet
EndChar

StartChar: bracketleft
Encoding: 91 91 218
Width: 259
Flags: MW
HStem: -122 93<136 214> 654 93<295 397 295 295>
VStem: 2 417
LayerCount: 2
Fore
SplineSet
205 747 m 1
 419 747 l 1
 397 654 l 1
 295 654 l 1
 136 -29 l 1
 237 -29 l 1
 214 -122 l 1
 2 -122 l 1
 205 747 l 1
EndSplineSet
Substitution2: "'case' Case-Sensitive Forms in Lateinisch lookup 4 subtable" bracketleft.cap
EndChar

StartChar: backslash
Encoding: 92 92 219
Width: 459
Flags: MW
HStem: 0 21G<319 319>
VStem: 187 245
LayerCount: 2
Fore
SplineSet
432 4 m 1
 319 0 l 1
 187 698 l 1
 301 702 l 1
 432 4 l 1
EndSplineSet
EndChar

StartChar: bracketright
Encoding: 93 93 220
Width: 258
Flags: MW
HStem: -122 93<6 108 6 198 -16 108> 654 93<189 267 166 401>
VStem: -16 417
LayerCount: 2
Fore
SplineSet
198 -122 m 1
 -16 -122 l 1
 6 -29 l 1
 108 -29 l 1
 267 654 l 1
 166 654 l 1
 189 747 l 1
 401 747 l 1
 198 -122 l 1
EndSplineSet
Substitution2: "'case' Case-Sensitive Forms in Lateinisch lookup 4 subtable" bracketright.cap
EndChar

StartChar: bar
Encoding: 124 124 221
Width: 325
Flags: MW
HStem: -215 21G<165 165 165 273> 688 20G<165 273 273 273>
VStem: 165 108<-215 708 -215 708>
LayerCount: 2
Fore
SplineSet
165 -215 m 1
 165 708 l 1
 273 708 l 1
 273 -215 l 1
 165 -215 l 1
EndSplineSet
EndChar

StartChar: notequal
Encoding: 8800 8800 222
Width: 560
Flags: MW
HStem: -10 21G<167 167> 103 98<119 216 119 259 359 557 119 316> 301 98<119 346 119 303 119 403 446 557>
VStem: 119 438<103 201 103 201 301 399 103 399>
LayerCount: 2
Fore
SplineSet
119 301 m 1
 119 399 l 1
 346 399 l 1
 414 554 l 1
 500 520 l 1
 446 399 l 1
 557 399 l 1
 557 301 l 1
 403 301 l 1
 359 201 l 1
 557 201 l 1
 557 103 l 1
 316 103 l 1
 252 -44 l 1
 167 -10 l 1
 216 103 l 1
 119 103 l 1
 119 201 l 1
 259 201 l 1
 303 301 l 1
 119 301 l 1
EndSplineSet
EndChar

StartChar: mu
Encoding: 181 181 223
Width: 560
Flags: MW
HStem: -215 21G<34 34 34 142> -11 94<265.5 278> 0 83<265.5 476 265.5 372> 480 20G<198 306 306 306 483 591 591 591>
VStem: 34 557
LayerCount: 2
Fore
SplineSet
34 -215 m 1xd8
 135 227 l 1
 136 232 l 1
 143 261 l 1
 149 285 l 1
 198 500 l 1
 306 500 l 1
 257 285 l 1
 243 224 l 2
 237 197 233 166 233 148 c 0
 233 107 246 83 285 83 c 0
 332 83 406 166 406 166 c 1xd8
 483 500 l 1
 591 500 l 1
 476 0 l 1
 372 0 l 1xb8
 383 66 l 1
 383 66 315 -11 241 -11 c 0xd8
 222 -11 205 -8 191 -2 c 1xb8
 142 -215 l 1
 34 -215 l 1xd8
EndSplineSet
EndChar

StartChar: ae
Encoding: 230 230 224
Width: 729
Flags: MW
HStem: -11 94<184.5 193.5> -11 99<498.5 539.5> 204 84 221.5 87.5 408 102<326.5 362.5> 416 94<592.5 619>
VStem: 57 107 335 14 377 76 667 104
LayerCount: 2
Fore
SplineSet
525 88 m 0x6740
 594 88 698 97 698 97 c 1
 679 12 l 1
 679 12 584 -11 495 -11 c 0
 431 -11 385 6 361 40 c 1
 321 22 220 -11 167 -11 c 0
 80 -11 43 69 61 149 c 0
 82 246 145 284 223 297 c 0
 271 305 320 309 368 309 c 1
 379 342 391 408 334 408 c 0
 264 408 153 395 153 395 c 1x5bc0
 170 492 l 1
 170 492 291 510 362 510 c 0
 414 510 457 493 474 455 c 1
 513 493 564 510 621 510 c 0
 718 510 767 462 771 377 c 0
 772 344 767 308 757 275 c 2
 738 203 l 1
 453 205 l 1
 449 184 446 164 448 148 c 0
 451 111 472 88 525 88 c 0x6740
204 83 m 0x9740
 240 83 298 96 338 107 c 1
 331 145 339 185 349 226 c 1
 317 224 277 221 245 217 c 0
 206 213 176 191 167 152 c 0
 160 123 165 83 204 83 c 0x9740
472 289 m 1x6740
 659 287 l 1
 667 315 670 341 667 361 c 0
 664 397 641 416 597 416 c 0
 527 416 492 371 472 289 c 1x6740
EndSplineSet
EndChar

StartChar: florin
Encoding: 402 402 225
Width: 560
Flags: MW
HStem: -243 95<99.5 130 99.5 153> -232 21G<21 21> 368 101<217 289 195 313 419 538 217 395> 598 101<481.5 520.5> 687 21G<621 621>
VStem: 21 600
LayerCount: 2
Fore
SplineSet
395 368 m 1x6c
 292 -65 l 2
 259 -204 202 -243 104 -243 c 0xac
 72 -243 21 -232 21 -232 c 1x6c
 41 -145 l 1
 41 -145 86 -148 113 -148 c 0
 147 -148 172 -126 187 -63 c 2
 289 368 l 1
 195 368 l 1
 217 469 l 1
 313 469 l 1
 322 503 l 2
 362 652 406 699 504 699 c 0xb4
 541 699 596 692 621 687 c 1x6c
 599 595 l 1
 599 595 535 598 506 598 c 0x74
 457 598 437 556 424 492 c 2
 419 469 l 1
 562 469 l 1
 538 368 l 1
 395 368 l 1x6c
EndSplineSet
EndChar

StartChar: oe
Encoding: 339 339 226
Width: 776
Flags: MW
HStem: -11 97<238 279> 204 84 413 97<301 367>
VStem: 95 93 717 102
LayerCount: 2
Fore
SplineSet
573 88 m 0
 642 88 747 97 747 97 c 1
 728 12 l 1
 728 12 633 -11 543 -11 c 0
 473 -11 429 11 408 53 c 1
 367 11 316 -11 242 -11 c 0
 139 -11 92 32 84 107 c 0
 78 154 83 202 95 253 c 0
 132 402 195 510 364 510 c 0
 438 510 481 486 502 439 c 1
 545 488 599 510 667 510 c 0
 762 510 813 466 819 385 c 0
 821 356 820 320 808 280 c 2
 784 203 l 1
 499 205 l 1
 493 182 491 162 493 145 c 0
 497 108 522 88 573 88 c 0
263 86 m 0
 360 86 385 173 407 258 c 0
 414 285 420 317 417 348 c 0
 414 392 392 413 342 413 c 0
 260 413 224 353 201 253 c 0
 190 207 184 169 188 140 c 0
 192 105 213 86 263 86 c 0
518 289 m 1
 708 287 l 1
 715 318 719 342 717 361 c 0
 714 397 693 411 647 411 c 0
 577 411 537 372 518 289 c 1
EndSplineSet
EndChar

StartChar: daggerdbl
Encoding: 8225 8225 227
Width: 477
Flags: MW
HStem: 106 108.5 387 109.5
VStem: 65 485<106 497>
LayerCount: 2
Fore
SplineSet
170 -72 m 1
 211 106 l 1
 65 106 l 1
 90 215 l 1
 237 214 l 1
 277 387 l 1
 132 387 l 1
 157 497 l 1
 304 496 l 1
 346 676 l 1
 447 676 l 1
 405 497 l 1
 550 497 l 1
 526 387 l 1
 380 388 l 1
 338 215 l 1
 485 215 l 1
 459 106 l 1
 312 106 l 1
 270 -72 l 1
 170 -72 l 1
EndSplineSet
EndChar

StartChar: quotedbl
Encoding: 34 34 228
Width: 309
Flags: MW
HStem: 450 241<220 346 164 409>
VStem: 164 245<450 691>
LayerCount: 2
Fore
SplineSet
346 450 m 1
 164 450 l 1
 220 691 l 1
 409 691 l 1
 346 450 l 1
EndSplineSet
EndChar

StartChar: quotesingle
Encoding: 39 39 229
Width: 148
Flags: MW
HStem: 450 241<184 222 128 285>
VStem: 128 157
LayerCount: 2
Fore
SplineSet
222 450 m 1
 128 450 l 1
 184 691 l 1
 285 691 l 1
 222 450 l 1
EndSplineSet
EndChar

StartChar: parenleft
Encoding: 40 40 230
Width: 231
Flags: MW
HStem: -123 871<90 397 90 397>
VStem: 64 113<53.5 270.5 53.5 284>
LayerCount: 2
Fore
SplineSet
296 748 m 1
 397 748 l 1
 397 748 177 417 177 124 c 0
 177 -17 193 -123 193 -123 c 1
 90 -123 l 1
 90 -123 64 -31 64 124 c 0
 64 444 296 748 296 748 c 1
EndSplineSet
Substitution2: "'case' Case-Sensitive Forms in Lateinisch lookup 4 subtable" parenleft.cap
EndChar

StartChar: parenright
Encoding: 41 41 231
Width: 232
Flags: MW
HStem: -118 871<-20 287 -20 287>
VStem: 200 113<359.5 576.5>
LayerCount: 2
Fore
SplineSet
81 -118 m 1
 -20 -118 l 1
 -20 -118 200 213 200 506 c 0
 200 647 184 753 184 753 c 1
 287 753 l 1
 287 753 313 661 313 506 c 0
 313 186 81 -118 81 -118 c 1
EndSplineSet
Substitution2: "'case' Case-Sensitive Forms in Lateinisch lookup 4 subtable" parenright.cap
EndChar

StartChar: comma
Encoding: 44 44 232
Width: 179
Flags: MW
HStem: -130 265<-35 193 -35 193>
VStem: -35 228
LayerCount: 2
Fore
SplineSet
54 -130 m 1
 -35 -130 l 1
 74 135 l 1
 193 135 l 1
 54 -130 l 1
EndSplineSet
EndChar

StartChar: hyphen
Encoding: 45 45 233
Width: 297
Flags: MW
HStem: 217 98<72 347 97 323>
VStem: 72 275<217 315>
LayerCount: 2
Fore
SplineSet
72 217 m 1
 97 315 l 1
 347 315 l 1
 323 217 l 1
 72 217 l 1
EndSplineSet
EndChar

StartChar: period
Encoding: 46 46 234
Width: 159
Flags: MW
HStem: 0 135<25 165 55 135>
VStem: 25 140<0 135>
LayerCount: 2
Fore
SplineSet
25 0 m 1
 55 135 l 1
 165 135 l 1
 135 0 l 1
 25 0 l 1
EndSplineSet
EndChar

StartChar: colon
Encoding: 58 58 235
Width: 163
Flags: MW
HStem: 0 135<26 166 56 136> 311 135<99 239 129 209>
VStem: 26 213
LayerCount: 2
Fore
SplineSet
99 311 m 1
 129 446 l 1
 239 446 l 1
 209 311 l 1
 99 311 l 1
26 0 m 1
 56 135 l 1
 166 135 l 1
 136 0 l 1
 26 0 l 1
EndSplineSet
EndChar

StartChar: semicolon
Encoding: 59 59 236
Width: 186
Flags: MW
HStem: 311 135<116 256 146 226>
VStem: -31 287
LayerCount: 2
Fore
SplineSet
-31 -130 m 1
 58 -130 l 1
 197 135 l 1
 78 135 l 1
 -31 -130 l 1
116 311 m 1
 146 446 l 1
 256 446 l 1
 226 311 l 1
 116 311 l 1
EndSplineSet
EndChar

StartChar: equal
Encoding: 61 61 237
Width: 560
Flags: MW
HStem: 103 98<119 557 119 557> 301 98<119 557 119 557>
VStem: 119 438<103 201 103 201 301 399 103 399>
LayerCount: 2
Fore
SplineSet
119 301 m 1
 119 399 l 1
 557 399 l 1
 557 301 l 1
 119 301 l 1
119 103 m 1
 119 201 l 1
 557 201 l 1
 557 103 l 1
 119 103 l 1
EndSplineSet
EndChar

StartChar: question
Encoding: 63 63 238
Width: 424
Flags: MW
HStem: 0 146<129 272 162 239> 599 97<304.5 340> 670 21G<181 181>
VStem: 399 115<516 565>
LayerCount: 2
Fore
SplineSet
514 551 m 0xb0
 514 454 474 413 357 327 c 0
 317 297 294 268 289 243 c 2
 280 203 l 1
 178 203 l 1
 178 203 178 245 185 281 c 0
 192 319 225 357 282 399 c 0
 366 461 399 491 399 541 c 0
 399 589 366 599 314 599 c 0
 248 599 170 584 170 584 c 1
 181 670 l 1
 181 670 270 696 339 696 c 0xd0
 444 696 514 656 514 551 c 0xb0
129 0 m 1
 162 146 l 1
 272 146 l 1
 239 0 l 1
 129 0 l 1
EndSplineSet
EndChar

StartChar: underscore
Encoding: 95 95 239
Width: 521
Flags: MW
HStem: -182 102<18 443 -5 466>
VStem: -5 471<-182 -80>
LayerCount: 2
Fore
SplineSet
18 -80 m 1
 466 -80 l 1
 443 -182 l 1
 -5 -182 l 1
 18 -80 l 1
EndSplineSet
EndChar

StartChar: braceleft
Encoding: 123 123 240
Width: 299
Flags: MW
HStem: -130 94<249 275>
VStem: 97 107<2.5 14> 141 109<201 213.5>
LayerCount: 2
Fore
SplineSet
250 220 m 0xa0
 250 182 204 64 204 21 c 0
 204 -16 227 -36 275 -36 c 1
 249 -130 l 1
 154 -129 97 -87 97 -10 c 0xc0
 97 38 141 156 141 196 c 0
 141 231 122 256 72 279 c 1
 91 359 l 1
 180 382 194 407 206 458 c 0
 213 487 231 592 234 601 c 0
 268 712 331 751 459 756 c 1
 441 662 l 1
 370 657 343 624 331 571 c 2
 308 448 l 2
 289 367 257 336 188 312 c 1
 227 292 250 269 250 220 c 0xa0
EndSplineSet
Substitution2: "'case' Case-Sensitive Forms in Lateinisch lookup 4 subtable" braceleft.cap
EndChar

StartChar: braceright
Encoding: 125 125 241
Width: 298
Flags: MW
HStem: 659 21G<167 191> 659 94<167 193>
VStem: 192 109<409.5 422> 238 107<609 620.5>
LayerCount: 2
Fore
SplineSet
192 403 m 0xa0
 192 441 238 559 238 602 c 0
 238 639 215 659 167 659 c 1
 193 753 l 1
 288 752 345 710 345 633 c 0x50
 345 585 301 467 301 427 c 0
 301 392 320 367 370 344 c 1
 351 264 l 1
 262 241 248 216 236 165 c 0
 229 136 211 31 208 22 c 0
 174 -89 111 -128 -17 -133 c 1
 1 -39 l 1
 72 -34 99 -1 111 52 c 2
 134 175 l 2
 153 256 185 287 254 311 c 1
 215 331 192 354 192 403 c 0xa0
EndSplineSet
Substitution2: "'case' Case-Sensitive Forms in Lateinisch lookup 4 subtable" braceright.cap
EndChar

StartChar: cent
Encoding: 162 162 242
Width: 560
Flags: MW
HStem: 46 87<306 452> 367 208<407 426>
VStem: 150 108
LayerCount: 2
Fore
SplineSet
254 -77 m 1
 278 32 l 1
 152 38 135 147 160 249 c 0
 195 390 277 460 382 466 c 1
 407 575 l 1
 495 575 l 1
 468 464 l 1
 506 460 547 454 547 454 c 1
 520 362 l 1
 520 362 444 367 408 367 c 0
 324 367 285 329 265 249 c 0
 247 176 257 133 355 133 c 0
 393 133 470 138 470 138 c 1
 452 46 l 1
 452 46 406 40 367 38 c 1
 341 -77 l 1
 254 -77 l 1
EndSplineSet
EndChar

StartChar: quoteleft
Encoding: 8216 8216 243
Width: 177
Flags: MW
HStem: 443 241<115 322 115 322>
VStem: 115 207
LayerCount: 2
Fore
SplineSet
241 684 m 1
 322 684 l 1
 223 443 l 1
 115 443 l 1
 241 684 l 1
EndSplineSet
EndChar

StartChar: quoteright
Encoding: 8217 8217 244
Width: 177
Flags: MW
HStem: 444 241<116 323 116 323>
VStem: 116 207
LayerCount: 2
Fore
SplineSet
197 444 m 1
 116 444 l 1
 215 685 l 1
 323 685 l 1
 197 444 l 1
EndSplineSet
EndChar

StartChar: divide
Encoding: 247 247 245
Width: 560
Flags: MW
HStem: 23 118<283 391 283 391> 241 110<163 231 163 231 444 513>
VStem: 231 213<351 428 351 428> 283 108<23 141 23 141>
LayerCount: 2
Fore
SplineSet
163 241 m 1xd0
 163 351 l 1
 231 351 l 1
 231 428 l 1
 444 428 l 1
 444 351 l 1
 513 351 l 1
 513 241 l 1xe0
 163 241 l 1xd0
283 23 m 1xd0
 283 141 l 1
 391 141 l 1
 391 23 l 1
 283 23 l 1xd0
EndSplineSet
EndChar

StartChar: Euro
Encoding: 8364 8364 246
Width: 560
Flags: MW
HStem: -11 94<323 380> 194 86<115 150 95 157 267 493> 365 86<154 174 133 203 154 285 317 532> 578 93<446 520.5>
VStem: 150 111<179 187 187 194 153.5 194>
LayerCount: 2
Fore
SplineSet
513 97 m 1
 505 13 l 1
 505 13 417 -11 343 -11 c 0
 212 -11 150 57 150 179 c 2
 150 194 l 1
 95 194 l 1
 115 280 l 1
 157 280 l 1
 161 308 166 336 174 365 c 1
 133 365 l 1
 154 451 l 1
 203 451 l 1
 254 573 344 671 487 671 c 0
 565 671 650 645 650 645 c 1
 625 564 l 1
 625 564 559 578 482 578 c 0
 410 578 355 526 317 451 c 1
 551 451 l 1
 532 365 l 1
 285 365 l 1
 277 337 271 309 267 280 c 1
 513 280 l 1
 493 194 l 1
 261 194 l 1
 261 187 l 2
 261 120 289 83 357 83 c 0
 433 83 513 97 513 97 c 1
EndSplineSet
EndChar

StartChar: ampersand
Encoding: 38 38 247
Width: 638
Flags: MW
HStem: -11 93<254 313> 605 91<405 451>
VStem: 68 113<138 205.5 138 219.5> 240 109<487.5 534.5 484.5 572> 488 109<519.5 567>
LayerCount: 2
Fore
SplineSet
435 696 m 0
 539 696 597 655 597 558 c 0
 597 460 548 406 412 353 c 1
 503 229 l 1
 521 256 547 317 557 356 c 1
 658 356 l 1
 641 293 594 202 560 158 c 1
 646 54 l 1
 571 -11 l 1
 492 90 l 1
 433 28 359 -11 267 -11 c 0
 113 -11 68 60 68 157 c 0
 68 282 134 353 268 405 c 1
 250 438 240 467 240 508 c 0
 240 636 322 696 435 696 c 0
287 82 m 0
 342 82 404 115 438 157 c 1
 308 340 l 1
 209 298 181 242 181 169 c 0
 181 107 221 82 287 82 c 0
349 506 m 0
 349 463 358 436 373 414 c 1
 464 456 488 490 488 549 c 0
 488 585 469 605 433 605 c 0
 377 605 349 563 349 506 c 0
EndSplineSet
EndChar

StartChar: asterisk
Encoding: 42 42 248
Width: 419
Flags: MW
HStem: 504 64<377 503 377 503 376 503> 693 20G<352 352>
VStem: 167 336<458 504>
LayerCount: 2
Fore
SplineSet
503 504 m 1
 376 504 l 1
 415 382 l 1
 353 363 l 1
 312 486 l 1
 207 407 l 1
 167 458 l 1
 273 537 l 1
 170 611 l 1
 209 665 l 1
 312 590 l 1
 352 713 l 1
 416 692 l 1
 377 568 l 1
 503 568 l 1
 503 504 l 1
EndSplineSet
EndChar

StartChar: sterling
Encoding: 163 163 249
Width: 560
Flags: MW
HStem: 0 93<98 194 304 409 77 194> 340 93<194 250 172 271 382 533 194 361> 583 96<451 503.5 418.5 504>
VStem: 77 540
LayerCount: 2
Fore
SplineSet
617 658 m 1
 592 575 l 1
 592 575 526 583 482 583 c 0
 420 583 407 535 389 463 c 2
 382 433 l 1
 555 433 l 1
 533 340 l 1
 361 340 l 1
 304 93 l 1
 416 93 l 1
 487 110 l 1
 485 17 l 1
 409 0 l 1
 77 0 l 1
 98 93 l 1
 194 93 l 1
 250 340 l 1
 172 340 l 1
 194 433 l 1
 271 433 l 1
 282 476 l 2
 316 615 359 679 478 679 c 0
 529 679 617 658 617 658 c 1
EndSplineSet
EndChar

StartChar: paragraph
Encoding: 182 182 250
Width: 561
Flags: MW
HStem: 0 21G<207 296 207 207 376 464 376 376> 612 88<442 522 442 442 610 610 610 659>
VStem: 142 538<427 700>
LayerCount: 2
Fore
SplineSet
376 0 m 1
 522 612 l 1
 442 612 l 1
 296 0 l 1
 207 0 l 1
 283 317 l 1
 178 319 142 389 142 465 c 0
 142 580 233 700 368 700 c 2
 680 700 l 1
 659 612 l 1
 610 612 l 1
 464 0 l 1
 376 0 l 1
EndSplineSet
EndChar

StartChar: dagger
Encoding: 8224 8224 251
Width: 450
Flags: MW
HStem: 387.5 109.5
VStem: 118 418<387 497>
LayerCount: 2
Fore
SplineSet
118 387 m 1
 143 497 l 1
 289 497 l 1
 331 676 l 1
 432 676 l 1
 391 497 l 1
 536 497 l 1
 512 387 l 1
 365 388 l 1
 256 -72 l 1
 156 -72 l 1
 263 387 l 1
 118 387 l 1
EndSplineSet
EndChar

StartChar: percent
Encoding: 37 37 252
Width: 560
Flags: MW
HStem: 0 68<418 444 418 451.5> 219 67<456 482> 483 151<240 304> 692 21G<591 591> 695 20G<524 524>
VStem: 231 83 327 81 492 82
LayerCount: 2
Fore
SplineSet
291 634 m 0xf7
 317 634 319 611 306 559 c 0
 293 507 280 483 253 483 c 0
 227 483 226 508 238 559 c 0
 251 611 265 634 291 634 c 0xf7
128 6 m 1
 524 715 l 1xcb
 591 692 l 1
 195 -17 l 1
 128 6 l 1
156 559 m 0
 132 462 164 415 237 415 c 0
 309 415 364 462 388 559 c 0
 412 656 380 701 308 701 c 0
 234 701 180 656 156 559 c 0
335 144 m 0
 359 241 413 286 486 286 c 0
 559 286 590 241 566 144 c 0
 542 47 488 0 415 0 c 0
 342 0 311 47 335 144 c 0
417 144 m 0
 403 92 405 68 431 68 c 0
 457 68 471 92 484 144 c 0
 497 196 495 219 469 219 c 0
 443 219 429 196 417 144 c 0
EndSplineSet
EndChar

StartChar: plus
Encoding: 43 43 253
Width: 560
Flags: MW
HStem: 202 98<110 287 110 287 385 565>
VStem: 287 98<21 202 21 202 300 479>
LayerCount: 2
Fore
SplineSet
110 202 m 1
 110 300 l 1
 287 300 l 1
 287 479 l 1
 385 479 l 1
 385 300 l 1
 565 300 l 1
 565 202 l 1
 385 202 l 1
 385 21 l 1
 287 21 l 1
 287 202 l 1
 110 202 l 1
EndSplineSet
EndChar

StartChar: asciicircum
Encoding: 94 94 254
Width: 560
Flags: MW
HStem: 316 344<82 366 82 366 272 558 272 444>
VStem: 82 476<316 316>
LayerCount: 2
Fore
SplineSet
444 316 m 1
 320 554 l 1
 196 316 l 1
 82 316 l 1
 272 660 l 1
 366 660 l 1
 558 316 l 1
 444 316 l 1
EndSplineSet
EndChar

StartChar: quotedblright
Encoding: 8221 8221 255
Width: 353
Flags: MW
HStem: 444 241<116 323 116 323 292 292 292 323 215 373>
VStem: 116 383<444 685>
LayerCount: 2
Fore
SplineSet
197 444 m 1
 116 444 l 1
 215 685 l 1
 323 685 l 1
 197 444 l 1
373 444 m 1
 292 444 l 1
 391 685 l 1
 499 685 l 1
 373 444 l 1
EndSplineSet
EndChar

StartChar: zerosuperior
Encoding: 8304 8304 256
Width: 280
Flags: MW
HStem: 468 79<254 262.5> 721 79<310 320>
VStem: 150 92 330 92
LayerCount: 2
Fore
SplineSet
327 800 m 0
 406 800 442 759 411 633 c 0
 393 560 369 515 336 490 c 0
 310 472 280 468 245 468 c 0
 164 468 130 506 161 633 c 0
 179 705 204 752 237 776 c 0
 263 795 293 800 327 800 c 0
308 721 m 0
 285 721 271 706 252 633 c 0
 234 559 243 547 265 547 c 0
 288 547 301 559 320 633 c 0
 338 705 332 721 308 721 c 0
EndSplineSet
Substitution2: "Single Substitution lookup 5 subtable" zeroinferior
EndChar

StartChar: onesuperior
Encoding: 185 185 257
Width: 280
Flags: MW
HStem: 693 21G<285 285>
VStem: 195 202<717 790>
LayerCount: 2
Fore
SplineSet
195 717 m 1
 316 790 l 1
 397 790 l 1
 320 478 l 1
 232 478 l 1
 285 693 l 1
 220 655 l 1
 195 717 l 1
EndSplineSet
Substitution2: "Single Substitution lookup 5 subtable" oneinferior
EndChar

StartChar: twosuperior
Encoding: 178 178 258
Width: 280
Flags: MW
HStem: 478 79<269 358> 716 84<268.5 368.5>
VStem: 317 100
LayerCount: 2
Fore
SplineSet
358 478 m 1
 137 478 l 1
 155 553 l 1
 252 624 l 2
 292 652 312 671 317 692 c 0
 322 710 308 716 281 716 c 0
 256 716 199 709 199 709 c 1
 216 790 l 1
 216 790 286 800 330 800 c 0
 407 800 429 772 412 704 c 0
 401 659 376 631 328 599 c 2
 269 557 l 1
 377 557 l 1
 358 478 l 1
EndSplineSet
Substitution2: "Single Substitution lookup 5 subtable" twoinferior
EndChar

StartChar: threesuperior
Encoding: 179 179 259
Width: 280
Flags: MW
HStem: 468 79<233.5 265.5 233.5 283> 600 72<220 268 202 284> 721 79<270.5 361>
VStem: 297 93 319 100
LayerCount: 2
Fore
SplineSet
215 791 m 1xf0
 215 791 281 800 323 800 c 0
 399 800 430 774 416 714 c 0xe8
 406 673 379 650 364 642 c 1
 387 632 397 614 386 567 c 0
 369 499 318 468 248 468 c 0
 199 468 132 476 132 476 c 1
 157 553 l 1
 157 553 215 547 252 547 c 0
 279 547 292 556 297 574 c 0
 302 594 290 600 268 600 c 2
 202 600 l 1
 220 672 l 1xf0
 284 672 l 2
 300 672 315 682 319 698 c 0
 323 715 313 721 290 721 c 0xe8
 251 721 201 715 201 715 c 1
 215 791 l 1xf0
EndSplineSet
Substitution2: "Single Substitution lookup 5 subtable" threeinferior
EndChar

StartChar: foursuperior
Encoding: 8308 8308 260
Width: 280
Flags: MW
HStem: 519 79<248 275 248 362 248 380>
VStem: 137 267<519 687>
LayerCount: 2
Fore
SplineSet
265 478 m 1
 275 519 l 1
 137 519 l 1
 155 592 l 1
 259 790 l 1
 356 790 l 1
 248 598 l 1
 295 598 l 1
 328 687 l 1
 404 687 l 1
 382 598 l 1
 399 598 l 1
 380 519 l 1
 362 519 l 1
 352 478 l 1
 265 478 l 1
EndSplineSet
Substitution2: "Single Substitution lookup 5 subtable" fourinferior
EndChar

StartChar: fivesuperior
Encoding: 8309 8309 261
Width: 280
Flags: MW
HStem: 470 76<234.5 264.5 234.5 285> 604 75<269.5 347.5> 669 21G<268 268> 714 76<283 411 283 283>
VStem: 296 97
LayerCount: 2
Fore
SplineSet
231 790 m 1xb8
 430 790 l 1
 411 714 l 1
 283 714 l 1
 268 669 l 1xb8
 268 669 297 679 320 679 c 0
 375 679 406 650 389 580 c 0
 368 500 322 470 248 470 c 0
 198 470 138 484 138 484 c 1
 163 556 l 1
 163 556 215 546 254 546 c 0
 275 546 291 556 296 576 c 0
 302 597 294 604 278 604 c 0
 261 604 239 596 239 596 c 1
 175 604 l 1xd8
 231 790 l 1xb8
EndSplineSet
Substitution2: "Single Substitution lookup 5 subtable" fiveinferior
EndChar

StartChar: sixsuperior
Encoding: 8310 8310 262
Width: 280
Flags: MW
HStem: 468 76<256 277.5 256 288.5> 613 72<275.5 353> 723 77<308.5 340>
VStem: 156 89
LayerCount: 2
Fore
SplineSet
436 789 m 1
 413 717 l 1
 413 717 355 723 325 723 c 0
 292 723 276 706 268 677 c 1
 284 681 303 685 318 685 c 0
 388 685 412 648 395 581 c 0
 375 504 326 468 251 468 c 0
 165 468 140 523 166 625 c 0
 194 741 243 800 341 800 c 0
 377 800 436 789 436 789 c 1
285 613 m 0
 266 613 249 601 249 601 c 1
 241 567 245 544 267 544 c 0
 288 544 300 559 306 580 c 0
 312 603 305 613 285 613 c 0
EndSplineSet
Substitution2: "Single Substitution lookup 5 subtable" sixinferior
EndChar

StartChar: sevensuperior
Encoding: 8311 8311 263
Width: 280
Flags: MW
HStem: 703 87<190 430 211 303>
VStem: 151 279
LayerCount: 2
Fore
SplineSet
190 703 m 1
 211 790 l 1
 430 790 l 1
 407 699 l 1
 251 469 l 1
 151 487 l 1
 300 687 l 1
 303 703 l 1
 190 703 l 1
EndSplineSet
Substitution2: "Single Substitution lookup 5 subtable" seveninferior
EndChar

StartChar: eightsuperior
Encoding: 8312 8312 264
Width: 280
Flags: MW
HStem: 468 71<252.5 274.5 252.5 284.5> 605 64<286 290 270 306> 729 71<300 322>
VStem: 142 96 184 88 305 94 335 95
LayerCount: 2
Fore
SplineSet
328 800 m 0xea
 409 800 441 770 427 713 c 0xea
 416 668 386 644 374 640 c 1
 384 637 408 619 395 570 c 0
 375 491 324 468 245 468 c 0
 167 468 128 493 146 568 c 0xf4
 158 615 193 638 204 641 c 1
 195 645 175 664 188 713 c 0
 202 771 247 800 328 800 c 0xea
263 539 m 0xf4
 286 539 299 550 305 571 c 0
 309 587 302 598 290 605 c 1
 270 605 l 1
 254 598 242 587 238 570 c 0
 232 550 242 539 263 539 c 0xf4
311 729 m 0xea
 289 729 277 720 272 702 c 0
 269 687 275 676 286 669 c 1
 306 669 l 1
 322 676 332 687 335 702 c 0
 340 719 333 729 311 729 c 0xea
EndSplineSet
Substitution2: "Single Substitution lookup 5 subtable" eightinferior
EndChar

StartChar: ninesuperior
Encoding: 8313 8313 265
Width: 280
Flags: MW
HStem: 468 79<226 262 226 284.5> 583 70<219.5 294> 662 21G<323 323> 723 77<296 316.5>
VStem: 173 94 328 89
LayerCount: 2
Fore
SplineSet
137 480 m 1
 161 553 l 1
 161 553 207 547 245 547 c 0
 279 547 295 565 301 590 c 0
 302 591 275 583 253 583 c 0xfc
 186 583 161 620 177 687 c 0
 196 760 249 800 322 800 c 0
 409 800 433 743 406 635 c 0
 376 517 333 468 236 468 c 0
 191 468 137 480 137 480 c 1
287 653 m 0
 301 653 323 662 323 662 c 1xbc
 333 702 328 723 305 723 c 0
 287 723 273 710 267 688 c 0
 262 667 270 653 287 653 c 0
EndSplineSet
Substitution2: "Single Substitution lookup 5 subtable" nineinferior
EndChar

StartChar: questiondown
Encoding: 191 191 266
Width: 421
Flags: MW
HStem: -196 97<199 234.5> 354 146<300 377 267 410>
VStem: 25 115<-65 -16 -65 -2.5>
LayerCount: 2
Fore
SplineSet
25 -51 m 0
 25 46 65 87 182 173 c 0
 222 203 245 232 250 257 c 2
 259 297 l 1
 361 297 l 1
 361 297 361 255 354 219 c 0
 347 181 314 143 257 101 c 0
 173 39 140 9 140 -41 c 0
 140 -89 173 -99 225 -99 c 0
 291 -99 369 -84 369 -84 c 1
 358 -170 l 1
 358 -170 269 -196 200 -196 c 0
 95 -196 25 -156 25 -51 c 0
410 500 m 1
 377 354 l 1
 267 354 l 1
 300 500 l 1
 410 500 l 1
EndSplineSet
Substitution2: "'case' Case-Sensitive Forms in Lateinisch lookup 4 subtable" questiondown.cap
EndChar

StartChar: questiondown.cap
Encoding: 65550 -1 267
Width: 384
Flags: MW
HStem: 4 97<225 260.5> 554 146<326 403 293 436>
VStem: 51 115<135 184 135 197.5>
LayerCount: 2
Fore
SplineSet
51 149 m 0
 51 246 91 287 208 373 c 0
 248 403 271 432 276 457 c 2
 285 497 l 1
 387 497 l 1
 387 497 387 455 380 419 c 0
 373 381 340 343 283 301 c 0
 199 239 166 209 166 159 c 0
 166 111 199 101 251 101 c 0
 317 101 395 116 395 116 c 1
 384 30 l 1
 384 30 295 4 226 4 c 0
 121 4 51 44 51 149 c 0
436 700 m 1
 403 554 l 1
 293 554 l 1
 326 700 l 1
 436 700 l 1
EndSplineSet
EndChar

StartChar: ellipsis
Encoding: 8230 8230 268
Width: 625
Flags: MW
HStem: 0 135<25 165 55 135 288 368 55 258 521 601>
VStem: 25 140<0 135> 258 140<0 135> 491 140<0 135>
LayerCount: 2
Fore
SplineSet
25 0 m 1
 55 135 l 1
 165 135 l 1
 135 0 l 1
 25 0 l 1
258 0 m 1
 288 135 l 1
 398 135 l 1
 368 0 l 1
 258 0 l 1
491 0 m 1
 521 135 l 1
 631 135 l 1
 601 0 l 1
 491 0 l 1
EndSplineSet
EndChar

StartChar: endash.cap
Encoding: 65551 -1 269
Width: 556
Flags: MW
HStem: 250 93<97 597 97 597>
VStem: 97 500<250 343 250 343>
LayerCount: 2
Fore
SplineSet
97 343 m 1
 597 343 l 1
 597 250 l 1
 97 250 l 1
 97 343 l 1
EndSplineSet
Position2: "'cpsp' Capital Spacing in Lateinisch lookup 0 subtable" dx=5 dy=0 dh=10 dv=0
EndChar

StartChar: emdash.cap
Encoding: 65552 -1 270
Width: 1056
Flags: MW
HStem: 250 93<97 1097 97 1097>
VStem: 97 1000<250 343 250 343>
LayerCount: 2
Fore
SplineSet
97 343 m 1
 1097 343 l 1
 1097 250 l 1
 97 250 l 1
 97 343 l 1
EndSplineSet
Position2: "'cpsp' Capital Spacing in Lateinisch lookup 0 subtable" dx=5 dy=0 dh=10 dv=0
EndChar

StartChar: periodcentered
Encoding: 183 183 271
Width: 159
Flags: MW
HStem: 223 147<76 219 109 186>
VStem: 76 143
LayerCount: 2
Fore
SplineSet
76 223 m 1
 109 370 l 1
 219 370 l 1
 186 223 l 1
 76 223 l 1
EndSplineSet
Substitution2: "'case' Case-Sensitive Forms in Lateinisch lookup 4 subtable" periodcentered.cap
EndChar

StartChar: periodcentered.cap
Encoding: 65553 -1 272
Width: 160
Flags: MW
HStem: 261 146<85 228 118 195>
VStem: 85 143
LayerCount: 2
Fore
SplineSet
85 261 m 1
 118 407 l 1
 228 407 l 1
 195 261 l 1
 85 261 l 1
EndSplineSet
Position2: "'cpsp' Capital Spacing in Lateinisch lookup 0 subtable" dx=5 dy=0 dh=10 dv=0
EndChar

StartChar: currency
Encoding: 164 164 273
Width: 560
Flags: MW
HStem: 62 100 342 99
VStem: 149 100 428 99
LayerCount: 2
Fore
SplineSet
501 14 m 1
 430 86 l 1
 373 54 304 54 247 86 c 1
 176 14 l 1
 101 89 l 1
 172 160 l 1
 141 217 141 287 172 343 c 1
 101 415 l 1
 176 490 l 1
 247 418 l 1
 304 449 373 449 430 418 c 1
 501 490 l 1
 576 415 l 1
 504 343 l 1
 535 287 535 217 504 160 c 1
 576 89 l 1
 501 14 l 1
275 188 m 0
 310 153 367 153 402 188 c 0
 437 223 437 281 402 316 c 0
 367 351 310 351 275 316 c 0
 240 281 240 223 275 188 c 0
EndSplineSet
EndChar

StartChar: perthousand
Encoding: 8240 8240 274
Width: 826
Flags: MW
HStem: 0 68<426 452.5 426 460 684 710> 219 67<464 490.5 722 748> 482 151<242 305> 696 21G<585 585>
VStem: 232 84 335 82 501 82 593 81 758 82
LayerCount: 2
Fore
SplineSet
292 633 m 0
 318 633 321 611 308 559 c 0
 295 507 281 482 255 482 c 0
 229 482 227 507 240 559 c 0
 253 611 266 633 292 633 c 0
149 1 m 1
 517 715 l 1
 585 696 l 1
 217 -17 l 1
 149 1 l 1
158 559 m 0
 134 462 165 415 238 415 c 0
 311 415 365 462 389 559 c 0
 413 656 382 701 309 701 c 0
 236 701 182 656 158 559 c 0
343 144 m 0xc6
 367 241 421 286 494 286 c 0
 567 286 599 241 575 144 c 0
 551 47 496 0 424 0 c 0
 351 0 319 47 343 144 c 0xc6
425 144 m 0
 412 92 413 68 439 68 c 0
 466 68 480 92 493 144 c 0
 506 196 504 219 477 219 c 0
 451 219 438 196 425 144 c 0
601 144 m 0xc180
 625 241 678 286 751 286 c 0
 824 286 856 241 832 144 c 0
 808 47 753 0 681 0 c 0
 608 0 577 47 601 144 c 0xc180
682 144 m 0
 669 92 671 68 697 68 c 0
 723 68 737 92 750 144 c 0
 763 196 761 219 735 219 c 0
 709 219 695 196 682 144 c 0
EndSplineSet
EndChar

StartChar: lessequal
Encoding: 8804 8804 275
Width: 560
Flags: MW
HStem: 20 98<116 537 116 537> 488 20G<537 537>
VStem: 116 421<20 118 20 118 20 373 20 373>
LayerCount: 2
Fore
SplineSet
537 402 m 1
 238 330 l 1
 537 251 l 1
 537 145 l 1
 116 278 l 1
 116 373 l 1
 537 508 l 1
 537 402 l 1
116 20 m 1
 116 118 l 1
 537 118 l 1
 537 20 l 1
 116 20 l 1
EndSplineSet
EndChar

StartChar: greaterequal
Encoding: 8805 8805 276
Width: 560
Flags: MW
HStem: 20 98<129 550 129 550> 488 20G<129 129>
VStem: 129 421<20 118 20 118 20 251 20 251 20 508 20 508>
LayerCount: 2
Fore
SplineSet
428 330 m 1
 129 402 l 1
 129 508 l 1
 550 373 l 1
 550 278 l 1
 129 145 l 1
 129 251 l 1
 428 330 l 1
550 118 m 1
 550 20 l 1
 129 20 l 1
 129 118 l 1
 550 118 l 1
EndSplineSet
EndChar

StartChar: logicalnot
Encoding: 172 172 277
Width: 560
Flags: MW
HStem: 254 97<117 452 117 550>
VStem: 452 98<110 254 254 254>
LayerCount: 2
Fore
SplineSet
117 351 m 1
 550 351 l 1
 550 110 l 1
 452 110 l 1
 452 254 l 1
 117 254 l 1
 117 351 l 1
EndSplineSet
EndChar

StartChar: Delta
Encoding: 8710 8710 278
Width: 560
Flags: MW
HStem: 0 93<192 438 192 547> 568 92<302 329 302 302>
VStem: 83 464<0 82 0 84 0 84>
LayerCount: 2
Fore
SplineSet
83 84 m 1
 222 660 l 1
 409 660 l 1
 547 82 l 1
 547 0 l 1
 83 0 l 1
 83 84 l 1
329 568 m 1
 302 568 l 1
 192 93 l 1
 438 93 l 1
 329 568 l 1
EndSplineSet
EndChar

StartChar: Omega
Encoding: 8486 8486 279
Width: 560
Flags: MW
HStem: -9 93<108 206 108 311 108 206 471 570> 574 97<288 389.5>
VStem: 107 115<302 430 293.5 480> 456 115<302 430> 471 99<-9 84>
LayerCount: 2
Fore
SplineSet
108 84 m 1xf0
 206 84 l 1
 206 84 107 223 107 381 c 0
 107 579 166 671 339 671 c 0
 512 671 571 579 571 381 c 0xf0
 571 223 471 84 471 84 c 1
 570 84 l 1
 570 -9 l 1xe8
 367 -9 l 1
 367 72 l 1
 367 72 456 234 456 353 c 0
 456 507 440 574 339 574 c 0
 237 574 222 507 222 353 c 0
 222 234 311 72 311 72 c 1
 311 -9 l 1
 108 -9 l 1
 108 84 l 1xf0
EndSplineSet
EndChar

StartChar: oslashacute
Encoding: 511 511 280
Width: 495
Flags: MW
HStem: -11 92<264 315.5 264 352.5> 1 21G<185 185> 418 92<292.5 343.5> 666 21G<533 533> 671 21G<276 276>
VStem: 85 108<160 227.5 160 251> 416 108<269.5 337>
LayerCount: 2
Fore
SplineSet
337 510 m 0xae
 369 510 399 505 423 497 c 1
 490 605 l 1
 550 579 l 1
 477 465 l 1
 507 435 524 391 524 330 c 0
 524 163 435 -11 270 -11 c 0xae
 238 -11 209 -7 185 1 c 1x6e
 118 -109 l 1
 59 -83 l 1
 132 31 l 1
 101 60 85 104 85 167 c 0
 85 335 182 510 337 510 c 0xae
285 585 m 1xb6
 276 671 l 1
 524 763 l 1xae
 533 666 l 1
 285 585 l 1xb6
197 133 m 1
 280 263 l 1
 371 412 l 1
 361 416 350 418 337 418 c 0
 248 418 193 289 193 166 c 0
 193 154 194 142 197 133 c 1
270 81 m 0
 361 81 416 208 416 331 c 0
 416 343 414 353 412 363 c 1
 331 237 l 1
 238 86 l 1
 247 82 258 81 270 81 c 0
EndSplineSet
EndChar

StartChar: exclamdown
Encoding: 161 161 281
Width: 168
Flags: MW
HStem: 365 135<144 223 113 254>
VStem: -19 273
LayerCount: 2
Fore
SplineSet
195 254 m 1
 95 -200 l 1
 -19 -200 l 1
 94 254 l 1
 195 254 l 1
254 500 m 1
 223 365 l 1
 113 365 l 1
 144 500 l 1
 254 500 l 1
EndSplineSet
Substitution2: "'case' Case-Sensitive Forms in Lateinisch lookup 4 subtable" exclamdown.cap
EndChar

StartChar: exclamdown.cap
Encoding: 65554 -1 282
Width: 174
Flags: MW
HStem: 550 135<189 268 158 299>
VStem: 26 273
LayerCount: 2
Fore
SplineSet
240 439 m 1
 140 -15 l 1
 26 -15 l 1
 139 439 l 1
 240 439 l 1
299 685 m 1
 268 550 l 1
 158 550 l 1
 189 685 l 1
 299 685 l 1
EndSplineSet
EndChar

StartChar: quotesinglbase
Encoding: 8218 8218 283
Width: 160
Flags: MW
HStem: -152 241<-44 163 -44 163>
VStem: -44 207
LayerCount: 2
Fore
SplineSet
37 -152 m 1
 -44 -152 l 1
 55 89 l 1
 163 89 l 1
 37 -152 l 1
EndSplineSet
EndChar

StartChar: parenleft.cap
Encoding: 65555 -1 284
Width: 231
Flags: MW
HStem: -93 871<97 404 97 404>
VStem: 71 113<83.5 300.5 83.5 314>
LayerCount: 2
Fore
SplineSet
303 778 m 1
 404 778 l 1
 404 778 184 447 184 154 c 0
 184 13 200 -93 200 -93 c 1
 97 -93 l 1
 97 -93 71 -1 71 154 c 0
 71 474 303 778 303 778 c 1
EndSplineSet
Position2: "'cpsp' Capital Spacing in Lateinisch lookup 0 subtable" dx=5 dy=0 dh=10 dv=0
EndChar

StartChar: parenright.cap
Encoding: 65556 -1 285
Width: 233
Flags: MW
HStem: -88 871<-12 295 -12 295>
VStem: 208 113<389.5 606.5>
LayerCount: 2
Fore
SplineSet
89 -88 m 1
 -12 -88 l 1
 -12 -88 208 243 208 536 c 0
 208 677 192 783 192 783 c 1
 295 783 l 1
 295 783 321 691 321 536 c 0
 321 216 89 -88 89 -88 c 1
EndSplineSet
Position2: "'cpsp' Capital Spacing in Lateinisch lookup 0 subtable" dx=5 dy=0 dh=10 dv=0
EndChar

StartChar: bracketleft.cap
Encoding: 65557 -1 286
Width: 259
Flags: MW
HStem: -92 93<142 220> 684 93<301 403 301 301>
VStem: 8 417
LayerCount: 2
Fore
SplineSet
211 777 m 1
 425 777 l 1
 403 684 l 1
 301 684 l 1
 142 1 l 1
 243 1 l 1
 220 -92 l 1
 8 -92 l 1
 211 777 l 1
EndSplineSet
Position2: "'cpsp' Capital Spacing in Lateinisch lookup 0 subtable" dx=5 dy=0 dh=10 dv=0
EndChar

StartChar: bracketright.cap
Encoding: 65558 -1 287
Width: 258
Flags: MW
HStem: -92 93<13 115 13 205 -9 115> 684 93<196 274 173 408>
VStem: -9 417
LayerCount: 2
Fore
SplineSet
205 -92 m 1
 -9 -92 l 1
 13 1 l 1
 115 1 l 1
 274 684 l 1
 173 684 l 1
 196 777 l 1
 408 777 l 1
 205 -92 l 1
EndSplineSet
Position2: "'cpsp' Capital Spacing in Lateinisch lookup 0 subtable" dx=5 dy=0 dh=10 dv=0
EndChar

StartChar: braceleft.cap
Encoding: 65559 -1 288
Width: 299
Flags: MW
HStem: -100 94<256 282>
VStem: 104 107<32.5 44> 148 109<231 243.5>
LayerCount: 2
Fore
SplineSet
257 250 m 0xa0
 257 212 211 94 211 51 c 0
 211 14 234 -6 282 -6 c 1
 256 -100 l 1
 161 -99 104 -57 104 20 c 0xc0
 104 68 148 186 148 226 c 0
 148 261 129 286 79 309 c 1
 98 389 l 1
 187 412 201 437 213 488 c 0
 220 517 238 622 241 631 c 0
 275 742 338 781 466 786 c 1
 448 692 l 1
 377 687 350 654 338 601 c 2
 315 478 l 2
 296 397 264 366 195 342 c 1
 234 322 257 299 257 250 c 0xa0
EndSplineSet
Position2: "'cpsp' Capital Spacing in Lateinisch lookup 0 subtable" dx=5 dy=0 dh=10 dv=0
EndChar

StartChar: braceright.cap
Encoding: 65560 -1 289
Width: 298
Flags: MW
HStem: 689 21G<174 198> 689 94<174 200>
VStem: 199 109<439.5 452> 245 107<639 650.5>
LayerCount: 2
Fore
SplineSet
199 433 m 0xa0
 199 471 245 589 245 632 c 0
 245 669 222 689 174 689 c 1
 200 783 l 1
 295 782 352 740 352 663 c 0x50
 352 615 308 497 308 457 c 0
 308 422 327 397 377 374 c 1
 358 294 l 1
 269 271 255 246 243 195 c 0
 236 166 218 61 215 52 c 0
 181 -59 118 -98 -10 -103 c 1
 8 -9 l 1
 79 -4 106 29 118 82 c 2
 141 205 l 2
 160 286 192 317 261 341 c 1
 222 361 199 384 199 433 c 0xa0
EndSplineSet
Position2: "'cpsp' Capital Spacing in Lateinisch lookup 0 subtable" dx=5 dy=0 dh=10 dv=0
EndChar

StartChar: grave.cap
Encoding: 65561 -1 290
Width: 503
Flags: MW
HStem: 765 176<354 511>
VStem: 301 259<846 849>
LayerCount: 2
Fore
SplineSet
354 941 m 1
 560 849 l 1
 511 765 l 1
 301 846 l 1
 354 941 l 1
EndSplineSet
EndChar

StartChar: caron.cap
Encoding: 65562 -1 291
Width: 452
Flags: MW
HStem: 783 145<354 366 259 427 354 354>
VStem: 259 326<928 928>
LayerCount: 2
Fore
SplineSet
585 928 m 1
 427 783 l 1
 354 783 l 1
 259 928 l 1
 366 928 l 1
 408 860 l 1
 478 928 l 1
 585 928 l 1
EndSplineSet
EndChar

StartChar: tilde.cap
Encoding: 65563 -1 292
Width: 446
Flags: MW
HStem: 792 96<491.5 506.5> 840 96<339 355.5>
VStem: 250 342<853 873>
LayerCount: 2
Fore
SplineSet
590 929 m 1xa0
 592 853 l 1
 592 853 529 792 484 792 c 0xa0
 437 792 373 840 338 840 c 0
 315 840 253 797 253 797 c 1
 250 873 l 1
 250 873 317 936 361 936 c 0x60
 416 936 478 888 505 888 c 0
 528 888 590 929 590 929 c 1xa0
EndSplineSet
EndChar

StartChar: dieresis.cap
Encoding: 65564 -1 293
Width: 400
Flags: MW
HStem: 799 117<268 385 295 357 489 550 295 462>
VStem: 268 311<799 916>
LayerCount: 2
Fore
SplineSet
268 799 m 1
 295 916 l 1
 385 916 l 1
 357 799 l 1
 268 799 l 1
462 799 m 1
 489 916 l 1
 579 916 l 1
 550 799 l 1
 462 799 l 1
EndSplineSet
EndChar

StartChar: macron.cap
Encoding: 65565 -1 294
Width: 452
Flags: MW
HStem: 814 87<255 588 275 567>
VStem: 255 333<814 901>
LayerCount: 2
Fore
SplineSet
255 814 m 1
 275 901 l 1
 588 901 l 1
 567 814 l 1
 255 814 l 1
EndSplineSet
EndChar

StartChar: breve.cap
Encoding: 65566 -1 295
Width: 452
Flags: MW
HStem: 788 137<350.5 370 272 449.5>
VStem: 270 312
LayerCount: 2
Fore
SplineSet
272 925 m 1
 370 925 l 1
 364 887 382 874 415 874 c 0
 448 874 474 895 484 925 c 1
 582 925 l 1
 555 841 502 788 397 788 c 0
 304 788 259 836 272 925 c 1
EndSplineSet
EndChar

StartChar: ring.cap
Encoding: 65567 -1 296
Width: 328
Flags: MW
HStem: 634 71<301.5 332 301.5 336> 782 71<320 346>
VStem: 203 74 375 75
LayerCount: 2
Fore
SplineSet
446 743 m 0
 428 672 373 634 299 634 c 0
 231 634 188 671 207 743 c 0
 226 818 283 853 353 853 c 0
 419 853 464 821 446 743 c 0
277 743 m 0
 273 721 286 705 317 705 c 0
 347 705 369 719 375 743 c 0
 381 771 357 782 335 782 c 0
 305 782 284 767 277 743 c 0
EndSplineSet
EndChar

StartChar: hungarumlaut.cap
Encoding: 65568 -1 297
Width: 679
Flags: MW
HStem: 746 206<448 586>
VStem: 313 415<782 912>
LayerCount: 2
Fore
SplineSet
586 746 m 1
 512 782 l 1
 645 951 l 1
 728 912 l 1
 586 746 l 1
388 747 m 1
 313 782 l 1
 448 952 l 1
 530 913 l 1
 388 747 l 1
EndSplineSet
EndChar

StartChar: dotaccent.cap
Encoding: 65569 -1 298
Width: 242
Flags: MW
HStem: 780 118<255 377 282 349>
VStem: 255 122<780 898>
LayerCount: 2
Fore
SplineSet
255 780 m 1
 282 898 l 1
 377 898 l 1
 349 780 l 1
 255 780 l 1
EndSplineSet
EndChar

StartChar: Aringacute
Encoding: 506 506 299
Width: 552
Flags: MW
HStem: 0 21G<18 18 18 130 423 423 423 534> 143 98<242 423 199 426> 588 101<406 456 425.5 431> 766 71<444 470>
VStem: 326 75 428.5 108.5 499 75
LayerCount: 2
Fore
SplineSet
18 0 m 1xc4
 331 665 l 1
 325 682 324 702 331 727 c 0
 350 802 407 837 477 837 c 0
 543 837 588 805 570 727 c 0xda
 564 703 554 683 540 666 c 1
 534 0 l 1
 423 0 l 1
 423 143 l 1
 199 143 l 1
 130 0 l 1
 18 0 l 1xc4
406 588 m 1xe4
 242 241 l 1
 426 241 l 1
 431 588 l 1
 406 588 l 1xe4
369 865 m 1
 360 951 l 1
 608 1043 l 1
 617 946 l 1
 369 865 l 1
401 727 m 0xfa
 397 705 410 689 441 689 c 0
 471 689 493 703 499 727 c 0
 505 755 481 766 459 766 c 0
 429 766 408 751 401 727 c 0xfa
EndSplineSet
Position2: "'cpsp' Capital Spacing in Lateinisch lookup 0 subtable" dx=5 dy=0 dh=10 dv=0
EndChar

StartChar: Eng
Encoding: 330 330 300
Width: 642
Flags: MW
HStem: 0 21G<70 70 70 176 397 397 397 465 571 571 571 572> 0 117<397 492 397 492 478 571 478 572> 575 110<310 325 310 310>
VStem: 70 660
LayerCount: 2
Fore
SplineSet
70 0 m 1xb0
 229 685 l 1
 412 685 l 1
 478 117 l 1
 492 117 l 1x70
 532 290 l 1
 622 685 l 1
 730 685 l 1
 572 0 l 1
 571 0 l 1
 571 -3 l 1
 532 -175 508 -200 345 -200 c 1
 364 -102 l 1
 430 -101 444 -92 465 0 c 1
 397 0 l 1
 325 575 l 1
 310 575 l 1
 176 0 l 1
 70 0 l 1xb0
EndSplineSet
Position2: "'cpsp' Capital Spacing in Lateinisch lookup 0 subtable" dx=5 dy=0 dh=10 dv=0
EndChar

StartChar: amacron
Encoding: 257 257 301
Width: 516
Flags: MW
HStem: -11 93<231.5 260> -2 21G<358 358> 419 92<291.5 357.5> 632 88<280 595 300 574>
VStem: 84 110<132.5 209 132.5 228.5>
LayerCount: 2
Fore
SplineSet
219 -11 m 0xb8
 123 -11 84 58 84 156 c 0
 84 301 161 511 337 511 c 0
 406 511 567 482 567 482 c 1
 492 158 l 2
 478 95 465 2 465 2 c 1
 358 -2 l 1x78
 358 -2 369 70 373 89 c 1
 373 89 301 -11 219 -11 c 0xb8
340 419 m 0
 243 419 194 262 194 156 c 0
 194 109 208 82 255 82 c 0
 306 82 392 189 392 189 c 1
 443 404 l 1
 443 404 375 419 340 419 c 0
280 632 m 1
 300 720 l 1
 595 720 l 1
 574 632 l 1
 280 632 l 1
EndSplineSet
EndChar

StartChar: abreve
Encoding: 259 259 302
Width: 516
Flags: MW
HStem: -11 93<231.5 260> -2 21G<358 358> 419 92<291.5 357.5> 591 90<419 461.5 419 471>
VStem: 84 110<132.5 209 132.5 228.5> 291 100
LayerCount: 2
Fore
SplineSet
219 -11 m 0xbc
 123 -11 84 58 84 156 c 0
 84 301 161 511 337 511 c 0
 406 511 567 482 567 482 c 1
 492 158 l 2
 478 95 465 2 465 2 c 1
 358 -2 l 1x7c
 358 -2 369 70 373 89 c 1
 373 89 301 -11 219 -11 c 0xbc
340 419 m 0
 243 419 194 262 194 156 c 0
 194 109 208 82 255 82 c 0
 306 82 392 189 392 189 c 1
 443 404 l 1
 443 404 375 419 340 419 c 0
294 739 m 1
 391 739 l 1
 385 708 397 681 441 681 c 0
 482 681 507 703 519 739 c 1
 616 739 l 1
 587 649 528 591 414 591 c 0
 318 591 279 645 294 739 c 1
EndSplineSet
EndChar

StartChar: aringacute
Encoding: 507 507 303
Width: 516
Flags: MW
HStem: -11 93<231.5 260> -2 21G<358 358> 419 92<291.5 357.5> 535 66<396 417.5 396 419.5> 674 68<414 434.5>
VStem: 84 110<132.5 209 132.5 228.5> 315 64
LayerCount: 2
Fore
SplineSet
356 762 m 1xae
 347 857 l 1
 595 949 l 1
 605 844 l 1
 356 762 l 1xae
219 -11 m 0
 123 -11 84 58 84 156 c 0
 84 301 161 511 337 511 c 0
 406 511 567 482 567 482 c 1
 492 158 l 2
 478 95 465 2 465 2 c 1
 358 -2 l 1x6e
 358 -2 369 70 373 89 c 1
 373 89 301 -11 219 -11 c 0
340 419 m 0
 243 419 194 262 194 156 c 0
 194 109 208 82 255 82 c 0
 306 82 392 189 392 189 c 1
 443 404 l 1
 443 404 375 419 340 419 c 0
319 639 m 0
 332 696 379 742 441 742 c 0
 501 742 523 700 512 644 c 0
 501 577 450 535 389 535 c 0xbe
 326 535 304 580 319 639 c 0
379 639 m 0xbe
 374 620 385 601 407 601 c 0
 428 601 446 617 452 638 c 0
 458 658 444 674 425 674 c 0
 403 674 385 659 379 639 c 0xbe
EndSplineSet
EndChar

StartChar: aogonek
Encoding: 261 261 304
Width: 516
Flags: MW
HStem: -210 96<314.5 401> -11 93<231.5 260> 1 21G<456 456> 419 92<291.5 357.5>
VStem: 84 110<132.5 209 132.5 228.5> 261 171.5
LayerCount: 2
Fore
SplineSet
438 -110 m 1xdc
 427 -200 l 1
 427 -200 376 -210 339 -210 c 0
 290 -210 261 -185 261 -139 c 0
 261 -86 320 -26 358 4 c 1
 361 20 369 73 373 89 c 1
 373 89 301 -11 219 -11 c 0xdc
 123 -11 84 58 84 156 c 0
 84 301 161 511 337 511 c 0
 406 511 567 482 567 482 c 1
 492 158 l 2
 478 95 465 2 465 2 c 1
 456 1 l 1xbc
 430 -17 378 -69 378 -97 c 0
 378 -107 383 -114 396 -114 c 0
 406 -114 438 -110 438 -110 c 1xdc
340 419 m 0
 243 419 194 262 194 156 c 0
 194 109 208 82 255 82 c 0
 306 82 392 189 392 189 c 1
 443 404 l 1
 443 404 375 419 340 419 c 0
EndSplineSet
EndChar

StartChar: aeacute
Encoding: 509 509 305
Width: 729
Flags: MW
HStem: -11 94<184.5 193.5> -11 99<498.5 539.5> 204 84 221.5 87.5 408 102<326.5 362.5> 416 94<592.5 619> 666 21G<654 654> 671 21G<397 397>
VStem: 57 107 335 14 377 76 667 104
LayerCount: 2
Fore
SplineSet
525 88 m 0x65d0
 594 88 698 97 698 97 c 1
 679 12 l 1
 679 12 584 -11 495 -11 c 0
 431 -11 385 6 361 40 c 1
 321 22 220 -11 167 -11 c 0
 80 -11 43 69 61 149 c 0
 82 246 145 284 223 297 c 0
 271 305 320 309 368 309 c 1
 379 342 391 408 334 408 c 0
 264 408 153 395 153 395 c 1x59f0
 170 492 l 1
 170 492 291 510 362 510 c 0
 414 510 457 493 474 455 c 1
 513 493 564 510 621 510 c 0
 718 510 767 462 771 377 c 0
 772 344 767 308 757 275 c 2
 738 203 l 1
 453 205 l 1
 449 184 446 164 448 148 c 0
 451 111 472 88 525 88 c 0x65d0
204 83 m 0x95d0
 240 83 298 96 338 107 c 1
 331 145 339 185 349 226 c 1
 317 224 277 221 245 217 c 0
 206 213 176 191 167 152 c 0
 160 123 165 83 204 83 c 0x95d0
472 289 m 1x66d0
 659 287 l 1
 667 315 670 341 667 361 c 0
 664 397 641 416 597 416 c 0
 527 416 492 371 472 289 c 1x66d0
406 585 m 1
 397 671 l 1
 645 763 l 1x65d0
 654 666 l 1
 406 585 l 1
EndSplineSet
EndChar

StartChar: cacute
Encoding: 263 263 306
Width: 407
Flags: MW
HStem: -11 94<252.5 280> 417 94<293 365.5> 666 21G<528 528> 671 21G<271 271>
VStem: 86 111<146 233 146 249.5>
LayerCount: 2
Fore
SplineSet
348 511 m 0xd8
 413 511 487 485 487 485 c 1
 459 405 l 1
 459 405 387 417 344 417 c 0
 242 417 197 290 197 176 c 0
 197 116 221 83 284 83 c 0
 326 83 393 94 393 94 c 1
 385 12 l 1
 385 12 314 -11 246 -11 c 0
 147 -11 86 48 86 153 c 0
 86 346 172 511 348 511 c 0xd8
280 585 m 1xe8
 271 671 l 1
 519 763 l 1xd8
 528 666 l 1
 280 585 l 1xe8
EndSplineSet
EndChar

StartChar: ccircumflex
Encoding: 265 265 307
Width: 407
Flags: MW
HStem: -11 94<252.5 280> 417 94<293 365.5> 580 165<209 434 209 434 421 421 421 434 371 520>
VStem: 86 111<146 233 146 249.5>
LayerCount: 2
Fore
SplineSet
348 511 m 0
 413 511 487 485 487 485 c 1
 459 405 l 1
 459 405 387 417 344 417 c 0
 242 417 197 290 197 176 c 0
 197 116 221 83 284 83 c 0
 326 83 393 94 393 94 c 1
 385 12 l 1
 385 12 314 -11 246 -11 c 0
 147 -11 86 48 86 153 c 0
 86 346 172 511 348 511 c 0
209 580 m 1
 371 745 l 1
 434 745 l 1
 520 580 l 1
 421 580 l 1
 386 654 l 1
 315 580 l 1
 209 580 l 1
EndSplineSet
EndChar

StartChar: ccaron
Encoding: 269 269 308
Width: 407
Flags: MW
HStem: -11 94<252.5 280> 417 94<293 365.5> 580 165<337 353 254 404 337 337>
VStem: 86 111<146 233 146 249.5>
LayerCount: 2
Fore
SplineSet
404 580 m 1
 337 580 l 1
 254 745 l 1
 353 745 l 1
 392 669 l 1
 461 745 l 1
 567 745 l 1
 404 580 l 1
348 511 m 0
 413 511 487 485 487 485 c 1
 459 405 l 1
 459 405 387 417 344 417 c 0
 242 417 197 290 197 176 c 0
 197 116 221 83 284 83 c 0
 326 83 393 94 393 94 c 1
 385 12 l 1
 385 12 314 -11 246 -11 c 0
 147 -11 86 48 86 153 c 0
 86 346 172 511 348 511 c 0
EndSplineSet
EndChar

StartChar: cdotaccent
Encoding: 267 267 309
Width: 407
Flags: MW
HStem: -11 94<252.5 280> 417 94<293 365.5> 592 116<315 435 342 408>
VStem: 86 111<146 233 146 249.5>
LayerCount: 2
Fore
SplineSet
348 511 m 0
 413 511 487 485 487 485 c 1
 459 405 l 1
 459 405 387 417 344 417 c 0
 242 417 197 290 197 176 c 0
 197 116 221 83 284 83 c 0
 326 83 393 94 393 94 c 1
 385 12 l 1
 385 12 314 -11 246 -11 c 0
 147 -11 86 48 86 153 c 0
 86 346 172 511 348 511 c 0
315 592 m 1
 342 708 l 1
 435 708 l 1
 408 592 l 1
 315 592 l 1
EndSplineSet
EndChar

StartChar: dcaron
Encoding: 271 271 310
Width: 600
Flags: MW
HStem: -11 92<234 259.5> 0 81<234 456 234 351> 418 92<289.5 357.5> 442 243<670 710 611 768> 442 266<611 620 511 710 611 611> 490 20G<253 359.5> 688 20G<511 620 620 620>
VStem: 84 110<131.5 206 131.5 235>
LayerCount: 2
Fore
SplineSet
768 685 m 1x91
 710 442 l 1
 611 442 l 1x89
 670 685 l 1
 768 685 l 1x91
620 708 m 1
 456 0 l 1
 351 0 l 1x63
 364 68 l 1
 364 68 299 -11 220 -11 c 0
 130 -11 84 47 84 153 c 0
 84 317 171 510 335 510 c 0xa3
 384 510 461 491 461 491 c 1x87
 511 708 l 1
 620 708 l 1
388 173 m 1xa3
 441 404 l 1
 441 404 380 418 335 418 c 0
 244 418 194 259 194 153 c 0
 194 110 213 81 255 81 c 0
 305 81 388 173 388 173 c 1xa3
EndSplineSet
EndChar

StartChar: dcroat
Encoding: 273 273 311
Width: 516
Flags: MW
HStem: -11 92<234 259.5> 0 81<234 456 234 351> 418 92<289.5 357.5> 490 20G<253 359.5> 565 98<369 478 347 500 609 641 369 587> 565 143<347 620 587 620 511 641 587 587>
VStem: 84 110<131.5 206 131.5 235>
LayerCount: 2
Fore
SplineSet
620 708 m 1xa6
 609 663 l 1
 664 663 l 1xaa
 641 565 l 1
 587 565 l 1
 456 0 l 1
 351 0 l 1x66
 364 68 l 1
 364 68 299 -11 220 -11 c 0
 130 -11 84 47 84 153 c 0
 84 317 171 510 335 510 c 0xa6
 384 510 461 491 461 491 c 1
 478 565 l 1
 347 565 l 1x96
 369 663 l 1
 500 663 l 1xaa
 511 708 l 1
 620 708 l 1xa6
388 173 m 1
 441 404 l 1
 441 404 380 418 335 418 c 0
 244 418 194 259 194 153 c 0
 194 110 213 81 255 81 c 0
 305 81 388 173 388 173 c 1
EndSplineSet
EndChar

StartChar: ecaron
Encoding: 283 283 312
Width: 470
Flags: MW
HStem: -11 93<253.5 293.5> 209 82<213 242 200 260> 422 88<315.5 371.5> 580 165<338 354 255 405 338 338>
VStem: 85 109<130.5 163.5 130.5 239.5> 414 107<341.5 390.5>
LayerCount: 2
Fore
SplineSet
277 82 m 0
 347 82 442 99 442 99 c 1
 431 17 l 1
 431 17 340 -11 247 -11 c 0
 140 -11 85 40 85 151 c 0
 85 328 165 510 357 510 c 0
 457 510 521 471 521 373 c 0
 521 246 432 209 242 209 c 2
 200 209 l 1
 196 194 194 172 194 155 c 0
 194 106 230 82 277 82 c 0
213 291 m 1
 260 291 l 2
 370 291 414 311 414 372 c 0
 414 409 391 422 352 422 c 0
 279 422 235 373 213 291 c 1
405 580 m 1
 338 580 l 1
 255 745 l 1
 354 745 l 1
 393 669 l 1
 462 745 l 1
 568 745 l 1
 405 580 l 1
EndSplineSet
EndChar

StartChar: emacron
Encoding: 275 275 313
Width: 470
Flags: MW
HStem: -11 93<253.5 293.5> 209 82<213 242 200 260> 422 88<315.5 371.5> 632 88<234 549 254 528>
VStem: 85 109<130.5 163.5 130.5 239.5> 414 107<341.5 390.5>
LayerCount: 2
Fore
SplineSet
277 82 m 0
 347 82 442 99 442 99 c 1
 431 17 l 1
 431 17 340 -11 247 -11 c 0
 140 -11 85 40 85 151 c 0
 85 328 165 510 357 510 c 0
 457 510 521 471 521 373 c 0
 521 246 432 209 242 209 c 2
 200 209 l 1
 196 194 194 172 194 155 c 0
 194 106 230 82 277 82 c 0
213 291 m 1
 260 291 l 2
 370 291 414 311 414 372 c 0
 414 409 391 422 352 422 c 0
 279 422 235 373 213 291 c 1
234 632 m 1
 254 720 l 1
 549 720 l 1
 528 632 l 1
 234 632 l 1
EndSplineSet
EndChar

StartChar: ebreve
Encoding: 277 277 314
Width: 470
Flags: MW
HStem: -11 93<253.5 293.5> 209 82<213 242 200 260> 422 88<315.5 371.5> 591 90<381 423.5 381 433>
VStem: 85 109<130.5 163.5 130.5 239.5> 253 100 414 107<341.5 390.5>
LayerCount: 2
Fore
SplineSet
277 82 m 0
 347 82 442 99 442 99 c 1
 431 17 l 1
 431 17 340 -11 247 -11 c 0
 140 -11 85 40 85 151 c 0
 85 328 165 510 357 510 c 0
 457 510 521 471 521 373 c 0
 521 246 432 209 242 209 c 2
 200 209 l 1
 196 194 194 172 194 155 c 0
 194 106 230 82 277 82 c 0
213 291 m 1
 260 291 l 2
 370 291 414 311 414 372 c 0
 414 409 391 422 352 422 c 0
 279 422 235 373 213 291 c 1
256 739 m 1
 353 739 l 1
 347 708 359 681 403 681 c 0
 444 681 469 703 481 739 c 1
 578 739 l 1
 549 649 490 591 376 591 c 0
 280 591 241 645 256 739 c 1
EndSplineSet
EndChar

StartChar: edotaccent
Encoding: 279 279 315
Width: 470
Flags: MW
HStem: -11 93<253.5 293.5> 209 82<213 242 200 260> 422 88<315.5 371.5> 592 116<320 440 347 413>
VStem: 85 109<130.5 163.5 130.5 239.5> 414 107<341.5 390.5>
LayerCount: 2
Fore
SplineSet
277 82 m 0
 347 82 442 99 442 99 c 1
 431 17 l 1
 431 17 340 -11 247 -11 c 0
 140 -11 85 40 85 151 c 0
 85 328 165 510 357 510 c 0
 457 510 521 471 521 373 c 0
 521 246 432 209 242 209 c 2
 200 209 l 1
 196 194 194 172 194 155 c 0
 194 106 230 82 277 82 c 0
213 291 m 1
 260 291 l 2
 370 291 414 311 414 372 c 0
 414 409 391 422 352 422 c 0
 279 422 235 373 213 291 c 1
320 592 m 1
 347 708 l 1
 440 708 l 1
 413 592 l 1
 320 592 l 1
EndSplineSet
EndChar

StartChar: eogonek
Encoding: 281 281 316
Width: 470
Flags: MW
HStem: -190 96<284.5 371> -11 93<253.5 254.5> 209 82<213 242 200 260> 422 88<315.5 371.5>
VStem: 85 109<130.5 163.5 130.5 239.5> 231 171.5 414 107<341.5 390.5>
LayerCount: 2
Fore
SplineSet
408 -90 m 1
 397 -180 l 1
 397 -180 346 -190 309 -190 c 0
 260 -190 231 -165 231 -119 c 0
 231 -82 261 -40 292 -9 c 1xfe
 277 -10 262 -11 247 -11 c 0
 140 -11 85 40 85 151 c 0
 85 328 165 510 357 510 c 0
 457 510 521 471 521 373 c 0x7a
 521 246 432 209 242 209 c 2
 200 209 l 1
 196 194 194 172 194 155 c 0
 194 106 230 82 277 82 c 0
 347 82 442 99 442 99 c 1
 431 17 l 1
 431 17 424 15 415 12 c 0
 387 -11 348 -53 348 -77 c 0
 348 -87 353 -94 366 -94 c 0
 376 -94 408 -90 408 -90 c 1
213 291 m 1
 260 291 l 2
 370 291 414 311 414 372 c 0
 414 409 391 422 352 422 c 0x7a
 279 422 235 373 213 291 c 1
EndSplineSet
EndChar

StartChar: gcircumflex
Encoding: 285 285 317
Width: 477
Flags: MW
HStem: -232 91<177 248 177 290> 162 89<269 320 260 344> 411 89<480 572> 422 89<279 338> 580 165<194 419 194 419 406 406 406 419 356 505>
VStem: 13 100<-91.5 -61.5> 110 101<297.5 343.5 297.5 365.5> 121 98<108 116> 355 103<-84.5 -35> 389 100<330 365 304 376>
LayerCount: 2
Fore
SplineSet
213 -232 m 0xec80
 93 -232 13 -191 13 -98 c 0xec80
 13 -25 83 17 139 45 c 1
 126 58 121 72 121 94 c 0xe980
 121 138 179 190 179 190 c 1
 136 213 110 248 110 313 c 0
 110 418 187 511 315 511 c 0xda40
 365 511 425 494 425 494 c 1
 572 500 l 1
 551 411 l 1
 480 411 l 1
 485 398 489 378 489 352 c 0
 489 256 409 162 279 162 c 0
 259 162 241 167 241 167 c 1
 241 167 219 138 219 118 c 0xe940
 219 98 244 93 312 83 c 0
 394 72 458 45 458 -40 c 0
 458 -149 367 -232 213 -232 c 0xec80
274 -2 m 0
 235 4 204 9 188 13 c 1
 156 -3 113 -38 113 -73 c 0
 113 -110 141 -141 213 -141 c 0
 283 -141 355 -117 355 -52 c 0
 355 -18 328 -10 274 -2 c 0
287 251 m 0xda40
 353 251 389 306 389 354 c 0
 389 398 366 422 310 422 c 0
 248 422 211 369 211 318 c 0
 211 277 233 251 287 251 c 0xda40
194 580 m 1
 356 745 l 1
 419 745 l 1
 505 580 l 1
 406 580 l 1
 371 654 l 1
 300 580 l 1
 194 580 l 1
EndSplineSet
EndChar

StartChar: gbreve
Encoding: 287 287 318
Width: 477
Flags: MW
HStem: -232 91<177 248 177 290> 162 89<269 320 260 344> 411 89<480 572> 422 89<279 338> 591 90<367 409.5 367 419>
VStem: 13 100<-91.5 -61.5> 110 101<297.5 343.5 297.5 365.5> 121 98<108 116> 239 100 355 103<-84.5 -35> 389 100<330 365 304 376>
LayerCount: 2
Fore
SplineSet
213 -232 m 0xec40
 93 -232 13 -191 13 -98 c 0xec40
 13 -25 83 17 139 45 c 1
 126 58 121 72 121 94 c 0xe940
 121 138 179 190 179 190 c 1
 136 213 110 248 110 313 c 0
 110 418 187 511 315 511 c 0xda20
 365 511 425 494 425 494 c 1
 572 500 l 1
 551 411 l 1
 480 411 l 1
 485 398 489 378 489 352 c 0
 489 256 409 162 279 162 c 0
 259 162 241 167 241 167 c 1
 241 167 219 138 219 118 c 0xe920
 219 98 244 93 312 83 c 0
 394 72 458 45 458 -40 c 0
 458 -149 367 -232 213 -232 c 0xec40
274 -2 m 0
 235 4 204 9 188 13 c 1
 156 -3 113 -38 113 -73 c 0
 113 -110 141 -141 213 -141 c 0
 283 -141 355 -117 355 -52 c 0
 355 -18 328 -10 274 -2 c 0
287 251 m 0xda20
 353 251 389 306 389 354 c 0
 389 398 366 422 310 422 c 0
 248 422 211 369 211 318 c 0
 211 277 233 251 287 251 c 0xda20
242 739 m 1
 339 739 l 1
 333 708 345 681 389 681 c 0
 430 681 455 703 467 739 c 1
 564 739 l 1
 535 649 476 591 362 591 c 0xeac0
 266 591 227 645 242 739 c 1
EndSplineSet
EndChar

StartChar: gdotaccent
Encoding: 289 289 319
Width: 477
Flags: MW
HStem: -232 91<177 248 177 290> 162 89<269 320 260 344> 411 89<480 572> 422 89<279 338> 592 116<307 427 334 400>
VStem: 13 100<-91.5 -61.5> 110 101<297.5 343.5 297.5 365.5> 121 98<108 116> 355 103<-84.5 -35> 389 100<330 365 304 376>
LayerCount: 2
Fore
SplineSet
213 -232 m 0xec80
 93 -232 13 -191 13 -98 c 0xec80
 13 -25 83 17 139 45 c 1
 126 58 121 72 121 94 c 0xe980
 121 138 179 190 179 190 c 1
 136 213 110 248 110 313 c 0
 110 418 187 511 315 511 c 0xda40
 365 511 425 494 425 494 c 1
 572 500 l 1
 551 411 l 1
 480 411 l 1
 485 398 489 378 489 352 c 0
 489 256 409 162 279 162 c 0
 259 162 241 167 241 167 c 1
 241 167 219 138 219 118 c 0xe940
 219 98 244 93 312 83 c 0
 394 72 458 45 458 -40 c 0
 458 -149 367 -232 213 -232 c 0xec80
274 -2 m 0
 235 4 204 9 188 13 c 1
 156 -3 113 -38 113 -73 c 0
 113 -110 141 -141 213 -141 c 0
 283 -141 355 -117 355 -52 c 0
 355 -18 328 -10 274 -2 c 0
287 251 m 0xda40
 353 251 389 306 389 354 c 0
 389 398 366 422 310 422 c 0
 248 422 211 369 211 318 c 0
 211 277 233 251 287 251 c 0xda40
307 592 m 1
 334 708 l 1
 427 708 l 1
 400 592 l 1
 307 592 l 1
EndSplineSet
EndChar

StartChar: gcommaaccent
Encoding: 291 291 320
Width: 477
Flags: MW
HStem: -232 91<177 248 177 290> 162 89<269 320 260 344> 411 89<480 572> 422 89<279 338> 581 224<298 491 298 491>
VStem: 13 100<-91.5 -61.5> 110 101<297.5 343.5 297.5 365.5> 121 98<108 116> 355 103<-84.5 -35> 389 100<330 365 304 376>
LayerCount: 2
Fore
SplineSet
400 805 m 1xea80
 491 805 l 1
 398 581 l 1
 298 581 l 1
 400 805 l 1xea80
213 -232 m 0xec80
 93 -232 13 -191 13 -98 c 0xec80
 13 -25 83 17 139 45 c 1
 126 58 121 72 121 94 c 0xe980
 121 138 179 190 179 190 c 1
 136 213 110 248 110 313 c 0
 110 418 187 511 315 511 c 0xda40
 365 511 425 494 425 494 c 1
 572 500 l 1
 551 411 l 1
 480 411 l 1
 485 398 489 378 489 352 c 0
 489 256 409 162 279 162 c 0
 259 162 241 167 241 167 c 1
 241 167 219 138 219 118 c 0xe940
 219 98 244 93 312 83 c 0
 394 72 458 45 458 -40 c 0
 458 -149 367 -232 213 -232 c 0xec80
274 -2 m 0
 235 4 204 9 188 13 c 1
 156 -3 113 -38 113 -73 c 0
 113 -110 141 -141 213 -141 c 0
 283 -141 355 -117 355 -52 c 0
 355 -18 328 -10 274 -2 c 0
287 251 m 0xda40
 353 251 389 306 389 354 c 0
 389 398 366 422 310 422 c 0
 248 422 211 369 211 318 c 0
 211 277 233 251 287 251 c 0xda40
EndSplineSet
EndChar

StartChar: hcircumflex
Encoding: 293 293 321
Width: 507
Flags: MW
HStem: 0 21G<60 168 60 60 344 344 344 452> 417 94<373 386.5> 688 20G<223 331 331 331> 755 146<281 514 511 511 511 514 451 610>
VStem: 418 112<358 372.5>
LayerCount: 2
Fore
SplineSet
168 0 m 1
 60 0 l 1
 223 708 l 1
 331 708 l 1
 269 435 l 1
 269 435 336 511 410 511 c 0
 496 511 530 453 530 377 c 0
 530 339 517 281 509 248 c 2
 452 0 l 1
 344 0 l 1
 400 241 l 2
 407 269 418 324 418 352 c 0
 418 393 407 417 366 417 c 0
 320 417 245 334 245 334 c 1
 168 0 l 1
281 755 m 1
 451 901 l 1
 514 901 l 1
 610 755 l 1
 511 755 l 1
 473 821 l 1
 396 755 l 1
 281 755 l 1
EndSplineSet
EndChar

StartChar: hbar
Encoding: 295 295 322
Width: 507
Flags: MW
HStem: 0 21G<60 168 60 60 344 452 344 344> 417 94<373 386.5> 551 94<134 208 155 187 155 295 317 427> 551 157<134 331 134 331 295 295 295 331 223 427>
VStem: 418 112<358 372.5>
LayerCount: 2
Fore
SplineSet
134 551 m 1xd8
 155 645 l 1
 208 645 l 1xe8
 223 708 l 1
 331 708 l 1xd8
 317 645 l 1
 450 645 l 1xe8
 427 551 l 1
 295 551 l 1
 269 435 l 1
 269 435 336 511 410 511 c 0
 496 511 530 453 530 377 c 0
 530 339 517 281 509 248 c 2
 452 0 l 1
 344 0 l 1
 400 241 l 2
 407 269 418 324 418 352 c 0
 418 393 407 417 366 417 c 0
 320 417 245 334 245 334 c 1
 168 0 l 1
 60 0 l 1
 187 551 l 1
 134 551 l 1xd8
EndSplineSet
EndChar

StartChar: itilde
Encoding: 297 297 323
Width: 227
Flags: MW
HStem: 0 21G<60 60 60 168> 480 20G<175 283 283 283> 600 96<316.5 330> 646 95<179 194> 659 21G<414 414>
VStem: 60 354
LayerCount: 2
Fore
SplineSet
60 0 m 1xcc
 175 500 l 1
 283 500 l 1
 168 0 l 1
 60 0 l 1xcc
410 736 m 1xe4
 414 659 l 1xcc
 414 659 352 600 308 600 c 0xe4
 264 600 209 646 179 646 c 0
 154 646 95 605 95 605 c 1
 93 681 l 1
 93 681 157 741 201 741 c 0xd4
 250 741 304 696 329 696 c 0
 351 696 410 736 410 736 c 1xe4
EndSplineSet
EndChar

StartChar: imacron
Encoding: 299 299 324
Width: 227
Flags: MW
HStem: 0 21G<60 60 60 168> 480 20G<175 283 283 283> 632 88<102 417 122 396>
VStem: 60 357
LayerCount: 2
Fore
SplineSet
60 0 m 1
 175 500 l 1
 283 500 l 1
 168 0 l 1
 60 0 l 1
102 632 m 1
 122 720 l 1
 417 720 l 1
 396 632 l 1
 102 632 l 1
EndSplineSet
EndChar

StartChar: ibreve
Encoding: 301 301 325
Width: 227
Flags: MW
HStem: 0 21G<60 60 60 168> 480 20G<175 283 283 283> 591 90<242 284.5 242 294>
VStem: 114 100
LayerCount: 2
Fore
SplineSet
60 0 m 1
 175 500 l 1
 283 500 l 1
 168 0 l 1
 60 0 l 1
117 739 m 1
 214 739 l 1
 208 708 220 681 264 681 c 0
 305 681 330 703 342 739 c 1
 439 739 l 1
 410 649 351 591 237 591 c 0
 141 591 102 645 117 739 c 1
EndSplineSet
EndChar

StartChar: iogonek
Encoding: 303 303 326
Width: 227
Flags: MW
HStem: -210 96<16.5 103.5> 480 20G<175 283 283 283> 574 117<191 328 219 301>
VStem: -36 171
LayerCount: 2
Fore
SplineSet
140 -110 m 1
 130 -200 l 1
 130 -200 78 -210 41 -210 c 0
 -8 -210 -36 -185 -36 -139 c 0
 -36 -86 24 -27 61 3 c 1
 175 500 l 1
 283 500 l 1
 168 0 l 1
 135 -20 80 -68 80 -97 c 0
 80 -107 86 -114 98 -114 c 0
 109 -114 140 -110 140 -110 c 1
191 574 m 1
 219 691 l 1
 328 691 l 1
 301 574 l 1
 191 574 l 1
EndSplineSet
EndChar

StartChar: jcircumflex
Encoding: 309 309 327
Width: 227
Flags: MW
HStem: -232 21G<-43 -43> 480 20G<175 283 283 283> 580 165<84 309 84 309 296 296 296 309 246 395>
VStem: -78 473
LayerCount: 2
Fore
SplineSet
60 0 m 2
 175 500 l 1
 283 500 l 1
 168 0 l 2
 135 -142 123 -158 -43 -232 c 1
 -78 -145 l 1
 33 -89 42 -79 60 0 c 2
84 580 m 1
 246 745 l 1
 309 745 l 1
 395 580 l 1
 296 580 l 1
 261 654 l 1
 190 580 l 1
 84 580 l 1
EndSplineSet
EndChar

StartChar: kcommaaccent
Encoding: 311 311 328
Width: 458
Flags: MW
HStem: -298 226<81 273 81 273> 0 21G<60 168 60 60 333 333 333 445> 219 89.5 479 20G<436 557 557 557> 688 20G<223 331 331 331>
VStem: 60 497
LayerCount: 2
Fore
SplineSet
81 -298 m 1
 174 -72 l 1
 273 -72 l 1
 171 -298 l 1
 81 -298 l 1
168 0 m 1
 60 0 l 1
 223 708 l 1
 331 708 l 1
 238 306 l 1
 285 311 l 1
 436 499 l 1
 557 499 l 1
 366 263 l 1
 445 0 l 1
 333 0 l 1
 269 221 l 1
 218 217 l 1
 168 0 l 1
EndSplineSet
EndChar

StartChar: lacute
Encoding: 314 314 329
Width: 231
Flags: MW
HStem: 0 21G<61 61 61 170> 688 20G<225 333 333 333>
VStem: 61 429
LayerCount: 2
Fore
SplineSet
61 0 m 1
 225 708 l 1
 333 708 l 1
 170 0 l 1
 61 0 l 1
241 774 m 1
 232 859 l 1
 480 951 l 1
 490 854 l 1
 241 774 l 1
EndSplineSet
EndChar

StartChar: lcaron
Encoding: 318 318 330
Width: 313
Flags: MW
HStem: 0 21G<61 61 61 170> 442 243<383 424 325 482> 442 266<325 333 225 424 325 325>
VStem: 61 421
LayerCount: 2
Fore
SplineSet
482 685 m 1xd0
 424 442 l 1
 325 442 l 1xb0
 383 685 l 1
 482 685 l 1xd0
61 0 m 1
 225 708 l 1
 333 708 l 1
 170 0 l 1
 61 0 l 1
EndSplineSet
EndChar

StartChar: lcommaaccent
Encoding: 316 316 331
Width: 231
Flags: MW
HStem: 0 21G<61 61 61 170> 688 20G<225 333 333 333>
VStem: -42 375
LayerCount: 2
Fore
SplineSet
51 -72 m 1
 -42 -298 l 1
 48 -298 l 1
 150 -72 l 1
 51 -72 l 1
61 0 m 1
 225 708 l 1
 333 708 l 1
 170 0 l 1
 61 0 l 1
EndSplineSet
EndChar

StartChar: nacute
Encoding: 324 324 332
Width: 506
Flags: MW
HStem: 666 21G<541 541> 671 21G<284 284>
VStem: 60 481
LayerCount: 2
Fore
SplineSet
60 0 m 1x60
 168 0 l 1
 245 334 l 1
 245 334 318 417 365 417 c 0
 407 417 418 393 418 352 c 0
 418 324 406 269 400 241 c 2
 344 0 l 1
 452 0 l 1
 509 249 l 2
 517 281 530 340 530 377 c 0
 530 453 496 511 410 511 c 0
 335 511 268 434 268 434 c 1
 279 500 l 1
 175 500 l 1
 60 0 l 1x60
293 585 m 1xa0
 284 671 l 1
 532 763 l 1x60
 541 666 l 1
 293 585 l 1xa0
EndSplineSet
EndChar

StartChar: ncaron
Encoding: 328 328 333
Width: 506
Flags: MW
HStem: 0 21G<60 168 60 60 344 344 344 452> 417 83<175 386> 417 94<372.5 386> 580 165<351 367 268 418 351 351>
VStem: 418 112<358.5 372.5>
LayerCount: 2
Fore
SplineSet
168 0 m 1xb8
 60 0 l 1
 175 500 l 1
 279 500 l 1
 268 434 l 1xd8
 268 434 335 511 410 511 c 0
 496 511 530 453 530 377 c 0
 530 340 517 281 509 249 c 2
 452 0 l 1
 344 0 l 1
 400 241 l 2
 406 269 418 324 418 352 c 0
 418 393 407 417 365 417 c 0
 318 417 245 334 245 334 c 1
 168 0 l 1xb8
418 580 m 1
 351 580 l 1
 268 745 l 1
 367 745 l 1
 406 669 l 1
 475 745 l 1
 581 745 l 1
 418 580 l 1
EndSplineSet
EndChar

StartChar: ncommaaccent
Encoding: 326 326 334
Width: 506
Flags: MW
HStem: 0 21G<60 168 60 60 344 344 344 452> 417 83<175 386> 417 94<372.5 386>
VStem: 418 112<358.5 372.5>
LayerCount: 2
Fore
SplineSet
168 0 m 1xb0
 60 0 l 1
 175 500 l 1
 279 500 l 1
 268 434 l 1xd0
 268 434 335 511 410 511 c 0
 496 511 530 453 530 377 c 0
 530 340 517 281 509 249 c 2
 452 0 l 1
 344 0 l 1
 400 241 l 2
 406 269 418 324 418 352 c 0
 418 393 407 417 365 417 c 0
 318 417 245 334 245 334 c 1
 168 0 l 1xb0
109 -298 m 1
 202 -72 l 1
 301 -72 l 1
 199 -298 l 1
 109 -298 l 1
EndSplineSet
EndChar

StartChar: omacron
Encoding: 333 333 335
Width: 495
Flags: MW
HStem: -11 92<244.5 315.5 244.5 352.5> 418 92<292.5 363.5> 632 88<233 548 253 527>
VStem: 85 108<139 227.5 139 251> 416 108<269.5 357.5>
LayerCount: 2
Fore
SplineSet
337 510 m 0
 456 510 524 455 524 330 c 0
 524 163 435 -11 270 -11 c 0
 152 -11 85 41 85 167 c 0
 85 335 182 510 337 510 c 0
270 81 m 0
 361 81 416 208 416 331 c 0
 416 384 390 418 337 418 c 0
 248 418 193 289 193 166 c 0
 193 112 219 81 270 81 c 0
233 632 m 1
 253 720 l 1
 548 720 l 1
 527 632 l 1
 233 632 l 1
EndSplineSet
EndChar

StartChar: obreve
Encoding: 335 335 336
Width: 495
Flags: MW
HStem: -11 92<244.5 315.5 244.5 352.5> 418 92<292.5 363.5> 591 90<366 408.5 366 418>
VStem: 85 108<139 227.5 139 251> 238 100 416 108<269.5 357.5>
LayerCount: 2
Fore
SplineSet
337 510 m 0
 456 510 524 455 524 330 c 0
 524 163 435 -11 270 -11 c 0
 152 -11 85 41 85 167 c 0
 85 335 182 510 337 510 c 0
270 81 m 0
 361 81 416 208 416 331 c 0
 416 384 390 418 337 418 c 0
 248 418 193 289 193 166 c 0
 193 112 219 81 270 81 c 0
241 739 m 1
 338 739 l 1
 332 708 344 681 388 681 c 0
 429 681 454 703 466 739 c 1
 563 739 l 1
 534 649 475 591 361 591 c 0
 265 591 226 645 241 739 c 1
EndSplineSet
EndChar

StartChar: ohungarumlaut
Encoding: 337 337 337
Width: 495
Flags: MW
HStem: -11 92<244.5 315.5 244.5 352.5> 418 92<292.5 363.5>
VStem: 85 108<139 227.5 139 251> 416 108<269.5 357.5>
LayerCount: 2
Fore
SplineSet
337 510 m 0
 456 510 524 455 524 330 c 0
 524 163 435 -11 270 -11 c 0
 152 -11 85 41 85 167 c 0
 85 335 182 510 337 510 c 0
270 81 m 0
 361 81 416 208 416 331 c 0
 416 384 390 418 337 418 c 0
 248 418 193 289 193 166 c 0
 193 112 219 81 270 81 c 0
459 571 m 1
 396 626 l 1
 558 794 l 1
 627 737 l 1
 459 571 l 1
270 571 m 1
 208 626 l 1
 369 793 l 1
 438 737 l 1
 270 571 l 1
EndSplineSet
EndChar

StartChar: racute
Encoding: 341 341 338
Width: 326
Flags: MW
HStem: 0 21G<60 60 60 168> 427 73<265 265> 491 20G<432 432> 666 21G<442 442> 671 21G<185 185>
VStem: 60 382
LayerCount: 2
Fore
SplineSet
60 0 m 1xac
 175 500 l 1
 282 500 l 1
 265 427 l 1xd4
 265 427 351 498 432 511 c 1
 401 399 l 1
 346 383 246 334 246 334 c 1
 168 0 l 1
 60 0 l 1xac
194 585 m 1
 185 671 l 1
 433 763 l 1xac
 442 666 l 1
 194 585 l 1
EndSplineSet
EndChar

StartChar: rcommaaccent
Encoding: 343 343 339
Width: 326
Flags: MW
HStem: 0 21G<60 60 60 168> 427 73<265 265> 491 20G<432 432>
VStem: -37 469
LayerCount: 2
Fore
SplineSet
60 0 m 1xb0
 175 500 l 1
 282 500 l 1
 265 427 l 1xd0
 265 427 351 498 432 511 c 1
 401 399 l 1
 346 383 246 334 246 334 c 1
 168 0 l 1
 60 0 l 1xb0
56 -72 m 1
 -37 -298 l 1
 53 -298 l 1
 155 -72 l 1
 56 -72 l 1
EndSplineSet
EndChar

StartChar: rcaron
Encoding: 345 345 340
Width: 326
Flags: MW
HStem: 0 21G<60 60 60 168> 427 73<265 265> 491 20G<432 432> 580 165<261 277 178 328 261 261>
VStem: 60 431
LayerCount: 2
Fore
SplineSet
60 0 m 1xb8
 175 500 l 1
 282 500 l 1
 265 427 l 1xd8
 265 427 351 498 432 511 c 1
 401 399 l 1
 346 383 246 334 246 334 c 1
 168 0 l 1
 60 0 l 1xb8
328 580 m 1
 261 580 l 1
 178 745 l 1
 277 745 l 1
 316 669 l 1
 385 745 l 1
 491 745 l 1
 328 580 l 1
EndSplineSet
EndChar

StartChar: sacute
Encoding: 347 347 341
Width: 431
Flags: MW
HStem: -11 92<195 259 195 278> 418 92<279 338.5> 666 21G<513 513> 671 21G<256 256>
VStem: 113 109<334.5 367 334.5 381> 326 110<131 167.5>
LayerCount: 2
Fore
SplineSet
490 484 m 1xdc
 470 403 l 1
 470 403 371 418 306 418 c 0
 252 418 222 386 222 348 c 0
 222 321 240 312 302 294 c 0
 388 269 436 251 436 175 c 0
 436 49 341 -11 215 -11 c 0
 126 -11 48 18 48 18 c 1
 68 99 l 1
 68 99 163 81 227 81 c 0
 291 81 326 108 326 154 c 0
 326 181 303 189 249 203 c 0
 165 225 113 251 113 321 c 0
 113 441 207 510 317 510 c 0
 411 510 490 484 490 484 c 1xdc
265 585 m 1xec
 256 671 l 1
 504 763 l 1xdc
 513 666 l 1
 265 585 l 1xec
EndSplineSet
EndChar

StartChar: scircumflex
Encoding: 349 349 342
Width: 431
Flags: MW
HStem: -11 92<195 259 195 278> 418 92<279 338.5> 580 165<194 419 194 419 406 406 406 419 356 505>
VStem: 113 109<334.5 367 334.5 381> 326 110<131 167.5>
LayerCount: 2
Fore
SplineSet
490 484 m 1
 470 403 l 1
 470 403 371 418 306 418 c 0
 252 418 222 386 222 348 c 0
 222 321 240 312 302 294 c 0
 388 269 436 251 436 175 c 0
 436 49 341 -11 215 -11 c 0
 126 -11 48 18 48 18 c 1
 68 99 l 1
 68 99 163 81 227 81 c 0
 291 81 326 108 326 154 c 0
 326 181 303 189 249 203 c 0
 165 225 113 251 113 321 c 0
 113 441 207 510 317 510 c 0
 411 510 490 484 490 484 c 1
194 580 m 1
 356 745 l 1
 419 745 l 1
 505 580 l 1
 406 580 l 1
 371 654 l 1
 300 580 l 1
 194 580 l 1
EndSplineSet
EndChar

StartChar: scedilla
Encoding: 351 351 343
Width: 432
Flags: MW
HStem: -221 75<167 189.5 166 220> -91 53<160 222> -9 21G<178 178> 418 92<279 338.5>
VStem: 113 109<334.5 367> 221 90 326 110<131 167.5>
LayerCount: 2
Fore
SplineSet
308 -124 m 0xf6
 293 -188 252 -221 188 -221 c 0
 146 -221 106 -212 106 -212 c 1
 123 -144 l 1
 123 -144 156 -146 176 -146 c 0
 203 -146 216 -137 221 -117 c 0
 227 -94 211 -91 189 -91 c 2
 160 -91 l 1xf6
 178 -9 l 1
 106 -3 48 18 48 18 c 1xb6
 68 99 l 1
 68 99 163 81 227 81 c 0
 291 81 326 108 326 154 c 0
 326 181 303 189 249 203 c 0
 165 225 113 251 113 321 c 0
 113 441 207 510 317 510 c 0
 411 510 490 484 490 484 c 1
 470 403 l 1
 470 403 371 418 306 418 c 0
 252 418 222 386 222 348 c 0
 222 321 240 312 302 294 c 0
 388 269 436 251 436 175 c 0xfa
 436 52 345 -8 223 -11 c 1
 216 -38 l 1
 222 -38 l 2
 280 -38 324 -56 308 -124 c 0xf6
EndSplineSet
Substitution2: "'locl' Localized Forms in Lateinisch lookup 0 subtable" scommaaccent
EndChar

StartChar: scommaaccent
Encoding: 537 537 344
Width: 430
Flags: MW
HStem: -72 153<163 259 195 259 195 262> -11 92<195 259 195 278> 418 92<279 338.5>
VStem: 113 109<334.5 367 334.5 381> 326 110<131 167.5>
LayerCount: 2
Fore
SplineSet
490 484 m 1x78
 470 403 l 1
 470 403 371 418 306 418 c 0
 252 418 222 386 222 348 c 0
 222 321 240 312 302 294 c 0
 388 269 436 251 436 175 c 0
 436 49 341 -11 215 -11 c 0
 126 -11 48 18 48 18 c 1
 68 99 l 1
 68 99 163 81 227 81 c 0
 291 81 326 108 326 154 c 0
 326 181 303 189 249 203 c 0
 165 225 113 251 113 321 c 0
 113 441 207 510 317 510 c 0
 411 510 490 484 490 484 c 1x78
163 -72 m 1xb8
 70 -298 l 1
 160 -298 l 1
 262 -72 l 1
 163 -72 l 1xb8
EndSplineSet
EndChar

StartChar: tcaron
Encoding: 357 357 345
Width: 437
Flags: MW
HStem: -11 92<178.5 269> 407 93<136 170 112 193 301 398 136 279> 442 58
VStem: 105 112<106 107> 105 499
LayerCount: 2
Fore
SplineSet
604 685 m 1xc8
 546 442 l 1
 447 442 l 1xa8
 505 685 l 1
 604 685 l 1xc8
398 407 m 1xc8
 279 407 l 1
 227 185 l 2
 222 164 217 135 217 118 c 0
 217 94 228 81 256 81 c 0
 282 81 328 87 328 87 c 1
 319 8 l 1
 319 8 267 -11 214 -11 c 0
 143 -11 105 32 105 91 c 0
 105 123 112 161 120 194 c 2
 170 407 l 1
 112 407 l 1
 136 500 l 1
 193 500 l 1xd0
 224 637 l 1
 333 637 l 1
 301 500 l 1
 421 500 l 1
 398 407 l 1xc8
EndSplineSet
EndChar

StartChar: tcommaaccent
Encoding: 539 539 346
Width: 324
Flags: MW
HStem: -72 153<125 269 125 269> -11 92<178.5 269> 407 93<136 170 112 193 301 398 136 279>
VStem: 32 389 105 112<106 107>
LayerCount: 2
Fore
SplineSet
398 407 m 1x70
 279 407 l 1
 227 185 l 2
 222 164 217 135 217 118 c 0
 217 94 228 81 256 81 c 0
 282 81 328 87 328 87 c 1
 319 8 l 1
 319 8 267 -11 214 -11 c 0
 143 -11 105 32 105 91 c 0
 105 123 112 161 120 194 c 2
 170 407 l 1
 112 407 l 1
 136 500 l 1
 193 500 l 1x68
 224 637 l 1
 333 637 l 1
 301 500 l 1
 421 500 l 1
 398 407 l 1x70
125 -72 m 1xa8
 32 -298 l 1
 122 -298 l 1
 224 -72 l 1
 125 -72 l 1xa8
EndSplineSet
EndChar

StartChar: tbar
Encoding: 359 359 347
Width: 328
Flags: MW
HStem: -11 92<180.5 271> 224 94<98 129 78 151 260 349 98 238> 407 93<138 172 114 195 303 400 138 281>
VStem: 78 345<224 500> 107 112<106 107>
LayerCount: 2
Fore
SplineSet
400 407 m 1xf0
 281 407 l 1
 260 318 l 1
 370 318 l 1
 349 224 l 1
 238 224 l 1
 229 185 l 2
 224 164 219 135 219 118 c 0
 219 94 230 81 258 81 c 0
 284 81 330 87 330 87 c 1
 321 8 l 1
 321 8 269 -11 216 -11 c 0
 145 -11 107 32 107 91 c 0
 107 123 114 161 122 194 c 2
 129 224 l 1
 78 224 l 1
 98 318 l 1
 151 318 l 1
 172 407 l 1
 114 407 l 1
 138 500 l 1
 195 500 l 1xe8
 226 637 l 1
 335 637 l 1
 303 500 l 1
 423 500 l 1
 400 407 l 1xf0
EndSplineSet
EndChar

StartChar: utilde
Encoding: 361 361 348
Width: 506
Flags: MW
HStem: -11 94<236.5 249> 0 83<236.5 447 236.5 343> 480 20G<169 277 277 277 454 562 562 562> 600 96<457.5 471> 646 95<320 335> 659 21G<555 555>
VStem: 92 112<127.5 141.5>
LayerCount: 2
Fore
SplineSet
551 736 m 1xb2
 555 659 l 1xa6
 555 659 493 600 449 600 c 0xb2
 405 600 350 646 320 646 c 0
 295 646 236 605 236 605 c 1
 234 681 l 1
 234 681 298 741 342 741 c 0xaa
 391 741 445 696 470 696 c 0
 492 696 551 736 551 736 c 1xb2
454 500 m 1
 562 500 l 1
 447 0 l 1
 343 0 l 1x66
 354 66 l 1
 354 66 286 -11 212 -11 c 0
 126 -11 92 47 92 123 c 0
 92 160 105 219 112 251 c 2
 169 500 l 1
 277 500 l 1
 222 259 l 2
 215 231 204 176 204 148 c 0
 204 107 217 83 256 83 c 0
 303 83 377 166 377 166 c 1
 454 500 l 1
EndSplineSet
EndChar

StartChar: umacron
Encoding: 363 363 349
Width: 506
Flags: MW
HStem: -11 94<236.5 249> 0 83<236.5 447 236.5 343> 480 20G<169 277 277 277 454 562 562 562> 632 88<236 551 256 530>
VStem: 92 112<127.5 141.5>
LayerCount: 2
Fore
SplineSet
454 500 m 1xb8
 562 500 l 1
 447 0 l 1
 343 0 l 1x78
 354 66 l 1
 354 66 286 -11 212 -11 c 0
 126 -11 92 47 92 123 c 0
 92 160 105 219 112 251 c 2
 169 500 l 1
 277 500 l 1
 222 259 l 2
 215 231 204 176 204 148 c 0
 204 107 217 83 256 83 c 0
 303 83 377 166 377 166 c 1
 454 500 l 1xb8
236 632 m 1
 256 720 l 1
 551 720 l 1
 530 632 l 1
 236 632 l 1
EndSplineSet
EndChar

StartChar: ubreve
Encoding: 365 365 350
Width: 506
Flags: MW
HStem: -11 94<236.5 249> 0 83<236.5 447 236.5 343> 480 20G<169 277 277 277 454 562 562 562> 591 90<376 418.5 376 428>
VStem: 92 112<127.5 141.5> 248 100
LayerCount: 2
Fore
SplineSet
454 500 m 1xbc
 562 500 l 1
 447 0 l 1
 343 0 l 1x7c
 354 66 l 1
 354 66 286 -11 212 -11 c 0
 126 -11 92 47 92 123 c 0
 92 160 105 219 112 251 c 2
 169 500 l 1
 277 500 l 1
 222 259 l 2
 215 231 204 176 204 148 c 0
 204 107 217 83 256 83 c 0
 303 83 377 166 377 166 c 1
 454 500 l 1xbc
251 739 m 1
 348 739 l 1
 342 708 354 681 398 681 c 0
 439 681 464 703 476 739 c 1
 573 739 l 1
 544 649 485 591 371 591 c 0
 275 591 236 645 251 739 c 1
EndSplineSet
EndChar

StartChar: uring
Encoding: 367 367 351
Width: 506
Flags: MW
HStem: -11 94<236.5 249> 0 83<236.5 447 236.5 343> 480 20G<169 277 277 277 454 562 562 562> 535 66<376 397.5 376 399.5> 674 68<394 414.5>
VStem: 92 112<127.5 141.5> 295 64
LayerCount: 2
Fore
SplineSet
299 639 m 0xbe
 312 696 359 742 421 742 c 0
 481 742 503 700 492 644 c 0
 481 577 430 535 369 535 c 0
 306 535 284 580 299 639 c 0xbe
359 639 m 0
 354 620 365 601 387 601 c 0
 408 601 426 617 432 638 c 0
 438 658 424 674 405 674 c 0
 383 674 365 659 359 639 c 0
454 500 m 1
 562 500 l 1
 447 0 l 1
 343 0 l 1x7e
 354 66 l 1
 354 66 286 -11 212 -11 c 0
 126 -11 92 47 92 123 c 0
 92 160 105 219 112 251 c 2
 169 500 l 1
 277 500 l 1
 222 259 l 2
 215 231 204 176 204 148 c 0
 204 107 217 83 256 83 c 0
 303 83 377 166 377 166 c 1
 454 500 l 1
EndSplineSet
EndChar

StartChar: uhungarumlaut
Encoding: 369 369 352
Width: 506
Flags: MW
HStem: -11 94<236.5 249> 0 83<236.5 447 236.5 343> 480 20G<169 277 277 277 454 562 562 562>
VStem: 92 112<127.5 141.5>
LayerCount: 2
Fore
SplineSet
482 571 m 1xb0
 419 626 l 1
 581 794 l 1
 650 737 l 1
 482 571 l 1xb0
293 571 m 1
 231 626 l 1
 392 793 l 1
 461 737 l 1
 293 571 l 1
454 500 m 1
 562 500 l 1
 447 0 l 1
 343 0 l 1x70
 354 66 l 1
 354 66 286 -11 212 -11 c 0
 126 -11 92 47 92 123 c 0
 92 160 105 219 112 251 c 2
 169 500 l 1
 277 500 l 1
 222 259 l 2
 215 231 204 176 204 148 c 0
 204 107 217 83 256 83 c 0
 303 83 377 166 377 166 c 1
 454 500 l 1
EndSplineSet
EndChar

StartChar: uogonek
Encoding: 371 371 353
Width: 506
Flags: MW
HStem: -210 96<299.5 387> -11 94<236.5 249> 480 20G<169 277 277 277 454 562 562 562>
VStem: 92 112<127.5 141.5> 247 171.5
LayerCount: 2
Fore
SplineSet
454 500 m 1
 562 500 l 1
 447 0 l 1
 418 -17 364 -68 364 -97 c 0
 364 -107 369 -114 382 -114 c 0
 392 -114 424 -110 424 -110 c 1
 413 -200 l 1
 413 -200 361 -210 324 -210 c 0
 275 -210 247 -185 247 -139 c 0
 247 -87 305 -27 343 3 c 1
 354 66 l 1
 354 66 286 -11 212 -11 c 0
 126 -11 92 47 92 123 c 0
 92 160 105 219 112 251 c 2
 169 500 l 1
 277 500 l 1
 222 259 l 2
 215 231 204 176 204 148 c 0
 204 107 217 83 256 83 c 0
 303 83 377 166 377 166 c 1
 454 500 l 1
EndSplineSet
EndChar

StartChar: wgrave
Encoding: 7809 7809 354
Width: 748
Flags: MW
HStem: 0 93<226 247 226 300 541 562> 480 20G<139 248 248 248 731 841 841 841> 667 21G<602 602> 671 21G<345 345>
VStem: 129 108 447.5 98
LayerCount: 2
Fore
SplineSet
397 759 m 1xdc
 602 667 l 1
 556 588 l 1xec
 345 671 l 1
 397 759 l 1xdc
139 500 m 1
 248 500 l 1
 226 93 l 1
 247 93 l 1
 426 490 l 1
 550 490 l 1
 541 93 l 1
 562 93 l 1
 731 500 l 1
 841 500 l 1
 627 0 l 1
 443 0 l 1
 452 346 l 1
 300 0 l 1
 119 0 l 1
 139 500 l 1
EndSplineSet
EndChar

